<svg width="33" height="33" viewBox="0 0 33 33" fill="none" xmlns="http://www.w3.org/2000/svg">
<path d="M0.820801 16.3469C0.820801 7.65019 7.8709 0.600098 16.5676 0.600098C25.2644 0.600098 32.3145 7.65019 32.3145 16.3469V16.8533C32.3145 25.55 25.2644 32.6001 16.5676 32.6001C7.8709 32.6001 0.820801 25.55 0.820801 16.8533V16.3469Z" fill="#59AB61"/>
<path d="M12.3147 14.8001V22.6001H9.5874V14.8001H12.3147ZM15.0419 22.6001C14.6803 22.6001 14.3334 22.4631 14.0777 22.2193C13.822 21.9755 13.6783 21.6449 13.6783 21.3001V14.8001C13.6783 14.4426 13.8283 14.1176 14.0806 13.8836L18.5669 9.6001L19.2897 10.2891C19.4738 10.4646 19.5897 10.7051 19.5897 10.9716L19.5692 11.1796L18.9215 14.1501H23.2238C23.9806 14.1501 24.5874 14.7351 24.5874 15.4501V16.7501C24.5874 16.9191 24.5533 17.0751 24.4919 17.2246L22.4329 21.8071C22.2283 22.2751 21.7442 22.6001 21.1783 22.6001H15.0419ZM15.0419 21.3001H21.1988L23.2238 16.7501V15.4501H17.2306L18.001 11.9921L15.0419 14.8196V21.3001Z" fill="white"/>
</svg>
