<svg width="19" height="19" viewBox="0 0 19 19" fill="none" xmlns="http://www.w3.org/2000/svg">
	<path d="M9.18729 18.375C8.85146 18.375 8.51546 18.2468 8.25952 17.9905L0.384521 10.1155C-0.128174 9.60278 -0.128174 8.77222 0.384521 8.25952L8.25952 0.384521C8.77222 -0.128174 9.60278 -0.128174 10.1155 0.384521C10.6282 0.897217 10.6282 1.72778 10.1155 2.24048L3.16825 9.1875L10.1163 16.1355C10.629 16.6482 10.629 17.4788 10.1163 17.9915C9.85995 18.2479 9.52362 18.375 9.18729 18.375Z" fill="white" />
	<path opacity="0.4" d="M17.0623 18.375C16.7265 18.375 16.3905 18.2468 16.1345 17.9905L8.25952 10.1155C7.74683 9.60278 7.74683 8.77222 8.25952 8.25952L16.1345 0.384521C16.6472 -0.128174 17.4778 -0.128174 17.9905 0.384521C18.5032 0.897217 18.5032 1.72778 17.9905 2.24048L11.0453 9.1875L17.9934 16.1355C18.506 16.6482 18.506 17.4788 17.9934 17.9915C17.735 18.2479 17.3986 18.375 17.0623 18.375Z" fill="white" />
</svg>
