<svg width="14" height="15" viewBox="0 0 14 15" fill="none" xmlns="http://www.w3.org/2000/svg">
<path d="M6.97009 0.899902C7.97204 0.899902 8.8433 1.4411 9.28165 2.23591C10.1774 1.94832 11.1658 2.17996 11.8982 2.86026C12.6061 3.54055 12.7994 4.51314 12.5489 5.37332C13.3766 5.79425 13.9402 6.63089 13.9402 7.59303C13.9402 8.55517 13.3766 9.39181 12.5489 9.81274C12.8239 10.6729 12.6061 11.622 11.8982 12.3253C11.1658 13.005 10.1774 13.1907 9.28165 12.9501C8.8433 13.745 7.97204 14.2862 6.97009 14.2862C5.96814 14.2862 5.09688 13.745 4.65852 12.9501C3.76276 13.2142 2.74992 13.005 2.04147 12.3253C1.33303 11.622 1.1163 10.6729 1.39129 9.81274C0.563597 9.39181 0 8.55517 0 7.59303C0 6.63089 0.563597 5.79425 1.39129 5.37332C1.0918 4.51314 1.33303 3.54055 2.04147 2.86026C2.74992 2.17996 3.76276 1.97185 4.65852 2.23591C5.09688 1.4411 5.96814 0.899902 6.97009 0.899902Z" fill="#7D7D7D"/>
</svg>
