<svg width="27" height="23" viewBox="0 0 27 23" fill="none" xmlns="http://www.w3.org/2000/svg">
<path d="M9.30034 14.0684C9.09334 14.0684 8.95384 14.0856 8.88184 14.1029V15.2318C8.96734 15.249 9.07421 15.2538 9.22159 15.2538C9.76046 15.2538 10.0923 15.0219 10.0923 14.6299C10.0923 14.2792 9.80659 14.0684 9.30034 14.0684ZM13.2232 14.0799C12.9982 14.0799 12.852 14.0971 12.7653 14.1144V16.6156C12.852 16.6329 12.9915 16.6329 13.1175 16.6329C14.0366 16.6386 14.6351 16.2074 14.6351 15.295C14.6418 14.4996 14.0962 14.0799 13.2232 14.0799Z" fill="#FE7D22"/>
<path d="M15.75 1.91699H6.75C6.15326 1.91699 5.58097 2.11893 5.15901 2.47837C4.73705 2.83782 4.5 3.32533 4.5 3.83366V19.167C4.5 19.6753 4.73705 20.1628 5.15901 20.5223C5.58097 20.8817 6.15326 21.0837 6.75 21.0837H20.25C20.8467 21.0837 21.419 20.8817 21.841 20.5223C22.2629 20.1628 22.5 19.6753 22.5 19.167V7.66699L15.75 1.91699ZM10.6853 15.5157C10.3376 15.7937 9.82462 15.9182 9.22725 15.9182C9.11142 15.9193 8.99564 15.9135 8.88075 15.901V17.2676H7.875V13.4956C8.32889 13.4379 8.78751 13.4116 9.24638 13.417C9.873 13.417 10.3185 13.5186 10.6189 13.7227C10.9046 13.9163 11.0981 14.2335 11.0981 14.6072C11.097 14.9829 10.9508 15.3001 10.6853 15.5157ZM14.9681 16.8143C14.4956 17.1487 13.7768 17.3078 12.8981 17.3078C12.3716 17.3078 11.9992 17.2791 11.7461 17.2503V13.4965C12.2002 13.4401 12.6587 13.4135 13.1175 13.417C13.9691 13.417 14.5226 13.5473 14.9546 13.8252C15.4215 14.1204 15.714 14.591 15.714 15.2666C15.714 15.9978 15.4001 16.5028 14.9681 16.8143ZM19.125 14.1549H17.4015V15.028H19.0125V15.7314H17.4015V17.2685H16.3822V13.4457H19.125V14.1549ZM15.75 8.62533H14.625V3.83366L20.25 8.62533H15.75Z" fill="#FE7D22"/>
</svg>
