<svg width="32" height="32" viewBox="0 0 32 32" fill="none" xmlns="http://www.w3.org/2000/svg">
<path d="M11.36 11.584L14.69 15.5L11.362 19.416C10.5898 20.1775 9.6097 20.6938 8.54491 20.8998C7.48011 21.1059 6.37817 20.9925 5.37763 20.574C4.37709 20.1555 3.52261 19.4505 2.92164 18.5477C2.32066 17.6449 2.00002 16.5845 2.00002 15.5C2.00002 14.4155 2.32066 13.3551 2.92164 12.4523C3.52261 11.5495 4.37709 10.8445 5.37763 10.426C6.37817 10.0075 7.48011 9.89413 8.54491 10.1002C9.6097 10.3062 10.5898 10.8225 11.362 11.584H11.36ZM16 13.956L12.832 10.226L12.804 10.196C11.755 9.14731 10.4187 8.4332 8.96385 8.14397C7.50905 7.85474 6.00115 8.00338 4.63082 8.5711C3.26049 9.13881 2.08927 10.1001 1.26524 11.3334C0.441221 12.5668 0.00140381 14.0167 0.00140381 15.5C0.00140381 16.9833 0.441221 18.4332 1.26524 19.6666C2.08927 20.8999 3.26049 21.8612 4.63082 22.4289C6.00115 22.9966 7.50905 23.1453 8.96385 22.856C10.4187 22.5668 11.755 21.8527 12.804 20.804L12.832 20.774L16 17.044L19.168 20.774L19.196 20.804C20.245 21.8527 21.5814 22.5668 23.0362 22.856C24.491 23.1453 25.9989 22.9966 27.3692 22.4289C28.7395 21.8612 29.9107 20.8999 30.7348 19.6666C31.5588 18.4332 31.9986 16.9833 31.9986 15.5C31.9986 14.0167 31.5588 12.5668 30.7348 11.3334C29.9107 10.1001 28.7395 9.13881 27.3692 8.5711C25.9989 8.00338 24.491 7.85474 23.0362 8.14397C21.5814 8.4332 20.245 9.14731 19.196 10.196L19.168 10.226L16 13.956ZM17.312 15.5L20.638 11.584C21.4102 10.8225 22.3903 10.3062 23.4551 10.1002C24.5199 9.89413 25.6218 10.0075 26.6224 10.426C27.6229 10.8445 28.4774 11.5495 29.0784 12.4523C29.6793 13.3551 30 14.4155 30 15.5C30 16.5845 29.6793 17.6449 29.0784 18.5477C28.4774 19.4505 27.6229 20.1555 26.6224 20.574C25.6218 20.9925 24.5199 21.1059 23.4551 20.8998C22.3903 20.6938 21.4102 20.1775 20.638 19.416L17.312 15.5Z" fill="white"/>
</svg>
