<svg width="51" height="17" viewBox="0 0 51 17" fill="none" xmlns="http://www.w3.org/2000/svg">
<g clip-path="url(#clip0_202_70)">
<path d="M5.05072 13.7551L2.34058 16.5714V17.3061H40.1594H49.7681L46.442 12.5306L45.4565 9.59185L41.3913 6.40818L40.1594 6.04083L39.5435 5.06124L38.6812 4.81634L37.942 3.83675L37.2029 3.34695L35.7246 1.87757L35.3551 2.12246L29.442 2.48981L24.6377 0.897974L23.0362 1.63267L15.5217 0.653076L13.1812 1.63267L7.3913 5.18369L5.05072 13.7551Z" fill="#FBFBFB"/>
<path d="M46.5704 12.65L45.7127 9.41755L41.3439 6.14942L40.2661 6.01067L39.6017 4.89786L38.7729 4.68974L38.0508 3.54224L37.3316 3.26099L36.3634 2.14817L35.947 1.69161C35.9232 1.66566 35.8929 1.64568 35.8588 1.63348C35.8248 1.62127 35.788 1.61721 35.7519 1.62167C35.7157 1.62614 35.6813 1.63897 35.6518 1.65903C35.6222 1.67909 35.5984 1.70575 35.5825 1.73661L35.4241 2.04411L34.9948 1.78349L34.0116 2.05349L32.4099 1.85286L31.7126 2.18849L31.2305 1.64474L30.6498 1.26224L30.1109 1.60911L29.2025 1.69349L27.8637 0.968799L26.6196 0.135362L26.5509 0.430673L25.0717 0.170049L24.9472 0.826299L23.4819 0.895674L22.1571 0.815049L21.3921 0.432549L20.4119 0.00504918L18.8819 0.230049L17.072 -0.174951L16.4913 0.20755L15.9186 0.0612997L14.4175 -0.231201L12.5179 1.48724L11.1772 2.77817L9.06445 4.04661L7.52648 5.0938L6.60011 6.86661L4.81711 11.0207L4.26427 13.1413L3.24029 13.281L0.530914 17.7425L50.4691 17.5344L46.5704 12.65ZM24.742 1.95411L24.6294 0.987549L25.3615 2.00005L25.7351 1.89599L27.0937 3.00411L25.8606 2.2213L26.1923 2.72567L25.487 2.43036L25.1016 2.41255L26.3576 4.67661L24.7977 2.42661L22.697 3.21974L24.742 1.95411ZM24.7808 5.2813L24.5318 5.59442L23.8276 6.11567L23.7439 6.84599L22.8872 7.48911L22.3205 8.46223L22.0714 9.54036L23.2329 8.82692L22.2368 10.5144L22.1541 9.95755L21.5734 10.7404L21.7397 9.57598L21.4489 10.0279L21.2277 10.7188L20.2207 12.2329L21.4369 9.45223L21.672 8.4613L20.6351 10.1122L20.9807 9.08661L20.3203 9.19161L19.8093 9.36505L19.6011 9.06974L18.9656 9.45223L18.5373 8.68723L17.4028 7.88755L18.3291 9.27786L16.076 7.38411L17.2095 9.38286L17.4306 9.92192L18.0811 9.85161L18.3988 10.46L18.7027 10.4432L19.131 11.1725L18.0622 10.5313L18.4606 11.7313L17.2583 10.2191L17.3131 11.2794L16.3459 9.80192L16.9127 9.8713L15.4056 6.96505L14.534 8.3713L14.5201 7.57255L13.8567 8.54567L13.9812 7.72817L13.5389 8.54567L13.4393 7.93723L12.8416 8.97974L12.8556 8.32349L12.5647 8.13599L12.3994 8.74442L12.0677 8.32723C12.0677 8.32723 11.47 9.40442 11.47 9.45692C11.47 9.50942 11.3873 8.97036 11.3873 8.97036L10.8614 9.36973L10.463 9.31817L9.81252 9.78692L9.06644 10.3082H8.16796L7.69781 10.7769L8.36121 6.83099L8.00162 5.14349L8.84531 6.32567L9.13517 4.20505L9.64716 4.29224L9.61927 4.60442L9.97886 4.63911L10.1313 3.45786L10.5177 3.6313L9.89121 5.21099L9.83543 6.08005L10.1123 6.67067L9.86132 7.43755L9.84738 8.0113L10.4699 7.57723L10.8564 7.87255L11.4093 8.4463L12.5508 7.78349L15.1406 4.09911L15.5391 4.75536L15.801 5.46786L16.327 4.63349L16.1885 3.74755L16.7005 3.31255L16.1885 2.39192L15.8897 2.0788L15.7791 0.983799L16.9953 3.10442L17.3549 2.54849L18.0183 3.45224L18.4467 3.97348L19.1379 4.2163L19.373 5.25973L18.3769 5.27661L17.8789 5.99005L17.1736 6.16349L17.8241 7.24067L18.1229 7.20599L19.0353 7.76286L19.7127 8.44067L19.9757 8.14442L20.7496 8.16224L20.9299 7.84911L21.5515 7.74505L21.6511 7.2238L22.5077 6.49348L23.0466 6.66692L23.213 6.32005L23.6004 6.19817L24.3884 5.44817L24.734 4.6663L22.1282 4.92598L24.9173 3.98849L26.4632 5.9038L25.0687 4.70099L24.9302 4.94474L25.4283 5.77911L24.7808 5.2813ZM27.4633 6.91536L27.4075 7.55849L27.1316 8.96474L26.786 10.1113L26.4403 11.7988L25.4313 13.8125L26.3018 10.6494L26.4811 9.52442L26.1634 8.62067L26.3985 7.8388L26.772 8.79411L26.8716 7.89036L27.1206 7.66442L27.1067 6.86474L27.5051 5.43974L27.5878 6.3613L27.4633 6.91536ZM31.0164 12.1475L30.5462 12.9988L30.4077 13.52L30.0492 13.8154L30.1488 14.0966L29.9824 14.3404L28.6616 15.7138L29.6089 13.61V13.1563L30.1348 11.8354L30.0651 10.3232L29.5123 9.4888L30.1896 9.90598L30.1488 8.04598L28.6277 5.88973L27.6187 5.10786L27.0649 2.50067L28.5719 5.42098L29.0152 5.6638L29.5133 6.29005L30.2603 6.15036L30.3709 6.93317L31.2833 6.82817L31.8222 5.45567L32.8034 4.74317L33.3691 5.2813L32.4428 7.01942L33.7377 5.59442L35.0236 4.01286L34.2656 5.40224L32.897 6.9688L31.7495 9.0538L32.634 7.97661L34.1829 6.70817C34.1829 6.70817 32.4727 9.1738 32.4408 9.2263C32.4089 9.2788 32.3989 10.0082 32.3989 10.0082L31.2933 11.1875L31.0164 12.1475ZM38.9383 13.1375L39.1594 13.5547L40.8877 11.4866L40.2521 11.2429L41.6467 10.9616L40.8857 12.1804L41.4116 12.2497L41.9644 11.4679L41.3558 12.6866L40.5679 12.5647L39.006 14.616L37.9103 15.7635L38.9383 13.1375ZM45.8651 16.7704L45.8791 16.1797L45.1738 15.9688L45.4508 15.3604C45.4508 15.3604 44.9527 15.4307 44.8969 15.4307C44.8411 15.4307 45.1051 14.7004 45.1051 14.7004L44.5652 14.301L44.7176 13.6747L42.7404 14.735L44.0273 13.5716L44.871 12.6341L44.1797 12.8216L44.0961 12.3529L42.8798 14.0038L41.0948 15.275L38.7729 15.5179L40.1555 15.0491L40.7362 14.4229L41.2751 14.5447L43.8879 11.6244L43.9716 12.0932L44.5383 10.9457L44.0403 10.4244L43.3629 9.67442L42.2842 8.99661C42.2842 8.99661 41.8419 9.06598 41.8001 9.06598C41.7582 9.06598 41.5929 8.80536 41.5929 8.80536L41.2472 8.90942L41.1646 8.42286L40.6665 8.45755L40.7492 8.07505L40.5151 8.16224L40.6526 7.41224L39.9095 7.2988L37.22 4.71786L37.0547 4.02974L36.6851 3.5938V3.2113L36.4361 3.15974L36.3046 4.61567L35.952 3.05474L35.5755 6.02286L35.7309 1.92505L36.5925 2.86255L37.0905 3.5113L37.7131 3.84317C37.7131 3.84317 38.4711 5.16786 38.493 5.20817C38.515 5.24849 39.2899 5.20817 39.2899 5.20817L40.0589 6.32099L41.3767 6.61255L45.2555 9.73911L46.3622 12.9988L49.3554 17.1332H47.1431L45.8651 16.7704Z" fill="url(#paint0_linear_202_70)"/>
<path d="M13.9025 10.7066L13.8885 10.6944C13.8865 10.6889 13.8835 10.6838 13.8796 10.6794C13.8874 10.6706 13.8917 10.6595 13.8917 10.648C13.8917 10.6365 13.8874 10.6254 13.8796 10.6166C13.8566 10.5894 13.8288 10.5228 13.7959 10.5566C13.8238 10.5303 13.8019 10.4741 13.766 10.4759C13.7023 10.4759 13.6803 10.4919 13.6186 10.4506C13.6107 10.4456 13.601 10.4436 13.5916 10.445C13.5822 10.4464 13.5737 10.4511 13.5678 10.4581C13.5192 10.498 13.4593 10.5237 13.3955 10.5322C13.3427 10.4263 13.2779 10.3859 13.2072 10.3944C13.1305 10.3531 13.0369 10.3944 12.9532 10.4591C12.9372 10.4561 12.9206 10.4568 12.905 10.4612C12.8894 10.4656 12.8751 10.4736 12.8635 10.4844C12.8167 10.4722 12.7719 10.4591 12.7261 10.445C12.7466 10.4308 12.7662 10.4154 12.7849 10.3991C12.8088 10.3766 12.7968 10.325 12.7669 10.3194C12.6753 10.3006 12.5866 10.2734 12.495 10.2613C12.4846 10.2419 12.4729 10.2231 12.4601 10.205C12.4605 10.1949 12.4573 10.185 12.451 10.1768C12.4447 10.1687 12.4356 10.1627 12.4253 10.16L12.4153 10.1506L12.4203 10.1459C12.4285 10.1364 12.433 10.1245 12.433 10.1122C12.433 10.0999 12.4285 10.088 12.4203 10.0784C12.3784 10.0391 12.3346 9.98001 12.2798 9.96219C12.225 9.94438 12.1693 9.98657 12.1264 10.0034C12.119 10.0066 12.1127 10.0118 12.1085 10.0184C12.0499 10.0086 11.9907 10.003 11.9312 10.0016L11.9252 9.99594C11.928 9.98656 11.9277 9.97659 11.9243 9.96737C11.921 9.95816 11.9147 9.95013 11.9063 9.94438C11.8874 9.93313 11.8625 9.92282 11.8396 9.91063C11.8382 9.90342 11.835 9.89661 11.8304 9.89075C11.8257 9.88489 11.8196 9.88014 11.8127 9.87688C11.7947 9.86844 11.7668 9.85063 11.7469 9.85438C11.7415 9.8551 11.7364 9.85703 11.732 9.86001C11.7335 9.8517 11.7322 9.84317 11.7282 9.8356C11.7243 9.82803 11.7179 9.82182 11.7101 9.81782C11.6849 9.80425 11.6564 9.79711 11.6274 9.79711C11.5984 9.79711 11.5699 9.80425 11.5447 9.81782L11.5338 9.82907C11.504 9.82932 11.4745 9.8239 11.4471 9.81313C11.4222 9.80188 11.3933 9.83094 11.3943 9.85907C11.3923 9.89131 11.3988 9.9235 11.4132 9.95282V9.95845C11.3645 9.95422 11.3155 9.95422 11.2668 9.95845C11.3166 10.0213 11.3664 10.1459 11.4003 10.2022C11.3726 10.1975 11.3443 10.1975 11.3166 10.2022C11.3197 10.1901 11.3237 10.1782 11.3286 10.1666C11.3505 10.1113 11.2788 10.0634 11.2558 10.1188C11.2434 10.149 11.2348 10.1804 11.2299 10.2125H11.212C11.2154 10.2728 11.2224 10.3329 11.2329 10.3925C11.2171 10.3896 11.2009 10.3896 11.1851 10.3925C11.1895 10.3859 11.192 10.3784 11.1926 10.3706C11.1932 10.3629 11.1918 10.3551 11.1884 10.348C11.1851 10.3409 11.18 10.3347 11.1735 10.3298C11.167 10.325 11.1594 10.3217 11.1513 10.3203C11.1343 10.317 11.1188 10.3092 11.1064 10.2978C11.1203 10.2962 11.1334 10.291 11.1443 10.2828C11.1901 10.25 11.1443 10.1675 11.1024 10.2003C11.0875 10.2106 11.0417 10.2003 11.0218 10.2003C11.0018 10.2003 10.9869 10.2294 10.9749 10.2481C10.9692 10.2589 10.9675 10.2712 10.9702 10.283C10.9729 10.2948 10.9799 10.3053 10.9899 10.3128C11.007 10.3247 11.0233 10.3375 11.0387 10.3513C11.029 10.3523 11.0199 10.3562 11.0127 10.3625C11.0056 10.3687 11.0007 10.3769 10.9989 10.3859C10.9917 10.4052 10.989 10.4256 10.9909 10.4459H10.9829C10.9707 10.4471 10.9594 10.4528 10.9516 10.4618C10.9437 10.4707 10.94 10.4822 10.9411 10.4938C10.9411 10.5472 10.952 10.5491 10.9839 10.5875C11.0007 10.6066 11.0148 10.6277 11.0257 10.6503C11.0235 10.6589 11.0235 10.6679 11.0257 10.6766C11.0011 10.6809 10.9761 10.6834 10.951 10.6841C10.97 10.6588 10.96 10.6063 10.9202 10.6025C10.905 10.5979 10.8903 10.592 10.8763 10.5847C10.8713 10.5823 10.866 10.5807 10.8604 10.58C10.8449 10.5732 10.8275 10.5709 10.8106 10.5734C10.8053 10.5725 10.7999 10.5725 10.7947 10.5734C10.7855 10.5719 10.7761 10.5729 10.7675 10.5763C10.759 10.5797 10.7517 10.5854 10.7465 10.5927C10.7413 10.5999 10.7385 10.6084 10.7384 10.6172C10.7383 10.6259 10.7409 10.6345 10.7458 10.6419C10.7486 10.6457 10.7509 10.6498 10.7528 10.6541C10.747 10.6554 10.7413 10.6573 10.7359 10.6597C10.7296 10.6379 10.7187 10.6175 10.704 10.5997C10.7151 10.5981 10.7251 10.5925 10.732 10.5841C10.7388 10.5757 10.742 10.5652 10.7409 10.5547C10.7422 10.5277 10.7349 10.5009 10.7199 10.4778C10.713 10.4696 10.7035 10.4637 10.6927 10.461C10.6819 10.4583 10.6705 10.4589 10.6602 10.4628C10.6438 10.4711 10.6296 10.4826 10.6183 10.4966C10.6126 10.4726 10.605 10.4491 10.5954 10.4263C10.5954 10.4141 10.5715 10.4197 10.5735 10.4338C10.5751 10.4527 10.5785 10.4716 10.5835 10.49C10.5054 10.4364 10.435 10.3733 10.3743 10.3025C10.3673 10.2922 10.3554 10.3025 10.3544 10.3119C10.3529 10.3275 10.3529 10.3432 10.3544 10.3588C10.3431 10.355 10.3308 10.355 10.3195 10.3588C10.3184 10.3485 10.3184 10.3381 10.3195 10.3278C10.3209 10.3256 10.3214 10.3231 10.321 10.3206C10.3206 10.3181 10.3193 10.3158 10.3173 10.314C10.3154 10.3123 10.3129 10.3112 10.3102 10.311C10.3075 10.3108 10.3048 10.3114 10.3026 10.3128C10.2458 10.34 10.2548 10.3484 10.2827 10.2903C10.2827 10.2781 10.2767 10.265 10.2657 10.2716C10.2547 10.2787 10.243 10.285 10.2309 10.2903C10.2288 10.2865 10.2261 10.283 10.2229 10.28L10.207 10.2678C10.207 10.2556 10.2159 10.2388 10.2229 10.2181C10.2239 10.2156 10.2239 10.2128 10.223 10.2102C10.2221 10.2076 10.2203 10.2054 10.2179 10.2039C10.2155 10.2024 10.2126 10.2016 10.2097 10.2019C10.2068 10.2021 10.2041 10.2032 10.202 10.205L10.1631 10.2444L10.1382 10.2331L10.1462 10.2247C10.1572 10.2116 10.1412 10.1938 10.1293 10.205L10.1113 10.2238C10.1109 10.2216 10.1096 10.2197 10.1078 10.2183C10.106 10.2169 10.1037 10.2162 10.1014 10.2163C10.1133 10.2003 10.1243 10.1844 10.1362 10.1666C10.1382 10.1645 10.1393 10.1618 10.1393 10.1591C10.1393 10.1563 10.1382 10.1536 10.1362 10.1516L10.1731 10.1009C10.1801 10.0916 10.1731 10.0728 10.1611 10.0784C10.1489 10.0833 10.1372 10.0892 10.1263 10.0963C10.1263 10.085 10.1193 10.0738 10.1093 10.0794L10.0625 10.1094C10.0927 10.0673 10.1181 10.0224 10.1382 9.97532C10.1382 9.96501 10.1382 9.95188 10.1243 9.95563C10.1053 9.96204 10.0875 9.97122 10.0715 9.98282C10.0797 9.96146 10.086 9.93952 10.0904 9.91719C10.0904 9.90407 10.0795 9.89469 10.0705 9.90407L10.0635 9.91157C10.0635 9.90126 10.0725 9.89094 10.0775 9.87969C10.0824 9.86844 10.0715 9.85344 10.0605 9.86094L10.0147 9.89282C10.0207 9.86938 10.0257 9.84407 10.0297 9.82157C10.0336 9.79907 10.0207 9.79813 10.0117 9.80563C10.0028 9.81313 9.97089 9.83282 9.95196 9.84782C9.95794 9.82063 9.96292 9.79344 9.96889 9.76626C9.96889 9.75501 9.95993 9.74469 9.95096 9.75126C9.942 9.75782 9.93204 9.76251 9.92307 9.77001C9.91411 9.77751 9.92307 9.76532 9.92307 9.76438L9.91311 9.75688C9.92208 9.72782 9.93204 9.69594 9.93503 9.68751C9.93801 9.67907 9.92706 9.65938 9.9161 9.67063C9.85932 9.72969 9.81649 9.79907 9.85135 9.67063C9.85209 9.6679 9.8518 9.66501 9.85053 9.66246C9.84926 9.65991 9.84709 9.65785 9.84439 9.65664C9.84169 9.65542 9.83863 9.65512 9.83572 9.65579C9.83281 9.65647 9.83024 9.65806 9.82844 9.66032L9.79956 9.70063V9.68469C9.79956 9.67532 9.79358 9.66313 9.78462 9.66782C9.76941 9.67258 9.75524 9.67989 9.74278 9.68938C9.73653 9.6573 9.72685 9.62589 9.71389 9.59563C9.71389 9.58719 9.70393 9.58344 9.69596 9.58719C9.66508 9.60594 9.66508 9.60219 9.64018 9.56469C9.64018 9.55907 9.62923 9.55532 9.62325 9.56001C9.60837 9.57104 9.59557 9.58435 9.5854 9.59938H9.51069C9.51069 9.59938 9.49973 9.59938 9.49674 9.60594C9.46587 9.64251 9.4569 9.62282 9.47085 9.54407C9.47085 9.53094 9.45491 9.52532 9.44794 9.53751C9.43523 9.56675 9.41885 9.59444 9.39913 9.62001C9.39841 9.62148 9.39804 9.62307 9.39804 9.62469C9.39804 9.62631 9.39841 9.62791 9.39913 9.62938C9.39913 9.62001 9.39116 9.60969 9.3802 9.61438L9.36825 9.62094C9.37668 9.61171 9.3828 9.60082 9.38618 9.58907C9.38618 9.57594 9.37423 9.56657 9.36626 9.57594C9.34434 9.60032 9.35032 9.61626 9.35032 9.58532C9.35032 9.57407 9.33637 9.56657 9.3294 9.57594C9.30848 9.62844 9.29454 9.63219 9.28956 9.58532C9.28956 9.57313 9.27661 9.56751 9.26864 9.57594C9.23577 9.60969 9.2288 9.64907 9.2288 9.61251C9.2288 9.59751 9.20688 9.59376 9.20489 9.61251C9.19194 9.68188 9.20489 9.61251 9.19194 9.57126C9.19194 9.55626 9.16803 9.55907 9.16803 9.57126C9.177 9.64063 9.16803 9.65188 9.15409 9.60501C9.14811 9.59188 9.13217 9.59938 9.13217 9.61251C9.12975 9.61253 9.12737 9.61314 9.12527 9.61429C9.12318 9.61544 9.12143 9.61709 9.12022 9.61907C9.11289 9.63161 9.10689 9.6448 9.10229 9.65844C9.10229 9.65376 9.10229 9.64626 9.10229 9.63594C9.10207 9.63408 9.10135 9.6323 9.10021 9.63076C9.09907 9.62923 9.09754 9.62798 9.09576 9.62714C9.09398 9.62631 9.092 9.6259 9.09001 9.62596C9.08802 9.62603 9.08608 9.62656 9.08436 9.6275C9.06942 9.63688 9.06743 9.66407 9.07739 9.61532C9.07739 9.60126 9.06643 9.59376 9.05747 9.60219C9.02161 9.63594 9.01364 9.68751 9.01762 9.62563C9.01855 9.62277 9.01823 9.61969 9.01673 9.61705C9.01524 9.61441 9.01269 9.61244 9.00965 9.61157C9.00662 9.6107 9.00334 9.611 9.00053 9.61241C8.99773 9.61381 8.99564 9.61621 8.99471 9.61907C8.98718 9.6313 8.9818 9.6446 8.97878 9.65844C8.97878 9.65094 8.97878 9.64157 8.97878 9.62563C8.97878 9.60969 8.96184 9.60688 8.95587 9.61907C8.9488 9.63282 8.94345 9.64729 8.93993 9.66219C8.94074 9.65002 8.94074 9.63781 8.93993 9.62563C8.93993 9.61438 8.92598 9.60688 8.91901 9.61626C8.8971 9.64438 8.89311 9.67344 8.87718 9.64626C8.87574 9.64422 8.87364 9.64267 8.87118 9.64186C8.86873 9.64104 8.86606 9.641 8.86358 9.64175C8.86111 9.64249 8.85895 9.64397 8.85745 9.64597C8.85595 9.64797 8.85518 9.65037 8.85526 9.65282C8.85526 9.68751 8.83932 9.69875 8.81542 9.69782C8.81043 9.68401 8.80374 9.6708 8.7955 9.65844C8.7955 9.65844 8.78852 9.65094 8.78454 9.65188H8.76561C8.75466 9.65188 8.74768 9.67157 8.75964 9.67813L8.79051 9.69313C8.77991 9.69019 8.76958 9.68643 8.75964 9.68188C8.74569 9.67438 8.73473 9.69501 8.74768 9.70532C8.76142 9.75072 8.78832 9.79163 8.82538 9.82344C8.81741 9.80938 8.80048 9.82344 8.80247 9.83469C8.8194 9.93688 8.82139 9.92376 8.78852 9.83469C8.78255 9.81969 8.76262 9.83469 8.76661 9.84501C8.78055 9.90407 8.80346 9.90313 8.74768 9.85719C8.74632 9.85621 8.74472 9.85555 8.74303 9.85526C8.74134 9.85497 8.7396 9.85505 8.73796 9.85551C8.73631 9.85596 8.7348 9.85678 8.73355 9.85789C8.73229 9.85899 8.73134 9.86036 8.73075 9.86188C8.72714 9.87234 8.72415 9.88299 8.72178 9.89376L8.71382 9.88626C8.70485 9.87782 8.6929 9.88626 8.69389 9.89751C8.68636 9.89423 8.6779 9.89337 8.6698 9.89506C8.6617 9.89676 8.65442 9.90091 8.64907 9.90688C8.63608 9.91993 8.62833 9.93684 8.62716 9.95469L8.61819 9.95938C8.61819 9.95282 8.61122 9.94907 8.60424 9.95188L8.58632 9.95938L8.57735 9.95282C8.56639 9.94719 8.55643 9.95938 8.56042 9.96969C8.54832 9.97476 8.53666 9.98071 8.52555 9.98751C8.51256 9.98361 8.49923 9.98078 8.48571 9.97907C8.47276 9.97907 8.47077 9.99782 8.47973 10.0044L8.48969 10.0109C8.48173 10.0194 8.48969 10.0372 8.50065 10.0334L8.51759 10.0269L8.50165 10.0316C8.49938 10.0329 8.49752 10.0348 8.49623 10.037C8.49494 10.0392 8.49426 10.0417 8.49426 10.0442C8.49426 10.0467 8.49494 10.0492 8.49623 10.0514C8.49752 10.0537 8.49938 10.0555 8.50165 10.0569C8.50062 10.0631 8.50062 10.0694 8.50165 10.0756C8.50176 10.1035 8.50342 10.1314 8.50663 10.1591C8.50514 10.1574 8.50318 10.1562 8.50099 10.1556C8.49879 10.155 8.49645 10.155 8.49425 10.1555C8.49204 10.1561 8.49006 10.1573 8.48855 10.1589C8.48704 10.1606 8.48605 10.1626 8.48571 10.1647C8.48571 10.1778 8.48571 10.1909 8.48571 10.2041C8.48026 10.188 8.4779 10.1712 8.47874 10.1544C8.47874 10.1375 8.45981 10.1366 8.45483 10.1544C8.44355 10.1912 8.43917 10.2296 8.44188 10.2678C8.44166 10.2698 8.44194 10.2717 8.4427 10.2735C8.44346 10.2754 8.44467 10.277 8.44623 10.2783C8.44779 10.2796 8.44966 10.2805 8.45168 10.2809C8.4537 10.2814 8.4558 10.2814 8.45782 10.2809L8.48173 10.2753C8.48173 10.2809 8.49169 10.2828 8.49667 10.2753C8.49795 10.2763 8.49947 10.277 8.50109 10.2773C8.50272 10.2776 8.5044 10.2775 8.50599 10.277C8.50757 10.2766 8.509 10.2757 8.51016 10.2746C8.51132 10.2735 8.51216 10.2721 8.5126 10.2706C8.51631 10.2718 8.51947 10.2741 8.52157 10.2772H8.43889C8.39307 10.2772 8.3861 10.3447 8.41798 10.3653C8.40103 10.3799 8.38628 10.3966 8.37415 10.415C8.3723 10.4169 8.37105 10.4192 8.37051 10.4217C8.36997 10.4243 8.37018 10.4269 8.3711 10.4293C8.37202 10.4317 8.37363 10.4338 8.37575 10.4354C8.37786 10.4371 8.38041 10.4381 8.38311 10.4384C8.41997 10.4441 8.42893 10.4206 8.42794 10.4459C8.42789 10.4487 8.42871 10.4514 8.43031 10.4538C8.4319 10.4561 8.4342 10.458 8.4369 10.4591L8.45284 10.4656C8.44089 10.4656 8.43591 10.4844 8.44686 10.4909C8.44277 10.5044 8.43778 10.5175 8.43192 10.5303C8.41464 10.534 8.3979 10.5396 8.38212 10.5472C8.38142 10.5381 8.38142 10.5291 8.38212 10.52C8.38212 10.5078 8.37116 10.5041 8.36419 10.5097C8.36231 10.5084 8.36009 10.5077 8.35777 10.5075C8.35546 10.5074 8.35316 10.508 8.35115 10.509C8.34915 10.5101 8.34752 10.5118 8.34648 10.5137C8.34543 10.5156 8.34501 10.5178 8.34526 10.52V10.5416C8.34498 10.5533 8.34297 10.565 8.33928 10.5763C8.33317 10.5808 8.3275 10.5858 8.32235 10.5913C8.32182 10.586 8.32182 10.5806 8.32235 10.5753C8.32235 10.5603 8.30641 10.5575 8.29944 10.5678C8.29247 10.5781 8.25661 10.6316 8.26956 10.6616C8.26365 10.6721 8.25961 10.6835 8.2576 10.6953C8.21832 10.7675 8.19848 10.8477 8.19983 10.9288C8.19897 10.9345 8.19944 10.9404 8.2012 10.9459C8.20297 10.9515 8.20598 10.9566 8.21005 10.961C8.21412 10.9653 8.21914 10.9688 8.22476 10.9712C8.23039 10.9736 8.2365 10.9748 8.24266 10.9747C8.2 11.0003 8.15373 11.0202 8.1052 11.0338C8.10549 11.0263 8.10413 11.0189 8.10122 11.0121C8.0983 11.0052 8.09389 10.9989 8.08827 10.9937C8.08265 10.9885 8.07594 10.9845 8.06856 10.9818C8.06119 10.9792 8.05331 10.978 8.04544 10.9784C8.01655 10.9784 8.0036 11.0038 8.00559 11.0291L7.97571 11.0469V10.9625C7.97571 10.9213 7.92989 10.8997 7.90399 10.9288C7.85827 10.9859 7.80429 11.0367 7.74362 11.0797H7.72967C7.70614 11.0693 7.68046 11.0639 7.65447 11.0639C7.62848 11.0639 7.6028 11.0693 7.57926 11.0797C7.53444 11.0797 7.49061 11.0797 7.44878 11.0741L7.45774 11.0619C7.49161 11.015 7.43284 10.9475 7.39798 10.9953C7.37842 11.0218 7.35569 11.046 7.33024 11.0675C7.25129 11.0628 7.17212 11.0628 7.09317 11.0675C7.14715 11.1086 7.19715 11.1541 7.24258 11.2034H7.14298C7.13594 11.2045 7.12922 11.207 7.12328 11.2107C7.11733 11.2144 7.1123 11.2192 7.10853 11.2249C7.10475 11.2306 7.10231 11.237 7.10138 11.2436C7.10045 11.2503 7.10105 11.257 7.10313 11.2634L7.11508 11.2972C6.9577 11.3544 6.76745 11.3759 6.68975 11.5372C6.72712 11.5651 6.76675 11.5902 6.80829 11.6122C6.79534 11.6413 6.78339 11.6713 6.77044 11.7059C6.76599 11.7155 6.76457 11.7261 6.76633 11.7364C6.7681 11.7467 6.77298 11.7563 6.7804 11.7641C6.7629 11.7693 6.7459 11.7758 6.7296 11.7838C6.721 11.7898 6.7145 11.7981 6.71095 11.8076C6.7074 11.8171 6.70696 11.8274 6.70967 11.8372C6.71138 11.847 6.71552 11.8562 6.72175 11.8642C6.72798 11.8722 6.73613 11.8787 6.74553 11.8831C6.73434 11.8901 6.7227 11.8963 6.71067 11.9019L6.6778 11.915C6.6569 11.9227 6.6366 11.9318 6.61704 11.9422C6.56723 11.9675 6.61006 12.0491 6.65887 12.0238L6.67083 12.0181C6.66821 12.0324 6.67029 12.0472 6.6768 12.0603C6.60775 12.0566 6.53893 12.0706 6.47758 12.1006C6.43475 12.1213 6.46264 12.1841 6.4985 12.1888C6.54235 12.1988 6.58321 12.218 6.61803 12.245C6.66585 12.2741 6.70768 12.1925 6.65987 12.1634L6.64294 12.1531C6.68588 12.1519 6.7288 12.1563 6.77044 12.1663L6.73059 12.1953C6.72042 12.2027 6.71328 12.2132 6.71038 12.225C6.70747 12.2368 6.70898 12.2491 6.71466 12.26C6.74653 12.3106 6.78339 12.3463 6.76645 12.4138C6.76454 12.4202 6.7641 12.427 6.76516 12.4337C6.76623 12.4403 6.76877 12.4467 6.77262 12.4523C6.77648 12.458 6.78156 12.4628 6.78753 12.4665C6.7935 12.4702 6.80024 12.4727 6.80729 12.4738C6.834 12.4718 6.86088 12.4737 6.88698 12.4794C6.84638 12.5106 6.80841 12.5448 6.77342 12.5816L6.80829 12.6134L6.78438 12.6331C6.77686 12.6393 6.77123 12.6472 6.76807 12.6561C6.76492 12.665 6.76436 12.6746 6.76645 12.6838C6.74653 12.6566 6.72063 12.6303 6.68876 12.6453C6.68197 12.6486 6.67589 12.6531 6.67083 12.6584L6.65987 12.6538L6.63596 12.6388C6.63107 12.6353 6.62642 12.6315 6.62202 12.6275C6.62045 12.6207 6.61692 12.6145 6.61182 12.6095C6.60673 12.6045 6.60027 12.601 6.59315 12.5992C6.58604 12.5975 6.57855 12.5976 6.57151 12.5996C6.56447 12.6016 6.55817 12.6055 6.55329 12.6106C6.51046 12.6725 6.56723 12.7166 6.63098 12.7456C6.62757 12.7551 6.62757 12.7653 6.63098 12.7747L6.57221 12.7897C6.56084 12.7689 6.55118 12.7472 6.54333 12.725C6.53635 12.7044 6.5234 12.6903 6.50249 12.6903C6.44835 12.6911 6.39467 12.6808 6.3451 12.6603C6.31423 12.6463 6.28633 12.6866 6.29331 12.7184C6.30028 12.7503 6.30327 12.7541 6.30924 12.7709C6.23354 12.8056 6.1688 12.8647 6.08214 12.8478C6.04329 12.8478 6.02835 12.9022 6.05126 12.9284C6.00855 12.9291 5.96596 12.924 5.92475 12.9134C5.88391 12.9013 5.85403 12.9584 5.88391 12.9922C5.92575 13.0409 5.9646 13.0859 6.00743 13.1328H5.94169C5.8869 13.1328 5.8869 13.2266 5.94169 13.2266C5.96559 13.2266 5.99049 13.2266 6.0144 13.2331C6.02767 13.2884 6.04738 13.3422 6.07317 13.3934C6.07653 13.4001 6.08172 13.4058 6.0882 13.4099C6.09469 13.414 6.10222 13.4164 6.11003 13.4169C6.16282 13.4169 6.19469 13.3841 6.24051 13.3531C6.30561 13.3126 6.36574 13.2655 6.41981 13.2125C6.4264 13.2064 6.4309 13.1985 6.43276 13.19H6.44073C6.44969 13.2247 6.46364 13.2566 6.4746 13.2903H6.44671C6.41383 13.2903 6.3959 13.3297 6.40985 13.3616C6.4238 13.3934 6.42977 13.4047 6.44073 13.4253C6.44073 13.4253 6.42977 13.4253 6.42678 13.4319C6.42291 13.4348 6.41853 13.437 6.41383 13.4384C6.3969 13.445 6.38794 13.4666 6.38096 13.4825C6.37399 13.4984 6.38096 13.5013 6.38794 13.5031C6.41035 13.5102 6.43333 13.5155 6.45667 13.5191C6.45525 13.5212 6.4545 13.5236 6.4545 13.5261C6.4545 13.5286 6.45525 13.531 6.45667 13.5331L6.44272 13.5378C6.43639 13.5401 6.43062 13.5435 6.42577 13.548C6.42093 13.5524 6.41713 13.5578 6.4146 13.5637C6.41207 13.5696 6.41087 13.5759 6.41108 13.5823C6.41129 13.5886 6.41291 13.5949 6.41583 13.6006L6.30426 13.6325C6.29584 13.6362 6.28858 13.6418 6.28316 13.6489C6.27775 13.656 6.27438 13.6643 6.27338 13.673C6.27237 13.6817 6.27377 13.6904 6.27744 13.6985C6.28111 13.7065 6.28692 13.7135 6.2943 13.7188C6.32318 13.7361 6.35478 13.7491 6.38794 13.7572C6.38844 13.7877 6.40127 13.8168 6.4238 13.8388C6.45578 13.8575 6.49191 13.869 6.52938 13.8725C6.50249 13.9081 6.48555 13.9475 6.45866 13.9878C6.49316 14.0019 6.52925 14.0123 6.56624 14.0188C6.56433 14.0239 6.562 14.0289 6.55926 14.0338C6.53635 14.0797 6.59313 14.1275 6.626 14.0909C6.64484 14.0679 6.66696 14.0474 6.69174 14.03C6.76979 14.0286 6.84751 14.0201 6.92383 14.0047C6.94856 14.0188 6.97019 14.0373 6.98758 14.0591C6.99035 14.0628 6.99388 14.0659 6.99795 14.0683C7.00203 14.0706 7.00657 14.0722 7.0113 14.0729C7.01604 14.0736 7.02088 14.0734 7.02553 14.0723C7.03018 14.0712 7.03455 14.0693 7.03839 14.0666C7.12803 14.0019 7.19577 13.9644 7.27645 14.0178C7.2671 14.0234 7.26034 14.0321 7.25753 14.0422C7.2391 14.0401 7.22046 14.044 7.20482 14.0534C7.18918 14.0629 7.17752 14.0771 7.17186 14.0938C7.16276 14.1031 7.15771 14.1153 7.15771 14.128C7.15771 14.1406 7.16276 14.1529 7.17186 14.1622L7.1878 14.1781L7.19975 14.1931C7.20371 14.1981 7.20906 14.202 7.21521 14.2043C7.22137 14.2066 7.22808 14.2073 7.23462 14.2063C7.2432 14.2091 7.25244 14.2098 7.26138 14.2081C7.27032 14.2065 7.27862 14.2026 7.28542 14.1969C7.30065 14.181 7.31224 14.1623 7.31943 14.1419C7.32663 14.1216 7.32929 14.1001 7.32725 14.0788C7.3651 14.0975 7.42686 14.0788 7.46073 14.1059C7.4946 14.1331 7.51352 14.1059 7.52249 14.0778L7.52846 14.0619V14.0563C7.61344 14.0693 7.69515 14.097 7.76952 14.1378C7.7764 14.1393 7.78356 14.1393 7.79044 14.1378C7.79764 14.1395 7.80515 14.1395 7.81235 14.1378C7.8583 14.1174 7.90913 14.1087 7.95977 14.1125C8.01356 14.1125 8.01356 14.0188 7.95977 14.0188C7.90214 14.0163 7.84463 14.0259 7.79143 14.0469C7.7521 14.0287 7.7115 14.013 7.66991 14C7.76917 14.0111 7.86948 14.0111 7.96874 14C8.05214 14.0616 8.14114 14.1162 8.23469 14.1631C8.61719 14.3413 9.08137 14.3506 9.47682 14.5025C9.67354 14.5712 9.83591 14.7066 9.9321 14.8821C10.0283 15.0576 10.0514 15.2606 9.99678 15.4513C9.85434 15.9603 9.56149 16.0728 9.79757 16.6372C9.95075 16.9776 10.0514 17.3368 10.0964 17.7041C10.5148 17.7041 10.8933 17.69 11.3156 17.6984C11.1005 17.3441 10.7309 16.8453 10.5267 16.4797C10.3793 16.2163 10.451 15.9472 10.5267 15.6791C10.5616 15.5686 10.5905 15.4566 10.6134 15.3434C10.6771 14.9806 10.6751 14.7088 10.8614 14.3844C11.0985 13.9738 11.3415 13.5584 11.5905 13.1506C11.716 12.9453 11.9232 12.7963 12.0995 12.6378C12.3336 12.6219 12.5358 12.4794 12.7241 12.3247H12.7301C12.8141 12.3678 12.906 12.3954 13.001 12.4063C13.0418 12.4063 13.0508 12.3791 13.0478 12.3444C13.0637 12.3576 13.0823 12.3676 13.1026 12.3734C13.1095 12.3746 13.1165 12.3743 13.1233 12.3725C13.13 12.3707 13.1361 12.3674 13.1413 12.3629C13.1464 12.3585 13.1503 12.353 13.1528 12.3468C13.1552 12.3407 13.1561 12.334 13.1554 12.3275C13.1554 12.3069 13.1554 12.2872 13.1554 12.2675C13.1968 12.3145 13.2418 12.3587 13.2899 12.3997C13.3148 12.4213 13.3437 12.3997 13.3506 12.3706L13.3586 12.3828C13.3623 12.3904 13.3685 12.3967 13.3764 12.4007C13.3842 12.4047 13.3932 12.4061 13.402 12.4049C13.4108 12.4036 13.4189 12.3997 13.4251 12.3936C13.4313 12.3876 13.4352 12.3799 13.4363 12.3716C13.4573 12.3063 13.4512 12.236 13.4194 12.1747C13.4194 12.1747 13.4194 12.1747 13.4194 12.1681L13.4672 12.1831C13.502 12.1953 13.5339 12.1484 13.515 12.1138C13.5029 12.0909 13.4896 12.0687 13.4751 12.0472C13.4841 12.0376 13.4891 12.0253 13.4891 12.0125C13.4891 11.9997 13.4841 11.9874 13.4751 11.9778C13.4343 11.9206 13.3865 11.8025 13.3098 11.7997C13.3026 11.7978 13.295 11.7978 13.2879 11.7997C13.2904 11.7901 13.2904 11.7802 13.2879 11.7706C13.2917 11.7625 13.293 11.7535 13.2916 11.7447C13.2902 11.7359 13.2861 11.7277 13.2799 11.7209C13.2494 11.6857 13.2218 11.6484 13.1972 11.6094L13.1843 11.5878H13.2241C13.2339 11.586 13.2428 11.5815 13.2498 11.5748C13.2567 11.5681 13.2613 11.5595 13.263 11.5503C13.3018 11.57 13.3397 11.5184 13.3098 11.4753C13.2962 11.4547 13.2813 11.435 13.265 11.4163C13.2946 11.4158 13.3242 11.4196 13.3526 11.4275C13.4064 11.4434 13.4263 11.3563 13.3755 11.3338C13.3129 11.3085 13.2523 11.2791 13.1942 11.2456C13.1942 11.2344 13.1942 11.2222 13.1942 11.21C13.2162 11.2288 13.2401 11.2456 13.262 11.2616C13.2839 11.2775 13.3158 11.2616 13.3217 11.2325C13.3296 11.2299 13.3366 11.2254 13.3422 11.2195C13.3477 11.2137 13.3516 11.2066 13.3535 11.1989C13.3554 11.1913 13.3552 11.1833 13.353 11.1757C13.3507 11.1682 13.3465 11.1613 13.3407 11.1556L13.3317 11.1491C13.2919 11.1163 13.2321 11.0863 13.2082 11.0403C13.2082 11.0281 13.2082 11.015 13.2032 11.0028C13.267 11.0139 13.3269 11.0396 13.3775 11.0778C13.4233 11.1116 13.4642 11.03 13.4204 10.9963C13.4109 10.9886 13.4019 10.9805 13.3935 10.9719H13.3984C13.4042 10.9789 13.4125 10.9835 13.4218 10.9849C13.431 10.9863 13.4405 10.9843 13.4482 10.9794L13.4612 10.9672C13.4891 10.9391 13.507 10.9597 13.5429 10.9813C13.5787 11.0028 13.6136 10.9691 13.6056 10.9278C13.6056 10.9119 13.5967 10.8969 13.5917 10.8819C13.6147 10.8908 13.6361 10.9028 13.6554 10.9175C13.6863 10.9428 13.7272 10.9016 13.7172 10.8641C13.7172 10.8463 13.6983 10.8191 13.6913 10.7956C13.7331 10.7891 13.776 10.7844 13.8178 10.775C13.8317 10.775 13.8437 10.775 13.8437 10.7694H13.8586C13.8694 10.7649 13.8782 10.757 13.8834 10.7471C13.8887 10.7372 13.8902 10.7258 13.8875 10.715L13.9025 10.7066ZM10.0785 10.0053C10.1113 9.99126 10.1123 10.0053 10.0785 10.0391L10.0725 10.0475C10.0721 10.0376 10.069 10.0279 10.0635 10.0194L10.0785 10.0053ZM6.0154 13.0203H6.05026V13.0325C6.04977 13.0416 6.04977 13.0506 6.05026 13.0597C6.0403 13.0475 6.02735 13.0344 6.0154 13.0203ZM6.18971 13.2725C6.16972 13.2894 6.14804 13.3045 6.12497 13.3175C6.117 13.2988 6.10803 13.2791 6.10106 13.2594H6.20864L6.18971 13.2725ZM6.25247 13.2294C6.25656 13.2139 6.25443 13.1975 6.24649 13.1834H6.31124L6.25247 13.2294ZM6.39292 12.8188C6.39543 12.8086 6.39543 12.798 6.39292 12.7878V12.7756C6.41786 12.7804 6.44318 12.7832 6.46862 12.7841C6.47186 12.7917 6.47552 12.7993 6.47958 12.8066L6.39292 12.8188ZM6.43575 13.4938C6.42292 13.4911 6.41028 13.4876 6.3979 13.4834C6.39965 13.4794 6.40222 13.4758 6.40547 13.4728C6.40872 13.4697 6.41258 13.4673 6.41682 13.4656L6.43176 13.4581H6.43675C6.44242 13.4599 6.44761 13.4628 6.45192 13.4667C6.45623 13.4706 6.45955 13.4754 6.46165 13.4806C6.45226 13.4835 6.44349 13.488 6.43575 13.4938ZM6.49651 13.775C6.48508 13.7739 6.47447 13.7689 6.46663 13.7609C6.48238 13.7537 6.49683 13.7442 6.50946 13.7328C6.50548 13.7441 6.50049 13.7572 6.49651 13.7713V13.775ZM6.52042 13.7797C6.52639 13.76 6.53337 13.7413 6.53934 13.7225C6.55528 13.7478 6.57221 13.7731 6.58616 13.7909L6.52042 13.7797ZM6.83518 12.2272L6.86805 12.1963H6.87403C6.87403 12.2084 6.87403 12.2216 6.87403 12.2347C6.86132 12.2303 6.84835 12.2265 6.83518 12.2234V12.2272ZM6.97364 11.7303C6.97059 11.7253 6.96625 11.7212 6.96102 11.7182C6.95579 11.7153 6.94985 11.7136 6.94376 11.7134H6.8571L6.881 11.6581C6.91677 11.6778 6.95017 11.7011 6.98061 11.7275L6.97364 11.7303ZM12.6504 10.3888L12.6115 10.4103L12.5577 10.3672C12.5846 10.3738 12.6155 10.3803 12.6504 10.3888ZM12.2699 10.0625C12.2858 10.0756 12.3007 10.0906 12.3157 10.1056C12.3067 10.1106 12.2995 10.118 12.2951 10.1269C12.2907 10.1357 12.2892 10.1456 12.2908 10.1553H12.2818L12.2749 10.1497C12.2801 10.1456 12.2843 10.1406 12.2872 10.1348C12.29 10.1291 12.2915 10.1228 12.2915 10.1164C12.2915 10.1101 12.29 10.1038 12.2872 10.098C12.2843 10.0923 12.2801 10.0872 12.2749 10.0831C12.2719 10.0809 12.2693 10.0784 12.2669 10.0756L12.249 10.0597C12.2525 10.0588 12.2561 10.0585 12.2597 10.059C12.2633 10.0595 12.2668 10.0607 12.2699 10.0625ZM11.6722 9.98094L11.6134 9.98938H11.5995L11.5796 9.95563C11.6065 9.9575 11.6374 9.96876 11.6682 9.97813L11.6722 9.98094ZM11.6224 12.035C11.6208 12.0455 11.6227 12.0562 11.6279 12.0656C11.633 12.0751 11.6412 12.0827 11.6513 12.0875C11.6403 12.1297 11.6294 12.1709 11.6164 12.2094C11.5975 12.1323 11.5732 12.0566 11.5437 11.9825L11.6224 12.035ZM11.3066 11.4566C11.3248 11.466 11.3424 11.4763 11.3594 11.4875C11.3258 11.4836 11.2925 11.4773 11.2598 11.4688V11.4481L11.3066 11.4566ZM11.0307 11.5259V11.5166C11.0457 11.5114 11.0603 11.5055 11.0746 11.4988C11.0666 11.4847 11.0477 11.4669 11.0367 11.4509C11.0384 11.4475 11.0408 11.4443 11.0437 11.4416H11.0875C11.1562 11.5597 11.227 11.5616 11.3475 11.5813C11.3465 11.5912 11.3465 11.6013 11.3475 11.6113C11.3177 11.6124 11.2884 11.6192 11.2614 11.6311C11.2344 11.643 11.2101 11.6598 11.1901 11.6806H11.1782C11.1672 11.6846 11.1583 11.6923 11.1532 11.7022C11.1404 11.6929 11.1255 11.6864 11.1097 11.683C11.0939 11.6796 11.0775 11.6794 11.0616 11.6825C11.0619 11.6784 11.0619 11.6744 11.0616 11.6703C11.046 11.6401 11.033 11.6087 11.0228 11.5766C11.0299 11.5695 11.0342 11.5603 11.0349 11.5505C11.0356 11.5408 11.0328 11.5311 11.0267 11.5231L11.0307 11.5259ZM10.708 11.6516C10.7487 11.6553 10.7897 11.6527 10.8295 11.6441C10.7797 11.7069 10.7299 11.7697 10.6821 11.8316C10.6861 11.7697 10.696 11.7097 10.704 11.6488L10.708 11.6516ZM10.5855 10.6044C10.5815 10.6126 10.5803 10.6218 10.5821 10.6307C10.5839 10.6396 10.5886 10.6478 10.5954 10.6541C10.6019 10.6619 10.6103 10.6681 10.6198 10.6723C10.6293 10.6766 10.6397 10.6787 10.6502 10.6784H10.6562L10.6233 10.715C10.601 10.6769 10.5813 10.6374 10.5646 10.5969C10.5715 10.5856 10.5715 10.5763 10.5855 10.5969C10.5843 10.5985 10.583 10.6001 10.5815 10.6016L10.5855 10.6044ZM10.5098 10.4647L10.5815 10.5191C10.5797 10.5194 10.578 10.5202 10.5766 10.5214C10.5752 10.5225 10.5742 10.524 10.5735 10.5256L10.5038 10.4778C10.4927 10.4607 10.4793 10.4449 10.464 10.4309C10.4422 10.41 10.4185 10.3909 10.3932 10.3738C10.3972 10.3438 10.4769 10.4375 10.5058 10.4619L10.5098 10.4647ZM10.2847 11.6938C10.2856 11.681 10.2856 11.6681 10.2847 11.6553C10.2884 11.6757 10.2938 11.6957 10.3006 11.7153V11.7284C10.2995 11.7373 10.3015 11.7462 10.3061 11.754C10.3108 11.7617 10.3179 11.7679 10.3265 11.7716L10.3345 11.7838C10.3474 11.8034 10.3713 11.8166 10.3922 11.8006C10.4237 11.7791 10.4505 11.7521 10.4709 11.7209L10.4809 11.7303C10.5217 11.7706 10.5805 11.7041 10.5407 11.6628C10.5255 11.6482 10.508 11.6358 10.4889 11.6263C10.4834 11.6034 10.4733 11.5817 10.459 11.5625C10.5149 11.557 10.5711 11.5549 10.6273 11.5559C10.5924 11.5738 10.5994 11.645 10.6462 11.6497H10.6582C10.6472 11.7266 10.6353 11.8034 10.6253 11.8803C10.6238 11.8852 10.6238 11.8904 10.6253 11.8953C10.4896 12.0711 10.3828 12.2652 10.3086 12.4709C10.3007 12.4333 10.2907 12.396 10.2787 12.3594C10.2555 12.2903 10.2241 12.224 10.185 12.1616C10.1932 11.9947 10.1899 11.8274 10.1751 11.6609C10.2159 11.6684 10.2488 11.6788 10.2807 11.6909L10.2847 11.6938ZM10.1113 11.8353C10.0844 11.765 10.0516 11.6984 10.0227 11.6291H10.0556L10.0984 11.6394C10.0994 11.7003 10.1044 11.7659 10.1074 11.8325L10.1113 11.8353ZM10.1372 10.1178C10.1023 10.1663 10.0637 10.2124 10.0217 10.2556C10.0222 10.2532 10.0222 10.2506 10.0217 10.2481C10.0259 10.2319 10.0313 10.2159 10.0376 10.2003C10.074 10.1767 10.1063 10.148 10.1332 10.115L10.1372 10.1178ZM10.0307 9.94063C10.0303 9.94625 10.0303 9.95189 10.0307 9.95751C10.0291 9.94854 10.0257 9.93993 10.0207 9.93219C10.0326 9.89657 10.0526 9.87501 10.0267 9.93782L10.0307 9.94063ZM10.0187 10.3316C10.0136 10.3453 10.0076 10.3588 10.0008 10.3719C9.99064 10.3668 9.98206 10.3594 9.97587 10.3503L9.99479 10.3372C9.99646 10.3381 9.99835 10.3386 10.0003 10.3386C10.0022 10.3386 10.0041 10.3381 10.0057 10.3372L10.0187 10.3316ZM9.98682 9.91157H9.97885C9.97885 9.90501 9.9679 9.89938 9.96192 9.89282V9.88719C10.0028 9.83282 10.0167 9.85063 9.98284 9.90875L9.98682 9.91157ZM9.7368 9.71938C9.73861 9.72083 9.7409 9.72163 9.74328 9.72163C9.74565 9.72163 9.74795 9.72083 9.74975 9.71938C9.77864 9.69876 9.77366 9.72688 9.76968 9.75126L9.73282 9.73251C9.73344 9.72721 9.73344 9.72186 9.73282 9.71657L9.7368 9.71938ZM9.73083 11.57H9.6621C9.72524 11.5714 9.78818 11.5774 9.85036 11.5878C9.85036 11.6169 9.86729 11.6544 9.90216 11.6469L9.97487 11.6347C10.0301 11.7483 10.0757 11.8659 10.1113 11.9863C10.1113 12.0088 10.1113 12.0313 10.1113 12.0538C10.0138 11.9446 9.89518 11.854 9.76171 11.7866C9.72363 11.7155 9.69036 11.6422 9.6621 11.5672H9.72684L9.73083 11.57ZM9.51667 11.5784C9.55253 11.5784 9.58839 11.5728 9.61628 11.5709C9.63805 11.6348 9.66366 11.6974 9.69298 11.7584L9.51169 11.6713L9.51667 11.5784ZM9.45491 9.63782C9.43355 9.64748 9.41456 9.66121 9.39913 9.67813H9.38717C9.40912 9.65695 9.42911 9.63406 9.44694 9.6097C9.44495 9.61626 9.44794 9.62563 9.45092 9.63501L9.45491 9.63782ZM9.37821 9.65376C9.38106 9.6538 9.38384 9.65287 9.38603 9.65115C9.38822 9.64943 9.38969 9.64703 9.39016 9.64438L9.39714 9.63876C9.39875 9.63765 9.40011 9.63625 9.40113 9.63464C9.40216 9.63303 9.40283 9.63124 9.40311 9.62938C9.40334 9.63097 9.40392 9.63249 9.40482 9.63384C9.40572 9.6352 9.40692 9.63636 9.40833 9.63725C9.40974 9.63814 9.41134 9.63873 9.41302 9.63899C9.4147 9.63925 9.41641 9.63917 9.41805 9.63876L9.38219 9.67532L9.36626 9.65844V9.65376H9.37821ZM8.88016 10.0231C8.88813 10.0409 8.8961 10.0588 8.90606 10.0775H8.88614L8.83534 10.0325L8.88016 10.0231ZM8.81442 9.74938C8.81049 9.7435 8.80617 9.73786 8.80147 9.73251C8.80101 9.73061 8.79987 9.72891 8.79823 9.72772C8.7966 9.72652 8.79458 9.7259 8.79251 9.72594H8.80745C8.81542 9.72594 8.8194 9.71751 8.81841 9.71001L8.84729 9.72407C8.8402 9.72479 8.83344 9.72725 8.82767 9.7312C8.8219 9.73514 8.81734 9.74044 8.81442 9.74657V9.74938ZM8.83534 9.87501C8.8463 9.87501 8.85327 9.86563 8.84928 9.85532L8.83434 9.81782L8.85825 9.84782C8.84789 9.87616 8.84582 9.9066 8.85227 9.93594H8.84032C8.82438 9.89844 8.80048 9.86001 8.83534 9.87501ZM8.85028 12.0669C9.04458 12.1408 9.22514 12.2433 9.38518 12.3706C9.45737 12.4349 9.51734 12.5104 9.56249 12.5938L9.53958 12.6144C9.48536 12.6072 9.43396 12.5872 9.39016 12.5563C9.4051 12.5675 9.47184 12.5263 9.48977 12.5169C9.41554 12.4579 9.32959 12.4133 9.23691 12.3858C9.14423 12.3583 9.04667 12.3483 8.94989 12.3566C8.94712 12.3505 8.9448 12.3442 8.94292 12.3378C8.94242 12.3444 8.94242 12.351 8.94292 12.3575C8.89942 12.3656 8.86028 12.3877 8.83227 12.4201C8.80427 12.4524 8.78914 12.493 8.78952 12.5347C8.84829 12.545 8.91204 12.6041 8.96284 12.6134C8.6919 12.7119 8.91503 12.89 9.08536 12.8947C9.1046 12.8956 9.12389 12.8956 9.14313 12.8947C9.22535 13.027 9.26254 13.1797 9.24971 13.3325C9.07141 13.2931 8.79749 13.0428 8.60524 12.8103C8.584 12.7178 8.57133 12.6237 8.56739 12.5291C8.58817 12.5217 8.60947 12.5158 8.63114 12.5113C8.63734 12.4612 8.62944 12.4104 8.60823 12.3641C8.6401 12.3397 8.66999 12.3275 8.6919 12.2872C8.71765 12.2406 8.74799 12.1963 8.78255 12.155L8.85028 12.0669ZM9.39315 12.83C9.44501 12.8127 9.49952 12.8036 9.55452 12.8028C9.51514 12.8919 9.48577 12.9846 9.46686 13.0794C9.43997 12.9922 9.41507 12.9097 9.39315 12.8253V12.83ZM9.45092 13.1619C9.44296 13.2088 9.43598 13.2556 9.42801 13.3016C9.39205 13.1741 9.34266 13.0504 9.28059 12.9322C9.27063 12.9134 9.26067 12.8966 9.24971 12.8788C9.28458 12.8684 9.31844 12.8553 9.34932 12.8441C9.37721 12.9509 9.41008 13.0559 9.44893 13.16L9.45092 13.1619ZM8.70385 10.5613L8.67895 10.5725C8.666 10.5519 8.65305 10.5322 8.63911 10.5134L8.70385 10.5613ZM8.59329 10.1863C8.59329 10.1797 8.59329 10.1722 8.59329 10.1647L8.61421 10.1403L8.65206 10.1534C8.63173 10.1628 8.61209 10.1735 8.59329 10.1853V10.1863ZM8.59329 10.0297L8.65106 10.0494C8.66003 10.0494 8.666 10.0438 8.66501 10.0353V10.04C8.66495 10.0417 8.66536 10.0433 8.66621 10.0448C8.66706 10.0463 8.66831 10.0475 8.66984 10.0484C8.67136 10.0492 8.6731 10.0497 8.67488 10.0497C8.67666 10.0497 8.67841 10.0493 8.67995 10.0484L8.66999 10.0644C8.6432 10.0522 8.61468 10.0436 8.58532 10.0391L8.59329 10.0297ZM8.57735 11.9591C8.60284 11.96 8.62818 11.9631 8.65305 11.9684C8.70186 11.9947 8.75266 12.02 8.80645 12.0444C8.77458 12.0828 8.74171 12.1194 8.71282 12.1597C8.68665 12.1922 8.66396 12.2271 8.64509 12.2638C8.62876 12.2894 8.60536 12.3105 8.57735 12.3247C8.57038 12.3153 8.5644 12.3059 8.55643 12.2966C8.56639 12.1822 8.57137 12.0688 8.57934 11.9581L8.57735 11.9591ZM8.48571 10.4375C8.51958 10.4956 8.54647 10.5313 8.47475 10.4863V10.4684C8.47463 10.4663 8.4738 10.4642 8.47237 10.4626C8.47094 10.4609 8.46899 10.4597 8.46678 10.4591L8.48571 10.4375ZM8.53751 11.9572C8.53053 12.0509 8.52356 12.1513 8.51958 12.2497C8.45483 12.185 8.37514 12.1316 8.32036 12.0725C8.3439 12.0382 8.37599 12.0099 8.41384 11.9899C8.45169 11.97 8.49415 11.9591 8.53751 11.9581V11.9572ZM8.53153 12.6875C8.49966 12.6547 8.4638 12.5938 8.42594 12.5656C8.42324 12.5618 8.42091 12.5577 8.41897 12.5534C8.45288 12.5559 8.48693 12.5511 8.51858 12.5394C8.52057 12.5938 8.52555 12.6416 8.53153 12.6875ZM8.27753 10.9344C8.27753 10.9203 8.27753 10.9063 8.27753 10.8913C8.2835 10.9053 8.29048 10.9184 8.29745 10.9316C8.28954 10.9398 8.28087 10.9473 8.27155 10.9541C8.27471 10.9479 8.27673 10.9412 8.27753 10.9344ZM8.11915 12.6959C8.15148 12.7653 8.20619 12.8234 8.27553 12.8619C8.21577 12.845 8.15501 12.8309 8.09425 12.8169C8.0793 12.7597 8.06536 12.7016 8.05042 12.6444L8.11915 12.6959ZM7.94682 12.5834C7.96475 12.6547 7.98169 12.7269 8.00061 12.7981L7.94981 12.7869C7.88307 12.6988 7.81633 12.6116 7.75059 12.5244C7.81777 12.5384 7.88345 12.5582 7.94682 12.5834ZM7.62409 12.5159H7.63007C7.69282 12.5947 7.75458 12.6753 7.81633 12.7559L7.69083 12.725C7.64046 12.664 7.59799 12.5976 7.56432 12.5272L7.62409 12.5159ZM7.5185 12.53C7.54676 12.5908 7.58006 12.6494 7.61811 12.7053C7.52783 12.6787 7.43991 12.6455 7.35514 12.6059C7.37541 12.5834 7.40036 12.5651 7.42846 12.552C7.45656 12.539 7.4872 12.5315 7.5185 12.53ZM7.86016 12.8113C7.93587 12.9106 8.01157 13.0109 8.08827 13.1084C8.12833 13.24 8.17826 13.3688 8.23768 13.4938C8.16098 13.4563 8.08329 13.4206 8.00858 13.3813L8.00061 13.3756C8.00332 13.3698 8.00347 13.3632 8.00105 13.3572C7.99863 13.3512 7.99382 13.3464 7.98766 13.3438C7.96081 13.3335 7.93483 13.3212 7.90997 13.3072C7.91097 13.2988 7.90976 13.2903 7.90646 13.2825C7.90316 13.2746 7.89787 13.2677 7.89104 13.2622C7.78048 13.1684 7.67091 13.07 7.55934 12.9744C7.44977 12.8506 7.3402 12.7334 7.34319 12.6472C7.50838 12.721 7.68177 12.7773 7.86016 12.815V12.8113ZM7.40893 13.9906H7.36012C7.34613 13.9864 7.33347 13.979 7.32327 13.9691L7.42288 13.9747C7.41709 13.979 7.41234 13.9845 7.40893 13.9906ZM7.55735 13.3831L7.53444 13.3644C7.55137 13.3559 7.56632 13.3484 7.5693 13.3363C7.56475 13.3471 7.56475 13.3592 7.5693 13.37L7.55735 13.3831ZM7.6968 13.4909L7.65596 13.4591H7.70178C7.70401 13.4699 7.70225 13.4812 7.6968 13.4909ZM7.66991 13.3888L7.64999 13.3766C7.65076 13.3747 7.65108 13.3727 7.65093 13.3708C7.65077 13.3688 7.65014 13.3669 7.64909 13.3652C7.64803 13.3635 7.64658 13.362 7.64484 13.3609C7.6431 13.3598 7.64111 13.359 7.63903 13.3588H7.6201C7.6201 13.3494 7.61114 13.34 7.60317 13.3475C7.60317 13.3475 7.61712 13.3222 7.60317 13.3203H7.58026C7.58003 13.3184 7.57926 13.3167 7.57803 13.3152C7.5768 13.3137 7.57516 13.3126 7.57329 13.3119H7.55038L7.50257 13.2969C7.4946 13.2969 7.48762 13.2969 7.48762 13.31C7.48713 13.3159 7.48713 13.3219 7.48762 13.3278C7.44934 13.2893 7.41835 13.2449 7.39598 13.1966C7.42781 13.18 7.46115 13.1662 7.49559 13.1553C7.54639 13.1863 7.5952 13.2163 7.64999 13.2491L7.66991 13.2688C7.72391 13.3257 7.78181 13.3792 7.84323 13.4291H7.76952H7.70477C7.69716 13.413 7.68512 13.399 7.66991 13.3888ZM7.72768 13.5116C7.72605 13.5112 7.72434 13.5112 7.7227 13.5116C7.73263 13.4978 7.7372 13.4813 7.73565 13.4647C7.79044 13.4647 7.84721 13.4647 7.90499 13.4647C8.08926 13.6072 8.28948 13.7272 8.47276 13.8725C8.3612 13.8725 8.24565 13.8866 8.13309 13.8819C8.13761 13.8707 8.13761 13.8584 8.13309 13.8472C8.13262 13.8445 8.13115 13.8421 8.12896 13.8404C8.12677 13.8387 8.12399 13.8378 8.12114 13.8378C8.10471 13.8401 8.08841 13.8433 8.07233 13.8472C8.05839 13.8472 8.06337 13.8031 8.06038 13.7928C8.0602 13.7906 8.05933 13.7885 8.05789 13.7867C8.05644 13.785 8.05447 13.7837 8.05224 13.783C8.05 13.7823 8.0476 13.7822 8.04532 13.7828C8.04305 13.7834 8.04101 13.7846 8.03946 13.7863C8.02079 13.8011 7.99957 13.8128 7.97671 13.8209C7.98239 13.811 7.98906 13.8016 7.99663 13.7928C8.0046 13.7844 7.99663 13.7694 7.98866 13.7694H7.96077L7.94085 13.7544L7.94981 13.7338C7.95095 13.7318 7.9516 13.7297 7.9517 13.7275C7.9518 13.7253 7.95134 13.7231 7.95037 13.7211C7.9494 13.7191 7.94795 13.7173 7.94612 13.7159C7.94429 13.7145 7.94214 13.7136 7.93985 13.7131H7.9269C7.92791 13.7079 7.92791 13.7025 7.9269 13.6972C7.92646 13.6951 7.92551 13.6932 7.92412 13.6916C7.92274 13.69 7.92096 13.6887 7.91893 13.6878C7.92746 13.6824 7.93645 13.6777 7.94583 13.6738C7.9481 13.6725 7.94999 13.6707 7.95131 13.6686C7.95262 13.6665 7.95331 13.664 7.95331 13.6616C7.95331 13.6591 7.95262 13.6567 7.95131 13.6545C7.94999 13.6524 7.9481 13.6506 7.94583 13.6494C7.93766 13.6428 7.92816 13.6378 7.91788 13.6347C7.90761 13.6316 7.89679 13.6306 7.88606 13.6316V13.6269C7.88606 13.6175 7.88606 13.6063 7.8761 13.6063H7.86913C7.87118 13.6052 7.87296 13.6038 7.87436 13.602C7.87575 13.6003 7.87672 13.5982 7.87719 13.5961C7.87767 13.594 7.87764 13.5917 7.8771 13.5896C7.87657 13.5875 7.87555 13.5855 7.87411 13.5838C7.86703 13.5751 7.85739 13.5686 7.8464 13.5651C7.83541 13.5616 7.82356 13.5612 7.81235 13.5641C7.81525 13.5451 7.81525 13.5258 7.81235 13.5069C7.81213 13.5053 7.81154 13.5038 7.81064 13.5024C7.80974 13.5011 7.80855 13.4999 7.80713 13.499C7.80572 13.4981 7.80412 13.4975 7.80244 13.4973C7.80077 13.497 7.79905 13.4971 7.79741 13.4975C7.77549 13.5013 7.7496 13.5059 7.7237 13.5116H7.72768ZM7.91694 13.6531C7.90698 13.6616 7.89602 13.6681 7.88507 13.6766L7.83626 13.6625L7.8512 13.6569C7.86016 13.6578 7.92192 13.6456 7.91296 13.6531H7.91694ZM8.21577 13.9953C8.17316 13.9748 8.13307 13.95 8.09624 13.9213C8.12612 13.9213 8.156 13.9213 8.18688 13.9213C8.18688 13.9325 8.18091 13.9438 8.17891 13.955C8.17692 13.9663 8.19784 13.9794 8.20182 13.9625C8.20581 13.9456 8.2088 13.9353 8.21178 13.9213C8.3178 13.9132 8.42422 13.9107 8.53053 13.9138C8.57137 13.9475 8.61122 13.9831 8.64907 14.0206C8.49966 14.0422 8.37216 14.0741 8.2068 14L8.21577 13.9953ZM9.36725 14.0816C9.36146 14.0816 9.35575 14.0829 9.35057 14.0853C9.34539 14.0878 9.34088 14.0913 9.33737 14.0956C9.22892 14.0776 9.11859 14.0716 9.00866 14.0778C8.96921 14.0515 8.92499 14.0321 8.87817 14.0206C8.847 13.9879 8.81073 13.9597 8.77059 13.9372C8.71581 13.88 8.65903 13.8238 8.60026 13.7703C8.54038 13.6936 8.46773 13.6265 8.3851 13.5716C8.26154 13.3513 8.16784 13.1173 8.1062 12.875C8.19186 12.8947 8.27653 12.9163 8.35921 12.9425C8.61221 13.0916 8.85725 13.3503 9.05647 13.5575C9.13217 13.6334 9.41307 13.9081 9.49176 14.0863L9.36725 14.0816ZM9.89917 14.0684C9.79159 14.0825 9.58241 13.6859 9.54157 13.5913C9.51218 13.5238 9.48658 13.455 9.46487 13.385C9.48423 13.1846 9.53318 12.9877 9.6103 12.8H9.61926C9.64283 12.804 9.66612 12.8093 9.68899 12.8159L9.72385 12.8713C9.86829 13.0916 10.0018 13.1216 10.0406 13.4338C10.0506 13.5838 10.0605 14.0469 9.8902 14.0684H9.89917ZM10.1751 12.92C10.0755 13.0672 9.97587 13.0025 9.87626 12.8656C9.9171 12.8797 9.95694 12.8994 9.99678 12.9163C10.0057 12.9209 10.0127 12.9088 10.0117 12.8994C10.0107 12.89 10.0048 12.8741 9.99878 12.8544C10.0227 12.8431 10.0267 12.8197 9.99878 12.7775C9.99936 12.7738 9.99936 12.77 9.99878 12.7663C9.99883 12.7635 9.998 12.7608 9.99641 12.7584C9.99481 12.7561 9.99252 12.7542 9.98981 12.7531H9.97686L9.95495 12.7288C9.96093 12.7194 9.95495 12.7053 9.94598 12.7053H9.92108L9.90415 12.6922L9.91012 12.6809C9.91075 12.6794 9.91105 12.6778 9.91098 12.6761C9.91092 12.6745 9.9105 12.6729 9.90976 12.6714C9.90901 12.6699 9.90796 12.6686 9.90665 12.6675C9.90534 12.6664 9.90381 12.6655 9.90216 12.665V12.6603C9.91012 12.65 9.90216 12.6331 9.8902 12.6369C9.87825 12.6406 9.8404 12.6584 9.82446 12.6631L9.80852 12.6584C9.80754 12.6438 9.811 12.6292 9.81848 12.6163C9.82446 12.6013 9.81051 12.5891 9.79956 12.5994C9.78016 12.6161 9.75952 12.6314 9.7378 12.6453H9.73083V12.6341C9.73284 12.6319 9.73399 12.6292 9.73406 12.6263C9.73414 12.6234 9.73314 12.6206 9.73123 12.6184C9.72933 12.6161 9.72664 12.6146 9.72365 12.6141C9.72067 12.6135 9.71756 12.6139 9.71489 12.6153C9.66031 12.4905 9.58865 12.373 9.50173 12.2656L9.46985 12.2384H9.49176C9.42016 12.1516 9.3562 12.0594 9.30051 11.9628C9.37622 11.9628 9.44196 11.9159 9.51866 11.9216C9.50861 11.8943 9.49524 11.8682 9.47882 11.8438C9.48468 11.8418 9.49003 11.8388 9.4945 11.8347C9.49897 11.8307 9.50246 11.8258 9.50471 11.8203C9.56277 11.8485 9.6181 11.8815 9.67007 11.9188C9.87626 12.0575 10.3763 12.5938 10.1661 12.92H10.1751ZM11.227 12.9884C11.2119 13.0301 11.1999 13.0727 11.1911 13.1159C11.1523 13.3034 11.1971 13.4122 11.0865 13.6006C11.0028 13.7441 10.8783 13.8594 10.7877 14.0019C10.697 14.1444 10.3474 14.9394 10.202 14.4144C10.3574 14.2316 10.202 13.6419 10.2329 13.37C10.2707 13.0784 10.3683 12.8394 10.3325 12.5591C10.3325 12.5591 10.3325 12.5591 10.3325 12.5544C10.4321 12.1972 10.6612 11.9169 10.8833 11.6375C10.9172 11.6675 10.953 11.6947 10.9829 11.7313C10.988 11.7369 10.995 11.7409 11.0027 11.7426C11.0104 11.7443 11.0185 11.7436 11.0257 11.7406C11.0267 11.7468 11.0289 11.7527 11.0323 11.758C11.0358 11.7633 11.0403 11.768 11.0457 11.7716L11.0726 11.7856C11.0657 11.7922 11.0607 11.8002 11.0579 11.8091C11.0551 11.8179 11.0547 11.8272 11.0566 11.8363C11.0644 11.8851 11.0826 11.932 11.1102 11.9741C11.1378 12.0161 11.1741 12.0525 11.217 12.0809L11.227 12.9884ZM11.227 11.9403C11.2198 11.945 11.2143 11.9515 11.211 11.9591C11.1984 11.9414 11.1878 11.9225 11.1791 11.9028L11.1901 11.9169C11.194 11.9224 11.1997 11.9267 11.2063 11.929C11.2129 11.9314 11.2201 11.9317 11.227 11.93V11.9403ZM11.2688 12.0903C11.2885 12.092 11.3083 12.088 11.3256 12.0791C11.3664 12.0997 11.4073 12.1184 11.4501 12.1353L11.5069 12.1775C11.5118 12.1807 11.5175 12.1827 11.5235 12.1834C11.5294 12.1841 11.5355 12.1835 11.5411 12.1816C11.5468 12.1797 11.5518 12.1765 11.5559 12.1724C11.56 12.1682 11.563 12.1633 11.5646 12.1578C11.5756 12.1944 11.5846 12.2319 11.5925 12.2694C11.592 12.2719 11.592 12.2744 11.5925 12.2769C11.587 12.2906 11.5807 12.3041 11.5736 12.3172C11.474 12.5113 11.3515 12.6856 11.2658 12.8797L11.2688 12.0903ZM12.0388 12.4213C11.8206 12.6434 11.6274 13.0456 11.3644 13.145C11.3375 12.8478 11.5407 12.5825 11.6901 12.3566C11.7384 12.2854 11.7772 12.2089 11.8057 12.1288C11.8223 12.1297 11.8389 12.1297 11.8555 12.1288L11.8973 12.1606C11.8695 12.1739 11.8395 12.1827 11.8087 12.1869C11.7559 12.1925 11.7549 12.2872 11.8087 12.2806C11.8743 12.2716 11.9367 12.2481 11.991 12.2122C12.0232 12.2259 12.0565 12.2372 12.0906 12.2459C12.075 12.3057 12.0546 12.3643 12.0298 12.4213H12.0388ZM12.1065 12.3603C12.1175 12.3247 12.1284 12.2891 12.1364 12.2525L12.1882 12.26L12.2231 12.2909C12.1774 12.3073 12.135 12.3308 12.0975 12.3603H12.1065ZM12.1732 12.5797C12.2437 12.5113 12.3037 12.434 12.3515 12.35C12.3615 12.3322 12.3745 12.3172 12.3834 12.3013C12.3693 12.2891 12.3584 12.274 12.3515 12.2572C12.3851 12.2535 12.4183 12.2478 12.4512 12.2403C12.4601 12.2453 12.4707 12.2473 12.481 12.2459C12.5454 12.27 12.6122 12.2882 12.6803 12.3003C12.5372 12.4344 12.3593 12.5307 12.1643 12.5797H12.1732ZM13.0538 11.7359C13.0191 11.7078 12.9974 11.6682 12.993 11.6253C13.0048 11.6342 13.0152 11.6447 13.0239 11.6563C13.0357 11.6744 13.0463 11.6932 13.0558 11.7125C13.0512 11.7213 13.0489 11.7309 13.0488 11.7406L13.0538 11.7359ZM13.0189 11.5147C13.0366 11.4947 13.0583 11.4782 13.0827 11.4659C13.0916 11.4791 13.0986 11.4922 13.1056 11.5034C13.0741 11.5104 13.0421 11.5158 13.01 11.5194L13.0189 11.5147ZM13.1365 11.0778C13.1305 11.1066 13.1268 11.1357 13.1255 11.165C13.1187 11.1499 13.1158 11.1335 13.1172 11.1172C13.1186 11.1009 13.1242 11.0851 13.1335 11.0713V11.0769L13.1365 11.0778ZM13.1305 10.5303C13.1502 10.5137 13.1732 10.501 13.1982 10.4928C13.2074 10.5019 13.2154 10.512 13.2221 10.5228C13.2211 10.5278 13.2211 10.5329 13.2221 10.5378C13.1833 10.5416 13.1484 10.5388 13.1215 10.5313L13.1305 10.5303ZM13.4293 10.8697L13.4004 10.8566L13.4791 10.8191V10.8275L13.4881 10.8425C13.4754 10.8427 13.4629 10.8456 13.4517 10.8512C13.4404 10.8567 13.4307 10.8646 13.4233 10.8744L13.4293 10.8697ZM13.7431 10.6063C13.6847 10.5879 13.6242 10.5759 13.5628 10.5706C13.5779 10.5628 13.5922 10.5537 13.6056 10.5434C13.6464 10.5653 13.6937 10.5738 13.7401 10.5678C13.7451 10.5772 13.7511 10.5866 13.757 10.5959L13.7431 10.6063Z" fill="black"/>
<path d="M17.7165 17.3449C17.6994 17.2583 17.6741 17.1733 17.6408 17.0909C17.6107 16.9982 17.5949 16.9019 17.594 16.8049C17.5849 16.7112 17.5873 16.6169 17.601 16.5237C17.6079 16.4862 17.6398 16.4365 17.6329 16.3981C17.6259 16.3596 17.587 16.324 17.5701 16.2828C17.539 16.1965 17.515 16.1081 17.4984 16.0184C17.4671 15.9239 17.4556 15.8245 17.4645 15.7259C17.4911 15.6536 17.5026 15.5772 17.4984 15.5009C17.4984 15.484 17.4775 15.4362 17.4984 15.4203C17.5035 15.4198 17.5084 15.4178 17.5123 15.4146C17.5204 15.415 17.5283 15.4172 17.5352 15.4212C17.5741 15.4371 17.5611 15.5149 17.5691 15.5403C17.5682 15.5433 17.5683 15.5465 17.5694 15.5495C17.5704 15.5526 17.5724 15.5552 17.5751 15.5571V15.5646C17.5756 15.568 17.5756 15.5715 17.5751 15.5749C17.5743 15.5775 17.5742 15.5802 17.5747 15.5828C17.5752 15.5855 17.5764 15.5879 17.5782 15.59C17.5799 15.5922 17.5822 15.5938 17.5848 15.595C17.5873 15.5961 17.5902 15.5966 17.593 15.5965L17.599 15.6096C17.5953 15.6114 17.5922 15.6142 17.5904 15.6177C17.5885 15.6212 17.588 15.6252 17.5888 15.629C17.5896 15.6329 17.5917 15.6363 17.5948 15.6389C17.5979 15.6415 17.6018 15.6431 17.606 15.6434C17.6054 15.6836 17.6014 15.7238 17.594 15.7634C17.586 15.8328 17.5811 15.9509 17.6827 15.9509C17.6727 15.9115 17.6508 15.8778 17.6368 15.8365C17.6262 15.7894 17.6225 15.7411 17.6259 15.6931C17.6209 15.5993 17.6438 15.5056 17.6388 15.4118C17.6332 15.3186 17.5985 15.2289 17.5392 15.154C17.4765 15.0734 17.3818 15.0603 17.3231 14.9759C17.2912 14.9299 17.2872 14.9056 17.2235 14.8896C17.0693 14.8471 16.9186 14.7944 16.7722 14.7321C16.7125 14.7068 16.6507 14.6759 16.5939 14.6459C16.5593 14.6298 16.526 14.6113 16.4943 14.5906H16.4883C16.4405 14.5399 16.3987 14.4903 16.3549 14.4349C16.311 14.3796 16.2204 14.3328 16.2005 14.2699H16.2104C16.2104 14.2343 16.0112 14.2034 15.9614 14.1959C15.8473 14.1751 15.7396 14.1303 15.6466 14.0646C15.547 13.9934 15.4395 13.9324 15.3388 13.8631C15.2881 13.8243 15.2404 13.782 15.1964 13.7365C15.1546 13.6962 15.0968 13.6709 15.052 13.6315C14.9837 13.5608 14.9254 13.482 14.8787 13.3971C14.8259 13.3156 14.779 13.2368 14.7213 13.1571C14.6919 13.1025 14.6528 13.0531 14.6057 13.0109C14.5699 12.9856 14.5181 12.9828 14.4872 12.9528C14.3766 12.8496 14.5479 12.7774 14.4952 12.6931C14.4334 12.5946 14.4115 12.8009 14.3866 12.8196C14.3099 12.8759 14.3398 12.7831 14.3318 12.7399C14.3179 12.6706 14.3418 12.6678 14.2491 12.6509C14.2501 12.7346 14.2217 12.8163 14.1684 12.8834C14.1548 12.8986 14.1374 12.9104 14.1178 12.9177C14.0981 12.9251 14.0769 12.9278 14.0559 12.9256H14.0449C14.0441 12.924 14.0428 12.9226 14.0412 12.9217C14.0397 12.9208 14.0378 12.9203 14.036 12.9203C14.0341 12.9203 14.0323 12.9208 14.0307 12.9217C14.0291 12.9226 14.0278 12.924 14.027 12.9256C14.0011 12.9256 13.9921 12.9368 13.9931 12.9621C13.9866 12.9723 13.9831 12.984 13.9832 12.9959C13.9154 13.0212 13.8427 13.1243 13.7979 13.1759C13.7361 13.2471 13.6505 13.3062 13.6594 13.4056C13.7491 13.4234 13.8497 13.369 13.9344 13.3606C14.0334 13.3551 14.1318 13.3413 14.2282 13.3193C14.4473 13.2631 14.5529 13.699 14.6266 13.8293C14.6565 13.8933 14.6943 13.9537 14.7392 14.0093C14.798 14.0749 14.8139 14.1612 14.8707 14.2278C14.9275 14.2943 15.0042 14.3478 15.0619 14.4153C15.1303 14.5077 15.2099 14.5923 15.299 14.6674C15.3568 14.7106 15.4185 14.7471 15.4743 14.7912C15.4768 14.7972 15.4809 14.8026 15.4861 14.8068C15.4913 14.8111 15.4975 14.8141 15.5042 14.8156C15.5225 14.8322 15.5398 14.8497 15.556 14.8681C15.6237 14.9468 15.5799 15.0453 15.5291 15.1203C15.5154 15.1386 15.5027 15.1577 15.4912 15.1774C15.4895 15.1788 15.4881 15.1806 15.487 15.1825C15.486 15.1844 15.4854 15.1865 15.4853 15.1887C15.4687 15.218 15.4611 15.2509 15.4632 15.284C15.4653 15.3171 15.4771 15.349 15.4972 15.3762C15.5896 15.516 15.6207 15.684 15.5839 15.8449C15.549 16.0193 15.4534 16.2856 15.312 16.4159C15.3113 16.4187 15.3113 16.4215 15.312 16.4243L15.306 16.4356C15.2572 16.5293 15.295 16.6184 15.2841 16.7168C15.2535 16.8823 15.2116 17.0458 15.1586 17.2062C15.1416 17.2852 15.1145 17.3621 15.0779 17.4349C15.054 17.4753 15.0251 17.4781 14.9902 17.5006C14.9586 17.5277 14.9287 17.5565 14.9006 17.5868C14.8856 17.6599 15.0918 17.6534 15.1436 17.6318C15.1954 17.6103 15.1795 17.5803 15.1884 17.5278C15.1974 17.4753 15.2293 17.4687 15.2542 17.434C15.3179 17.3562 15.304 17.2803 15.3229 17.1912C15.3418 17.1021 15.3498 16.9953 15.3737 16.9024C15.3954 16.8193 15.4217 16.7374 15.4524 16.6568C15.4663 16.6174 15.4992 16.6043 15.5181 16.5715C15.5371 16.5387 15.5132 16.5031 15.5301 16.4628C15.547 16.4224 15.5919 16.384 15.6138 16.3465C15.6357 16.309 15.6636 16.2574 15.6895 16.2143C15.7488 16.1374 15.7946 16.0519 15.8249 15.9612C15.9016 15.9949 15.9106 16.1421 15.9245 16.2087C15.9395 16.2978 15.9684 16.3906 15.9873 16.4787C16.0062 16.5668 16.0411 16.6446 16.06 16.7299C16.069 16.7731 16.0899 16.819 16.0979 16.8621C16.1058 16.9053 16.0979 16.9559 16.1048 17.0009C16.1178 17.1181 16.1805 17.2474 16.1546 17.3693C16.1416 17.4254 16.1135 17.4773 16.073 17.5203C16.0281 17.5519 15.9936 17.5948 15.9734 17.644C16.0169 17.6592 16.0645 17.6609 16.1092 17.6487C16.1538 17.6366 16.1932 17.6113 16.2214 17.5765C16.2383 17.5456 16.2513 17.5099 16.2712 17.4771C16.2955 17.4353 16.3069 17.3879 16.3041 17.3403C16.3041 17.2465 16.2632 17.1631 16.2533 17.0703C16.2433 16.9774 16.2353 16.8828 16.2214 16.789C16.213 16.7083 16.2167 16.6269 16.2323 16.5471C16.2291 16.4634 16.214 16.3805 16.1875 16.3006C16.166 16.1395 16.1327 15.9801 16.0879 15.8234C16.1507 15.7681 16.2871 15.8009 16.3648 15.8178C16.46 15.8382 16.5586 15.8404 16.6547 15.8243C16.7008 15.8147 16.7455 15.8003 16.7882 15.7812C16.84 15.7596 16.8639 15.7296 16.8977 15.7812C16.912 15.8208 16.922 15.8616 16.9276 15.9031C16.9436 15.9471 16.9595 15.9893 16.9744 16.0343C17.0312 16.2031 17.074 16.3765 17.1169 16.5453C17.1597 16.714 17.1318 16.9203 17.1089 17.1031C17.104 17.1919 17.0886 17.2799 17.0631 17.3656C17.0518 17.4006 17.032 17.4327 17.0053 17.4593C16.9784 17.4856 16.9356 17.5043 16.9117 17.5315C16.8879 17.5601 16.8685 17.5916 16.8539 17.6253C16.8609 17.6665 16.9535 17.644 16.9874 17.6412C17.0442 17.6356 17.087 17.6412 17.1079 17.5943C17.1288 17.5474 17.1079 17.5249 17.1746 17.4874C17.2743 17.4293 17.2504 17.3759 17.2504 17.2737C17.2468 17.1854 17.2508 17.097 17.2623 17.0093C17.2753 16.9259 17.2782 16.8387 17.2972 16.7571C17.3061 16.7168 17.3261 16.6728 17.335 16.6296C17.344 16.5865 17.335 16.5406 17.3659 16.5143C17.4239 16.5828 17.4536 16.6687 17.4496 16.7562C17.4503 16.8496 17.4654 16.9425 17.4944 17.0318C17.5462 17.2053 17.585 17.3918 17.5004 17.5606C17.4994 17.568 17.4994 17.5756 17.5004 17.5831C17.4585 17.5971 17.4645 17.6374 17.4575 17.6684C17.5432 17.6824 17.6837 17.6684 17.6946 17.5746C17.7006 17.5259 17.6717 17.4912 17.6946 17.4434C17.7175 17.3956 17.7305 17.4031 17.7165 17.3449Z" fill="black"/>
<path d="M5.11994 12.8862C5.11484 12.8934 5.10784 12.8992 5.09965 12.903C5.09146 12.9069 5.08234 12.9086 5.0732 12.9082C5.06405 12.9077 5.0552 12.905 5.0475 12.9003C5.0398 12.8956 5.03353 12.8892 5.02929 12.8815C5.01076 12.8369 4.97964 12.7978 4.93926 12.7686C4.89889 12.7393 4.85081 12.721 4.80019 12.7156C4.73301 12.7103 4.66639 12.7 4.60097 12.6847C4.53523 12.6678 4.83904 12.6003 4.9257 12.6397C4.99029 12.6722 5.0438 12.7213 5.08009 12.7812C5.1797 12.6875 5.48849 12.5065 5.45064 12.56C5.36597 12.6875 5.22154 12.7672 5.11994 12.8862Z" fill="black"/>
<path d="M7.97571 14.3459C7.93985 14.4753 7.86913 14.5934 7.83526 14.7209C7.83329 14.7295 7.82906 14.7374 7.82296 14.7439C7.81687 14.7505 7.8091 14.7555 7.8004 14.7584C7.72001 14.7785 7.64341 14.8101 7.57329 14.8522C7.51651 14.8869 7.65995 14.6919 7.74063 14.6647C7.77749 14.555 7.99264 14.2813 7.97571 14.3459Z" fill="black"/>
<path d="M5.71956 13.9804C5.66876 13.9026 5.53728 13.9485 5.4815 13.8744C5.45261 13.8351 5.6588 13.8613 5.68072 13.8697C5.69686 13.8755 5.71251 13.8824 5.72753 13.8904C5.7365 13.8294 5.84408 13.6832 5.82714 13.7291C5.80324 13.8097 5.80822 13.8941 5.78531 13.9738C5.78225 13.9792 5.77783 13.9839 5.77242 13.9873C5.76701 13.9908 5.76079 13.9929 5.75429 13.9936C5.7478 13.9942 5.74123 13.9933 5.73518 13.991C5.72912 13.9887 5.72376 13.9851 5.71956 13.9804Z" fill="black"/>
<path d="M5.6389 13.3803L5.43968 13.3297C5.39087 13.3175 5.6389 13.3025 5.6389 13.3025C5.69169 13.2481 5.87497 13.0935 5.85904 13.1394C5.8144 13.2265 5.75292 13.305 5.67775 13.371C5.67262 13.3755 5.66638 13.3787 5.6596 13.3803C5.65281 13.3819 5.64569 13.382 5.6389 13.3803Z" fill="black"/>
<path d="M8.04843 13.3972C8.0408 13.4009 8.03213 13.4021 8.0237 13.4008C8.01527 13.3994 8.00753 13.3955 8.00161 13.3897C7.89403 13.3007 7.74561 13.3185 7.63007 13.2482C7.58724 13.2229 7.81534 13.2285 7.88806 13.2482C7.93973 13.2629 7.98828 13.2861 8.03149 13.3166C8.07731 13.28 8.22274 13.1478 8.20481 13.1938C8.17741 13.2757 8.12254 13.3471 8.04843 13.3972Z" fill="black"/>
<path d="M6.81427 15.3613C6.82374 15.4257 6.82374 15.491 6.81427 15.5554C6.79833 15.6163 6.61505 15.5797 6.61505 15.5797C6.61505 15.5797 6.68777 15.5019 6.7306 15.5291L6.73757 15.5338C6.73904 15.521 6.73904 15.5081 6.73757 15.4954C6.74155 15.4494 6.81327 15.3125 6.81427 15.3613Z" fill="black"/>
</g>
<defs>
<linearGradient id="paint0_linear_202_70" x1="0.530914" y1="8.75755" x2="50.4691" y2="8.75755" gradientUnits="userSpaceOnUse">
<stop stop-color="#734002"/>
<stop offset="1" stop-color="#D98E32"/>
</linearGradient>
<clipPath id="clip0_202_70">
<rect width="51" height="17" fill="white"/>
</clipPath>
</defs>
</svg>
