<svg width="23" height="21" viewBox="0 0 23 21" fill="none" xmlns="http://www.w3.org/2000/svg">
	<path d="M4.81396 8.15918V20.1592H0.813965V8.15918H4.81396ZM8.81396 20.1592C8.28353 20.1592 7.77482 19.9485 7.39975 19.5734C7.02468 19.1983 6.81396 18.6896 6.81396 18.1592V8.15918C6.81396 7.60918 7.03397 7.10918 7.40396 6.74918L13.984 0.15918L15.044 1.21918C15.314 1.48918 15.484 1.85918 15.484 2.26918L15.454 2.58918L14.504 7.15918H20.814C21.924 7.15918 22.814 8.05918 22.814 9.15918V11.1592C22.814 11.4192 22.764 11.6592 22.674 11.8892L19.654 18.9392C19.354 19.6592 18.644 20.1592 17.814 20.1592H8.81396ZM8.81396 18.1592H17.844L20.814 11.1592V9.15918H12.024L13.154 3.83918L8.81396 8.18918V18.1592Z" fill="#fff" />
</svg>
