<svg width="13" height="16" viewBox="0 0 13 16" fill="none" xmlns="http://www.w3.org/2000/svg">
<path d="M3.28139 5.79077V3.91577C3.28139 1.84478 4.81621 0.165771 6.70996 0.165771C8.60371 0.165771 10.1385 1.84478 10.1385 3.91577V5.79077H10.9957C11.9412 5.79077 12.71 6.63159 12.71 7.66577V13.2908C12.71 14.325 11.9412 15.1658 10.9957 15.1658H2.42425C1.47737 15.1658 0.709961 14.325 0.709961 13.2908V7.66577C0.709961 6.63159 1.47737 5.79077 2.42425 5.79077H3.28139ZM4.5671 5.79077H8.85282V3.91577C8.85282 2.62144 7.89389 1.57202 6.70996 1.57202C5.52603 1.57202 4.5671 2.62144 4.5671 3.91577V5.79077ZM1.99568 13.2908C1.99568 13.5486 2.18746 13.7595 2.42425 13.7595H10.9957C11.2314 13.7595 11.4242 13.5486 11.4242 13.2908V7.66577C11.4242 7.40796 11.2314 7.19702 10.9957 7.19702H2.42425C2.18746 7.19702 1.99568 7.40796 1.99568 7.66577V13.2908Z" fill="#7D7D7D"/>
</svg>
