<svg width="84" height="21" viewBox="0 0 84 21" fill="none" xmlns="http://www.w3.org/2000/svg">
<path d="M13.5066 16.0098L13.2673 11.6434L12.7888 6.08079H12.5496L9.31967 14.4845H6.98696L4.02621 6.08079H3.84677L3.27854 11.3443L2.94957 16.0098H0.407517L1.87294 1.59481H5.372L5.94023 3.71818L8.24303 10.5369H8.42247L10.8449 3.71818L11.4729 1.59481H14.8823L16.1982 16.0098H13.5066ZM20.6424 11.1948C20.7621 13.0889 21.6792 14.0359 23.3938 14.0359C24.3708 14.0359 25.3776 13.7568 26.4144 13.1986L26.6537 13.378L26.2649 15.5612C25.2281 15.9998 24.1814 16.2291 23.1247 16.249C21.4699 16.249 20.1839 15.7705 19.2667 14.8135C18.3496 13.8565 17.891 12.5406 17.891 10.8658C17.891 9.17114 18.3496 7.84528 19.2667 6.88827C20.2038 5.91132 21.3901 5.42285 22.8256 5.42285C24.2611 5.42285 25.3278 5.7917 26.0256 6.52939C26.7434 7.24715 27.1023 8.24403 27.1023 9.52005C27.1023 9.9188 27.0724 10.3275 27.0125 10.7462L26.5639 11.1649L20.6424 11.1948ZM22.9153 7.36677C22.3372 7.36677 21.8487 7.55618 21.4499 7.935C21.0711 8.31382 20.8219 8.85213 20.7023 9.54995L24.4705 9.43033L24.5303 9.19107C24.5104 7.97487 23.972 7.36677 22.9153 7.36677ZM35.5101 9.52005C35.5101 8.42347 35.0416 7.87519 34.1045 7.87519C33.4267 7.87519 32.7089 8.19419 31.9513 8.8322V11.4341L32.1008 16.0098H29.1101L29.2597 11.7032L29.1401 5.78173L31.9812 5.54248V7.06771H32.1307C32.988 6.31008 33.8852 5.77176 34.8223 5.45276C35.9587 5.45276 36.8161 5.71195 37.3943 6.23033C37.9924 6.74871 38.2815 7.4864 38.2615 8.44341L38.2017 11.4341L38.3214 16.0098H35.3307L35.5101 9.52005ZM45.168 13.7967C45.6266 13.7967 46.1151 13.6771 46.6335 13.4378L46.8727 13.6771L46.5736 15.4116C45.8359 15.8104 45.0683 16.0496 44.2708 16.1294C42.2571 15.93 41.2403 14.9531 41.2204 13.1986L41.34 11.3144V7.45649H39.9344L39.8148 7.33687L39.9643 5.69201H41.2802V3.95743L44.0017 3.09014L44.211 3.26958L44.1213 5.69201H46.8129L46.9026 5.84154L46.783 7.45649H44.0914L43.9718 12.4808C43.9718 12.9593 44.0515 13.2982 44.211 13.4976C44.3905 13.697 44.7095 13.7967 45.168 13.7967ZM52.6694 5.39294C54.2644 5.39294 55.4607 5.84154 56.2582 6.73874C57.0557 7.63593 57.4544 8.96179 57.4544 10.7163C57.4544 12.4708 57.0158 13.8366 56.1385 14.8135C55.2812 15.7705 54.065 16.249 52.4899 16.249C50.9348 16.249 49.7485 15.8004 48.9311 14.9032C48.1335 13.9861 47.7348 12.6503 47.7348 10.8957C47.7348 9.14123 48.1635 7.78547 49.0208 6.82846C49.8781 5.87145 51.0943 5.39294 52.6694 5.39294ZM52.5797 7.39668C51.8619 7.39668 51.3435 7.6459 51.0245 8.14434C50.7055 8.62285 50.546 9.4702 50.546 10.6864C50.546 11.9026 50.7055 12.7998 51.0245 13.378C51.3435 13.9362 51.8719 14.2154 52.6096 14.2154C53.3473 14.2154 53.8756 13.9861 54.1946 13.5275C54.5136 13.069 54.6731 12.2316 54.6731 11.0154C54.6731 9.79917 54.5036 8.89201 54.1647 8.29388C53.8258 7.69575 53.2974 7.39668 52.5797 7.39668ZM65.196 5.57238C65.3355 5.59232 65.5249 5.61226 65.7642 5.6322V8.35369L65.4651 8.47332C65.2059 8.37363 64.9268 8.32378 64.6277 8.32378C63.7704 8.32378 62.9829 8.87207 62.2651 9.96864V11.4341L62.4445 16.0098H59.4539L59.6034 11.7032L59.4838 5.78173L62.3249 5.54248L62.295 7.60603H62.4745C63.1922 6.2702 64.0994 5.59232 65.196 5.57238ZM72.6469 0.249018C73.265 0.22908 73.9129 0.288892 74.5908 0.428456L74.4114 2.64154L74.202 2.79107C73.5042 2.49201 72.8861 2.34248 72.3478 2.34248C71.4307 2.34248 70.9622 2.87082 70.9422 3.92752L70.9123 5.69201H73.4544L73.5441 5.84154L73.4245 7.45649H70.8824L70.7927 11.4341L70.9721 16.0098H67.9815L68.1609 11.6733L68.131 7.45649H66.546L66.4562 7.33687L66.5759 5.69201H68.1011L68.0712 4.46584C68.0712 3.13001 68.4699 2.09325 69.2674 1.35556C70.065 0.617865 71.1914 0.249018 72.6469 0.249018ZM78.2561 12.9892H78.4056L80.2299 7.45649L80.6187 5.57238H83.1906L79.8112 15.292C79.3327 16.7076 78.6747 17.7842 77.8374 18.5219C77 19.2795 75.8137 19.8777 74.2785 20.3163L74.0691 20.2864C73.5308 19.8079 73.0922 19.2098 72.7533 18.492L72.843 18.1929C74.5776 17.8939 75.9632 17.1662 77 16.0098L73.1719 5.6621L76.043 5.51257L76.3719 7.18734L78.2561 12.9892Z" fill="#B8B8B8"/>
</svg>
