<svg width="183" height="76" viewBox="0 0 183 76" fill="none" xmlns="http://www.w3.org/2000/svg">
<g clip-path="url(#clip0_24_19)">
<path d="M135.232 46.2235C145.377 46.2235 153.601 37.3917 153.601 26.4971C153.601 15.6025 145.377 6.77063 135.232 6.77063C125.087 6.77063 116.863 15.6025 116.863 26.4971C116.863 37.3917 125.087 46.2235 135.232 46.2235Z" fill="url(#paint0_linear_24_19)"/>
<path d="M94.3943 22.4267L94.4974 23.8829L94.0057 23.9851C93.8313 23.4017 93.6568 22.8142 93.4744 22.2394C92.7528 19.9614 92.844 20.4724 92.3127 22.1414C91.8409 23.6189 92.0352 24.5684 91.4999 25.9735C91.1907 26.7782 90.707 28.1322 90.4572 29.0391C90.2986 29.6181 88.9149 29.7161 88.6373 30.1759C88.8792 28.6814 88.7642 27.0166 89.5849 25.8628C89.9457 25.3646 89.9814 23.9382 90.1678 22.9334L89.9576 22.5715C88.5263 24.4279 87.3408 25.7946 86.302 27.3913C85.4536 28.6687 84.2126 29.0348 83.8518 31.5597C83.7904 31.7452 83.6809 31.9079 83.5362 32.0286C83.3914 32.1493 83.2175 32.223 83.035 32.241C80.9971 32.3219 79.542 34.6935 77.9362 37.2141C77.9132 37.2462 77.8805 37.2688 77.8437 37.2778C77.807 37.2869 77.7684 37.282 77.7346 37.2638C77.7009 37.2457 77.674 37.2155 77.6587 37.1785C77.6434 37.1415 77.6406 37.0998 77.6507 37.0608C78.1146 35.5237 78.5745 34.3741 79.2882 33.4374C81.2389 30.8827 83.0746 27.9406 84.9579 25.156L84.8073 24.7302C84.1531 25.5817 83.5227 26.5483 82.8249 27.3147C82.3848 27.8086 81.8693 28.0129 81.3975 28.3876C81.116 28.609 80.7671 28.7794 80.6045 29.2094C79.8786 31.1017 78.8221 32.8274 77.4921 34.2932C77.4685 34.3311 77.4318 34.3572 77.3902 34.366C77.3485 34.3748 77.3053 34.3655 77.2701 34.3401C77.2349 34.3147 77.2105 34.2753 77.2023 34.2306C77.1941 34.1858 77.2028 34.1395 77.2265 34.1016L78.416 30.9125L77.7697 30.4867L77.0719 31.3766L76.4335 30.8998L76.5208 30.7507L75.9141 30.3249L74.122 33.0116L73.4084 32.5858C74.126 30.8189 74.8476 29.0476 75.5851 27.3147C75.7238 26.9911 76.0133 26.9357 76.2313 26.7526C76.6008 26.5311 76.932 26.243 77.2106 25.9011C78.0789 24.5556 77.4882 25.5349 78.0789 24.5556C76.3146 26.0033 75.6525 25.2794 73.5749 26.9826L73.4401 26.5951C73.4305 26.5678 73.4273 26.5384 73.4308 26.5094C73.4342 26.4805 73.4442 26.4529 73.4599 26.4291C73.8376 25.7839 74.2789 25.1843 74.7762 24.6408C75.5137 23.9978 75.5692 23.6487 75.8864 22.1585C75.8923 22.1242 75.8888 22.0887 75.8762 22.0565C75.8636 22.0244 75.8425 21.9968 75.8155 21.9774C75.7885 21.9579 75.7569 21.9474 75.7244 21.947C75.6919 21.9466 75.66 21.9565 75.6326 21.9754C72.1158 24.8409 70.4783 29.4904 67.2272 32.4581C67.1978 32.4848 67.1606 32.4995 67.1221 32.4995C67.0836 32.4995 67.0464 32.4848 67.017 32.4581C66.8188 32.2623 66.3708 31.9259 66.1646 31.73C66.1367 31.6984 66.1212 31.6565 66.1212 31.6129C66.1212 31.5694 66.1367 31.5275 66.1646 31.4958C67.2985 29.9758 68.4325 28.46 69.5585 26.923C69.8394 26.5699 70.0741 26.1774 70.2563 25.7563C70.522 25.0921 70.7083 25.3518 71.0136 24.7472C71.0312 24.7139 71.0378 24.6751 71.0324 24.6373C71.0269 24.5994 71.0098 24.5646 70.9836 24.5385C70.9575 24.5124 70.9239 24.4965 70.8883 24.4934C70.8528 24.4904 70.8173 24.5003 70.7876 24.5215C69.6259 25.3348 68.6466 25.1176 67.6157 26.0756L67.4532 25.4327C67.4451 25.4065 67.4438 25.3784 67.4494 25.3514C67.4549 25.3244 67.4672 25.2995 67.4849 25.2794L69.0232 23.291C69.0443 23.2632 69.0729 23.2433 69.1052 23.234C69.1374 23.2247 69.1715 23.2265 69.2027 23.2393C69.2339 23.252 69.2605 23.275 69.2788 23.3049C69.2972 23.3348 69.3062 23.3702 69.3047 23.406C69.3047 23.7083 69.3047 24.0532 69.281 24.2107C69.2766 24.2576 69.2569 24.3013 69.2255 24.3342C65.8474 27.5701 62.4614 29.0944 59.0834 32.3431L58.9763 31.9174C58.9687 31.8884 58.9683 31.8578 58.9753 31.8286C58.9822 31.7994 58.9963 31.7728 59.016 31.7513C61.2839 29.1966 62.7548 28.3025 65.0306 25.7308C65.0553 25.7045 65.0707 25.6699 65.0743 25.6328C65.0743 25.4966 65.1298 25.1687 65.1298 25.1347C63.3813 26.378 62.6755 26.8846 60.9191 28.047C60.2728 28.4728 59.4085 28.4302 58.6274 28.3791C56.5895 28.2514 55.1027 29.2307 53.0766 29.6565C52.3749 29.8012 51.8872 32.1856 51.2211 32.7221C50.7969 33.0627 49.9048 33.0329 49.199 33.3821C49.1686 33.3969 49.1347 33.4014 49.1019 33.3949C49.0691 33.3883 49.0389 33.3711 49.0156 33.3455C48.9922 33.3199 48.9767 33.2873 48.9712 33.2519C48.9657 33.2165 48.9705 33.1802 48.9849 33.1479C50.329 30.3335 52.2837 27.0422 53.822 27.0805C58.338 27.1869 61.8984 26.0246 65.9227 22.1585C72.0563 16.2657 78.2137 10.4367 84.3513 4.57796C84.5888 4.37815 84.8091 4.15585 85.0095 3.91374C87.8285 0.141318 90.8933 -0.620831 94.1881 0.507489C95.4251 0.933271 96.7216 0.596903 97.9904 0.673544C98.3239 0.72794 98.6287 0.907442 98.8508 1.18022C100.722 3.26655 102.554 5.5019 104.453 7.48604C107.252 10.4112 110.044 13.3916 112.926 15.9463C119.821 22.052 126.763 27.9193 133.69 33.8887C133.937 34.0978 134.149 34.3514 134.316 34.6381C131.937 33.4544 129.515 32.5092 127.382 29.8396C127.065 29.4376 126.71 29.0723 126.323 28.7496C125.197 27.8256 124.059 26.957 122.929 26.0458C120.094 23.7551 117.256 21.4687 114.421 19.1525C112.732 17.7729 111.051 16.3423 109.366 14.933C109.33 15.0905 109.298 15.2438 109.262 15.4013L121.391 26.5142L120.725 27.3998L117.553 24.8111L117.002 25.3263L117.866 26.9698L117.525 27.3062L114.861 25.3774C114.831 25.3544 114.794 25.3434 114.758 25.3461C114.721 25.3489 114.686 25.3652 114.66 25.3924C114.633 25.4195 114.616 25.4559 114.611 25.4951C114.607 25.5343 114.615 25.5739 114.635 25.6073L115.428 27.1018L114.893 27.6553L112.232 25.9224L112.882 27.072C112.823 27.1316 112.767 27.2295 112.748 27.204C111.405 25.3816 110.063 23.5494 108.723 21.7071C108.37 21.2217 108.073 20.3872 107.688 20.2084C105.571 19.2163 104.187 15.8484 102.411 13.7748C102.213 13.5407 102.015 13.2894 101.828 13.0467L101.694 13.4385C101.684 13.4651 101.681 13.4938 101.684 13.5221C101.688 13.5503 101.698 13.5772 101.713 13.6003L108.644 23.8829L108.271 24.3087C107.744 23.9851 107.213 23.6615 106.685 23.3123C106.516 23.1711 106.402 22.968 106.364 22.7418C106.031 20.6129 105.123 20.0466 104.235 19.4037C104.205 19.3807 104.169 19.3697 104.132 19.3724C104.095 19.3752 104.061 19.3915 104.034 19.4187C104.007 19.4458 103.99 19.4821 103.986 19.5213C103.981 19.5606 103.989 19.6002 104.009 19.6336C104.743 20.9876 105.496 22.3032 106.17 23.7722C106.927 25.4199 107.542 27.3274 108.263 29.0391C108.894 30.5378 109.58 31.9429 110.222 33.3352C110.235 33.3614 110.242 33.3909 110.241 33.4206C110.24 33.4504 110.232 33.4794 110.218 33.5049C110.203 33.5303 110.183 33.5512 110.159 33.5655C110.134 33.5798 110.107 33.587 110.079 33.5864C109.072 33.5183 107.562 31.2915 107.106 28.8262C107.022 28.207 106.82 27.613 106.513 27.0811C106.206 26.5493 105.8 26.0911 105.321 25.735C105.297 25.7148 105.268 25.7024 105.237 25.6994C105.206 25.6964 105.175 25.7029 105.148 25.7181C105.12 25.7333 105.097 25.7566 105.082 25.7852C105.066 25.8138 105.059 25.8466 105.06 25.8798L105.103 26.9315C105.104 26.9646 105.095 26.9972 105.079 27.0253C105.062 27.0534 105.039 27.076 105.011 27.0903C104.983 27.1046 104.952 27.11 104.921 27.106C104.891 27.102 104.862 27.0888 104.838 27.0677L104.084 26.3609L103.997 26.5908L106.931 32.1516L106.321 32.6029L103.125 28.4345C103.103 28.404 103.072 28.3823 103.038 28.373C103.003 28.3636 102.966 28.3671 102.934 28.3829C102.901 28.3986 102.875 28.4258 102.858 28.4599C102.842 28.494 102.837 28.533 102.843 28.5707C102.957 29.5284 103.122 30.4781 103.339 31.4149C103.565 32.2367 103.914 33.2075 104.314 33.5013C105.064 34.0378 105.341 35.1363 105.583 36.2561C105.592 36.2904 105.59 36.3268 105.578 36.36C105.566 36.3933 105.545 36.4217 105.518 36.4414C105.49 36.4612 105.458 36.4711 105.425 36.47C105.391 36.4688 105.36 36.4565 105.333 36.4349L102.261 33.9781C102.229 33.9521 102.202 33.9204 102.181 33.8845C100.809 31.4533 99.4494 29.005 98.0617 26.6036C97.5424 25.701 96.9714 24.9005 96.4243 24.083L95.1397 22.1244L94.3943 22.4267Z" fill="white"/>
<path d="M182.894 73.8653C181.732 72.6688 180.622 71.417 179.583 70.1141C179.57 70.0952 179.552 70.0805 179.531 70.0715C175.916 68.4025 173.1 65.3624 170.718 61.9051C169.663 60.3722 168.735 58.7543 167.7 57.2002L167.673 57.1704C167.414 56.8655 167.173 56.5442 166.951 56.2081C166.34 55.4891 165.677 54.8228 164.969 54.2154C164.688 53.9736 164.429 53.7042 164.195 53.4107C164.181 53.3929 164.164 53.3785 164.144 53.3681C162.575 52.6808 161.123 51.7198 159.846 50.5239C156.833 47.6925 153.851 44.7418 150.794 41.7826L150.874 41.6038C149.962 40.6575 148.978 39.7957 147.932 39.0278C147.472 38.6915 147.004 38.3849 146.536 38.0741L146.488 38.0485C146.266 37.9336 146.048 37.7931 145.83 37.6653C143.313 36.2262 140.767 34.902 138.297 33.2415C136.315 31.9173 134.618 30.0268 132.703 28.5834C132.167 28.1576 131.612 27.8383 131.073 27.4551L130.982 27.387L130.308 26.9612C129.563 26.5056 128.77 26.0117 127.977 25.5433C127.687 25.3871 127.405 25.2151 127.132 25.0281C124.836 23.8913 122.374 23.176 120.102 21.9668C120.069 21.9519 120.031 21.9502 119.997 21.9621C119.962 21.974 119.932 21.9986 119.913 22.0317C119.893 22.0648 119.885 22.1042 119.89 22.1429C119.895 22.1817 119.913 22.2173 119.94 22.2435C124.23 25.8158 128.528 29.3498 132.822 32.9179C133.062 33.1116 133.268 33.3512 133.428 33.6247C131.113 32.5134 128.762 31.6107 126.688 29.1199C126.38 28.7419 126.036 28.3994 125.661 28.098C124.567 27.2465 123.461 26.4205 122.366 25.5646C119.607 23.4187 116.85 21.2642 114.096 19.1013C112.454 17.8239 110.821 16.4657 109.183 15.1458C109.152 15.2948 109.116 15.4396 109.084 15.5715L120.84 25.9691L120.221 26.8207L117.149 24.4022L116.625 24.9089L117.45 26.4204L117.129 26.7483C116.312 26.1735 115.471 25.5902 114.532 24.9345C114.503 24.9116 114.468 24.9004 114.432 24.9029C114.397 24.9053 114.363 24.9212 114.337 24.9478C114.312 24.9743 114.296 25.0098 114.292 25.0479C114.288 25.0861 114.298 25.1243 114.318 25.1559C114.615 25.6881 114.861 26.1309 115.091 26.5524L114.595 27.0889L111.994 25.4539L112.625 26.5312C112.569 26.5865 112.514 26.6802 112.494 26.6546C111.189 24.9515 109.885 23.2484 108.585 21.4984C108.24 21.0428 107.95 20.2636 107.581 20.0976C105.52 19.1651 104.18 16.0058 102.451 14.06C102.257 13.8471 102.074 13.6087 101.884 13.3788C101.832 13.5278 101.777 13.6811 101.721 13.8301C103.984 17.0632 106.245 20.2963 108.505 23.5294L108.16 23.9552C107.641 23.6486 107.125 23.342 106.61 23.0142C106.447 22.8835 106.335 22.6922 106.297 22.4777C105.976 20.4723 105.107 19.9486 104.227 19.3482C104.199 19.3254 104.163 19.3142 104.128 19.3166C104.092 19.319 104.059 19.335 104.033 19.3615C104.007 19.3881 103.991 19.4236 103.987 19.4617C103.984 19.4998 103.993 19.538 104.013 19.5696C104.727 20.847 105.456 22.069 106.11 23.4442C106.844 24.9898 107.443 26.7781 108.144 28.3833C108.755 29.7884 109.421 31.0998 110.044 32.4069C110.056 32.4317 110.062 32.4596 110.062 32.4878C110.061 32.516 110.053 32.5435 110.04 32.5676C110.026 32.5916 110.007 32.6115 109.984 32.6251C109.961 32.6388 109.935 32.6458 109.909 32.6454C108.929 32.5815 107.463 30.5165 107.018 28.1874C106.934 27.5989 106.735 27.0361 106.435 26.5352C106.136 26.0342 105.741 25.6064 105.278 25.2794C105.254 25.2609 105.227 25.25 105.198 25.2477C105.169 25.2455 105.14 25.2521 105.114 25.2668C105.088 25.2814 105.067 25.3036 105.052 25.3307C105.038 25.3578 105.031 25.3887 105.032 25.4199L105.072 26.4077C105.074 26.4396 105.067 26.4714 105.052 26.4991C105.037 26.5268 105.015 26.5492 104.988 26.5633C104.961 26.5774 104.931 26.5827 104.902 26.5785C104.872 26.5743 104.844 26.5608 104.822 26.5397L104.084 25.8712L104.001 26.0883L106.848 31.2956L106.265 31.7214L103.145 27.7915C103.123 27.7645 103.093 27.7459 103.061 27.7384C103.028 27.7309 102.994 27.7348 102.964 27.7496C102.934 27.7645 102.909 27.7894 102.893 27.8207C102.877 27.852 102.871 27.888 102.875 27.9235C102.987 28.8228 103.149 29.7143 103.359 30.5931C103.581 31.3638 103.918 32.2749 104.31 32.5474C105.036 33.0541 105.306 34.0803 105.54 35.1319C105.547 35.1645 105.544 35.1986 105.533 35.2297C105.522 35.2609 105.502 35.2876 105.476 35.3065C105.45 35.3254 105.42 35.3355 105.389 35.3355C105.358 35.3355 105.327 35.3254 105.302 35.3065L102.312 32.9988C102.282 32.9742 102.257 32.9439 102.237 32.9094C100.905 30.6314 99.5764 28.3322 98.2324 26.0969C97.7288 25.2453 97.1737 24.513 96.6464 23.7295L95.3856 21.8774L94.6719 22.1797C94.7076 22.6438 94.7393 23.1079 94.775 23.5762L94.3032 23.6784C94.1327 23.1164 93.9582 22.5586 93.7759 22.0051C93.0781 19.8762 92.5864 20.0508 92.067 21.6134C91.6071 23.0014 90.9053 24.0701 90.3859 25.3901C90.0846 26.1437 89.9498 27.1358 89.7079 27.9873C89.5684 28.5058 89.3558 28.9983 89.0775 29.4478C89.3115 28.0512 89.2004 26.4886 90.0013 25.4071C90.3463 24.9387 90.3978 23.6018 90.5643 22.6608L90.3621 22.3202C89.1727 23.8147 87.9396 25.1942 86.7938 26.8377C85.9691 28.0342 84.7638 28.379 84.4149 30.7506C84.3523 30.9262 84.2445 31.0791 84.1041 31.1914C83.9637 31.3037 83.7965 31.3709 83.6219 31.3851C81.6395 31.4617 80.224 33.6928 78.6579 36.0686C78.6356 36.0987 78.6044 36.1194 78.5694 36.1275C78.5345 36.1355 78.498 36.1303 78.4663 36.1128C78.4345 36.0952 78.4094 36.0664 78.3951 36.0312C78.3809 35.996 78.3785 35.9565 78.3883 35.9196C78.7091 34.6857 79.2475 33.5293 79.9742 32.5134C81.8694 30.1035 83.6536 27.3572 85.4814 24.7471C85.4338 24.6151 85.3863 24.4831 85.3347 24.3512C84.7003 25.1687 84.0898 26.0543 83.4237 26.7781C82.9906 27.1578 82.5261 27.4942 82.036 27.783C81.7664 27.9916 81.4254 28.1491 81.2668 28.5494C80.5532 30.3376 79.5231 31.96 78.2337 33.3266C78.2086 33.3542 78.1754 33.3715 78.1398 33.3757C78.1041 33.3798 78.0682 33.3705 78.0383 33.3494C78.0083 33.3283 77.9861 33.2966 77.9754 33.2598C77.9648 33.2231 77.9664 33.1834 77.9799 33.1478L79.1416 30.1673L78.5271 29.7415L77.8253 30.5931L77.2266 30.1077L77.3099 29.9715L76.735 29.5457L74.9627 32.1004L74.2807 31.6746C74.9785 30.0183 75.6764 28.362 76.398 26.7355C76.5288 26.4375 76.7944 26.3821 77.0244 26.2118C77.3801 26.008 77.7006 25.7401 77.972 25.4199C78.6024 24.4789 79.213 23.4826 79.7205 22.6523C79.7438 22.6205 79.7551 22.5806 79.7524 22.5403C79.7496 22.5001 79.733 22.4624 79.7056 22.4346C79.6783 22.4069 79.6423 22.3911 79.6047 22.3904C79.5671 22.3897 79.5306 22.4042 79.5024 22.4309L74.4512 26.4375L74.2887 25.9904C74.7288 25.3986 75.1332 24.6492 75.6169 24.2447C76.3385 23.6358 76.5645 22.482 76.9213 20.9321C76.9283 20.8996 76.9261 20.8655 76.9147 20.8343C76.9034 20.8032 76.8836 20.7764 76.8579 20.7575C76.8322 20.7387 76.8018 20.7286 76.7707 20.7286C76.7395 20.7286 76.7091 20.7387 76.6834 20.7576C73.1508 23.5038 70.534 28.4216 67.3066 31.2105L67.1519 30.7847C68.278 29.32 69.4079 27.8681 70.53 26.3907C70.8029 26.0636 71.0312 25.6966 71.208 25.3006C71.4776 24.6492 71.7115 23.9381 72.0485 22.9503C72.0591 22.9169 72.0595 22.8807 72.0496 22.847C72.0397 22.8133 72.0201 22.7838 71.9936 22.7629C71.967 22.7421 71.935 22.7308 71.9021 22.7308C71.8692 22.7308 71.8372 22.7421 71.8106 22.763L70.0582 24.3086L69.4555 23.6486L70.308 22.5884L70.2366 22.2733L63.1593 28.8431L62.6717 28.2811L66.018 24.6151L65.7682 24.2873C64.4717 25.1899 63.1792 26.0969 61.8708 26.9271C61.2443 27.3316 60.6813 27.7787 59.8884 27.7361C57.9059 27.6126 55.9235 28.0299 53.9411 28.4174C53.2591 28.5494 52.597 29.1838 51.9587 29.6947C51.3732 30.2047 50.8121 30.7461 50.2776 31.3169C51.582 28.5792 53.053 27.8809 54.6389 27.9107C59.028 28.0086 63.0721 25.522 66.9815 21.8987C72.9287 16.3635 78.9196 10.9092 84.8907 5.41666C85.1185 5.22804 85.332 5.02016 85.529 4.79502C88.2687 1.25678 91.2463 0.537206 94.4459 1.60166C95.6354 2.00189 96.9121 1.68256 98.1412 1.75494C98.4638 1.80256 98.7602 1.97154 98.9777 2.23181C100.798 4.18615 102.578 6.28526 104.421 8.14592C107.141 10.8837 109.853 13.6811 112.656 16.074C114.028 17.2449 118.536 20.864 119.908 22.0349C119.151 21.294 115.301 17.9602 114.655 16.8957C114.401 16.4699 114.159 16.0442 113.933 15.5673V16.0867C113.793 16.0296 113.66 15.9538 113.537 15.8611C111.13 13.5874 108.696 11.4074 106.321 9.00173C103.819 6.44704 101.384 3.68373 98.9024 1.05666C98.7786 0.94194 98.634 0.855886 98.4778 0.803871C98.3216 0.751857 98.157 0.734996 97.9945 0.754352C97.3204 0.779899 96.6425 1.0524 95.9764 0.958732C94.5213 0.754357 93.0741 0.396699 91.615 0.0858788C90.156 -0.224941 88.7484 0.532952 87.448 1.72514C79.9465 8.60576 72.4688 15.6056 64.9356 22.4138C63.2505 23.9467 61.4664 25.3219 59.6505 26.0074C57.4698 26.8249 55.2059 26.7909 52.9816 27.2081C52.4465 27.3455 51.9577 27.6404 51.5701 28.0597C49.1634 30.4526 46.8559 33.2883 44.366 35.298C38.8469 39.6793 33.2168 43.6476 27.6661 47.8969C27.2277 48.2503 26.7209 48.4933 26.1832 48.6079C26.1584 48.613 26.1353 48.6247 26.1158 48.642C19.7166 54.6029 12.3618 59.6314 6.68808 66.3587C5.99026 67.1805 5.32417 68.0278 4.66997 68.8879C4.38054 69.2668 3.28624 70.7656 3.45673 70.5271C2.33864 72.0855 1.22849 73.6481 0.0905762 75.1894C0.122295 75.3257 0.157979 75.4619 0.189697 75.6152H182.354C182.389 75.6149 182.423 75.6015 182.45 75.5774C182.477 75.5534 182.495 75.5201 182.501 75.4832C182.599 74.9898 182.741 74.5078 182.925 74.0441C182.937 74.0142 182.94 73.9814 182.934 73.9496C182.929 73.9178 182.915 73.8885 182.894 73.8653V73.8653Z" fill="url(#paint1_linear_24_19)"/>
<path d="M132.643 49.4042H129.947V50.9753H132.643V49.4042Z" fill="#CB3E23"/>
<path d="M132.643 54.6924H129.947V73.3799H132.643V54.6924Z" fill="#CB3E23"/>
<path d="M133.69 50.9795H128.9V51.9758H133.69V50.9795Z" fill="#BB9870"/>
<path d="M129.959 73.3799C129.545 73.8472 129.313 74.4676 129.313 75.1128V75.6536H133.305V75.1128C133.303 74.4671 133.071 73.8468 132.655 73.3799H129.959Z" fill="#313131"/>
<path d="M158.07 44.0308C156.107 45.0228 152.122 45.3549 147.365 45.3549H132.04C127.283 45.3549 123.318 45.0228 121.335 44.0308C121.335 44.0308 121.082 47.6116 124.563 47.6116H154.834C158.323 47.6116 158.07 44.0308 158.07 44.0308Z" fill="#313131"/>
<path d="M124.567 47.6116C125.138 49.1401 126.549 49.4041 128.369 49.4041H151.04C152.876 49.4041 154.271 49.1401 154.838 47.6116H124.567Z" fill="#CB3E23"/>
<path d="M149.462 49.4042H146.766V50.9753H149.462V49.4042Z" fill="#CB3E23"/>
<path d="M149.462 54.6924H146.766V73.3799H149.462V54.6924Z" fill="#CB3E23"/>
<path d="M150.509 50.9795H145.719V51.9758H150.509V50.9795Z" fill="#BB9870"/>
<path d="M154.034 51.9758H125.372V52.7295H154.034V51.9758Z" fill="#313131"/>
<path d="M153.566 52.7295H125.844V54.6923H153.566V52.7295Z" fill="#CB3E23"/>
<path d="M146.116 75.1128V75.6536H150.108V75.1128C150.106 74.4671 149.874 73.8468 149.458 73.3799H146.766C146.349 73.8458 146.116 74.4667 146.116 75.1128V75.1128Z" fill="#313131"/>
</g>
<defs>
<linearGradient id="paint0_linear_24_19" x1="144.419" y1="9.41047" x2="124.012" y2="42.3227" gradientUnits="userSpaceOnUse">
<stop stop-color="#F18B39"/>
<stop offset="1" stop-color="#FBC271"/>
</linearGradient>
<linearGradient id="paint1_linear_24_19" x1="0.0628223" y1="37.8186" x2="182.937" y2="37.8186" gradientUnits="userSpaceOnUse">
<stop stop-color="#532108"/>
<stop offset="1" stop-color="#874D33"/>
</linearGradient>
<clipPath id="clip0_24_19">
<rect width="183" height="76" fill="white"/>
</clipPath>
</defs>
</svg>
