<svg width="60" height="39" viewBox="0 0 60 39" fill="none" xmlns="http://www.w3.org/2000/svg">
<path d="M49.7748 16.9406C50.147 16.0092 50.3559 14.9906 50.3559 13.9286C50.3559 9.31473 46.4517 5.57143 41.6396 5.57143C39.851 5.57143 38.1804 6.09375 36.8003 6.9817C34.2853 2.80312 29.5913 0 24.2072 0C16.181 0 9.6801 6.23304 9.6801 13.9286C9.6801 14.1636 9.68918 14.3987 9.69826 14.6337C4.61379 16.3487 0.963867 20.9973 0.963867 26.4643C0.963867 33.385 6.82009 39 14.0382 39H47.4505C53.8696 39 59.0721 34.0118 59.0721 27.8571C59.0721 22.4685 55.0772 17.9679 49.7748 16.9406ZM36.6823 22.2857H30.7443V32.0357C30.7443 32.8018 30.0906 33.4286 29.2916 33.4286H24.9335C24.1345 33.4286 23.4808 32.8018 23.4808 32.0357V22.2857H17.5429C16.2445 22.2857 15.5999 20.7884 16.5169 19.9092L26.0866 10.7337C26.6495 10.194 27.5756 10.194 28.1385 10.7337L37.7082 19.9092C38.6253 20.7884 37.9715 22.2857 36.6823 22.2857Z" fill="#7D7D7D"/>
</svg>
