<svg width="32" height="34" viewBox="0 0 32 34" fill="none" xmlns="http://www.w3.org/2000/svg">
<g filter="url(#filter0_d_415_5960)">
<path d="M26.6667 25V22.3333C26.6667 20.9188 26.1048 19.5623 25.1046 18.5621C24.1044 17.5619 22.7478 17 21.3333 17H10.6667C9.25219 17 7.89563 17.5619 6.89544 18.5621C5.89525 19.5623 5.33334 20.9188 5.33334 22.3333V25" stroke="white" stroke-width="2" stroke-linecap="round" stroke-linejoin="round"/>
<path d="M16 11.6667C18.9455 11.6667 21.3333 9.27885 21.3333 6.33333C21.3333 3.38781 18.9455 1 16 1C13.0545 1 10.6667 3.38781 10.6667 6.33333C10.6667 9.27885 13.0545 11.6667 16 11.6667Z" stroke="white" stroke-width="2" stroke-linecap="round" stroke-linejoin="round"/>
</g>
<defs>
<filter id="filter0_d_415_5960" x="0.333344" y="0" width="31.3333" height="34" filterUnits="userSpaceOnUse" color-interpolation-filters="sRGB">
<feFlood flood-opacity="0" result="BackgroundImageFix"/>
<feColorMatrix in="SourceAlpha" type="matrix" values="0 0 0 0 0 0 0 0 0 0 0 0 0 0 0 0 0 0 127 0" result="hardAlpha"/>
<feOffset dy="4"/>
<feGaussianBlur stdDeviation="2"/>
<feComposite in2="hardAlpha" operator="out"/>
<feColorMatrix type="matrix" values="0 0 0 0 0 0 0 0 0 0 0 0 0 0 0 0 0 0 0.25 0"/>
<feBlend mode="normal" in2="BackgroundImageFix" result="effect1_dropShadow_415_5960"/>
<feBlend mode="normal" in="SourceGraphic" in2="effect1_dropShadow_415_5960" result="shape"/>
</filter>
</defs>
</svg>
