<svg width="23" height="21" viewBox="0 0 23 21" fill="none" xmlns="http://www.w3.org/2000/svg">
<path d="M20.6367 0.493164C21.6867 0.493164 22.5567 1.30316 22.6367 2.34316V2.49316V14.4932C22.6367 15.5432 21.8167 16.4132 20.7867 16.4932H20.6367H13.6367V18.4932H15.6367V20.4932H7.63672V18.4932H9.63672V16.4932H2.63672C1.58672 16.4932 0.716719 15.6732 0.636719 14.6432V14.4932V2.49316C0.636719 1.43316 1.44672 0.573164 2.48672 0.493164H2.63672H20.6367ZM20.6367 2.49316H2.63672V14.4932H20.6367V2.49316ZM11.6367 9.49316C13.8467 9.49316 15.6367 10.3932 15.6367 11.4932V12.4932H7.63672V11.4932C7.63672 10.3932 9.42672 9.49316 11.6367 9.49316ZM11.6367 4.49316C12.7467 4.49316 13.6367 5.39316 13.6367 6.49316C13.6367 7.59316 12.7467 8.49316 11.6367 8.49316C10.5267 8.49316 9.63672 7.60316 9.63672 6.49316C9.63672 5.38316 10.5367 4.49316 11.6367 4.49316Z" fill="#FE7D22"/>
</svg>
