<svg width="1072" height="526" viewBox="0 0 1072 526" fill="none" xmlns="http://www.w3.org/2000/svg">
	<path d="M104.31 514C104.31 514 209.5 533.951 366.5 514C445.19 504 468.455 496.054 574 486C654.863 478.297 826.81 477 826.81 477C826.81 477 996.023 467.946 1031 439C1045.5 427 1068.5 405.5 1068.5 374.5C1068.5 343.5 1058.93 318.674 1018 301.5C968 280.521 826.81 275 781.31 275C663.073 275 524.81 269 524.81 269C524.81 269 394.399 248.853 310.31 240.5C234.349 232.955 194.89 238.281 120 223.5C82 216 58.9999 216.5 35 194.5C1.22843 163.543 -0.000136614 150.5 5.99994 118C12.1829 84.5097 21.1273 83.4055 51.5 68C73 57.0949 136.239 63 193 63C284 62.9999 371.371 57.1282 476.5 54.4999C564.818 52.2919 582 50.5 699.81 39C802.974 28.9296 857.837 13.5845 961 3.5" stroke="white" stroke-width="6" stroke-linejoin="round" stroke-dasharray="15 15" />
</svg>
