<svg width="32" height="26" viewBox="0 0 32 26" fill="none" xmlns="http://www.w3.org/2000/svg">
	<g clip-path="url(#clip0_43_163)">
		<path d="M15.9949 16C18.8654 16 21.1499 13.672 21.1499 10.8C21.1499 7.92801 18.8229 5.60001 15.9949 5.60001C13.1244 5.60001 10.8399 7.92801 10.8399 10.8C10.7949 13.67 13.1249 16 15.9949 16ZM18.4949 17.6H13.5049C9.5799 17.6 6.3999 20.585 6.3999 24.265C6.3999 25.005 7.0349 25.6 7.8199 25.6H24.1799C24.9649 25.6 25.5999 25.005 25.5999 24.265C25.5999 20.585 22.4199 17.6 18.4949 17.6Z" fill="#7D7D7D" />
		<path opacity="0.4" d="M6.4 8C8.609 8 10.4 6.209 10.4 4C10.4 1.791 8.61 0 6.4 0C4.191 0 2.4 1.791 2.4 4C2.4 6.209 4.191 8 6.4 8ZM25.6 8C27.809 8 29.6 6.209 29.6 4C29.6 1.791 27.81 0 25.6 0C23.391 0 21.6 1.791 21.6 4C21.6 6.209 23.39 8 25.6 8ZM27.595 9.6H24.503C23.863 9.6 23.259 9.75185 22.71 10.012C22.74 10.275 22.79 10.53 22.79 10.8C22.79 12.4855 22.151 14.0105 21.132 15.2H31.117C31.605 15.2 32 14.78 32 14.265C32 11.69 30.03 9.6 27.595 9.6ZM9.275 10.005C8.73 9.705 8.13 9.6 7.495 9.6H4.404C1.972 9.6 0 11.69 0 14.265C0 14.78 0.39435 15.2 0.881 15.2H10.856C9.837 14.0105 9.198 12.4855 9.198 10.8C9.195 10.53 9.245 10.27 9.275 10.005Z" fill="#7D7D7D" />
	</g>
	<defs>
		<clipPath id="clip0_43_163">
			<rect width="32" height="25.6" fill="white" />
		</clipPath>
	</defs>
</svg>
