<svg width="22" height="22" viewBox="0 0 22 22" fill="none" xmlns="http://www.w3.org/2000/svg">
<g clip-path="url(#clip0_55_2987)">
<path d="M7.33333 12.9167C7.33333 12.4125 7.74583 12 8.25 12H14.6667V7.11111H9.77778C9.10288 7.11111 8.55556 6.56378 8.55556 5.88889V1H1.83333C0.820799 1 0 1.8208 0 2.83333V18.7222C0 19.7344 0.820799 20.5556 1.83333 20.5556H12.8333C13.8459 20.5556 14.6667 19.7348 14.6667 18.7222V13.8333H8.25C7.74583 13.8333 7.33333 13.4247 7.33333 12.9167ZM9.77778 1V5.88889H14.6667L9.77778 1ZM21.6983 12.2674L18.6427 9.21181C18.2846 8.85373 17.7047 8.85373 17.3464 9.21181C16.9881 9.56988 16.9883 10.1499 17.3464 10.5081L18.8719 12H14.6667V13.8333H18.8719L17.3811 15.3241C17.199 15.5024 17.1111 15.7354 17.1111 15.9722C17.1111 16.209 17.2006 16.4412 17.3797 16.6204C17.7377 16.9785 18.3177 16.9785 18.676 16.6204L21.7315 13.5648C22.0878 13.2069 22.0878 12.6264 21.6983 12.2674Z" fill="#FE7D22"/>
</g>
<defs>
<clipPath id="clip0_55_2987">
<rect width="22" height="19.5556" fill="white" transform="translate(0 1)"/>
</clipPath>
</defs>
</svg>
