<svg width="22" height="22" viewBox="0 0 22 22" fill="none" xmlns="http://www.w3.org/2000/svg">
<g clip-path="url(#clip0_55_2981)">
<path d="M13.4063 2.75C14.0852 2.75 14.6997 3.14961 14.9747 3.76965C15.2153 4.39141 15.138 5.11328 14.6825 5.62031L10.3126 10.4758V17.875C10.3126 18.3949 10.0204 18.8719 9.55203 19.1039C9.08797 19.3359 8.52938 19.2887 8.11258 18.975L5.36258 16.9125C5.01453 16.6547 4.81258 16.2465 4.81258 15.8125V10.4758L0.441368 5.62031C-0.0128206 5.11328 -0.127453 4.39141 0.148708 3.76965C0.424825 3.14961 1.03992 2.75 1.68016 2.75H13.4063ZM20.6251 16.5C21.3856 16.5 22.0001 17.1145 22.0001 17.875C22.0001 18.6355 21.3856 19.25 20.6251 19.25H15.1251C14.3645 19.25 13.7501 18.6355 13.7501 17.875C13.7501 17.1145 14.3645 16.5 15.1251 16.5H20.6251ZM13.7501 11C13.7501 10.2395 14.3645 9.625 15.1251 9.625H20.6251C21.3856 9.625 22.0001 10.2395 22.0001 11C22.0001 11.7605 21.3856 12.375 20.6251 12.375H15.1251C14.3645 12.375 13.7501 11.7605 13.7501 11ZM20.6251 2.75C21.3856 2.75 22.0001 3.36574 22.0001 4.125C22.0001 4.88555 21.3856 5.5 20.6251 5.5H17.8751C17.1145 5.5 16.5001 4.88555 16.5001 4.125C16.5001 3.36574 17.1145 2.75 17.8751 2.75H20.6251Z" fill="#FE7D22"/>
</g>
<defs>
<clipPath id="clip0_55_2981">
<rect width="22" height="22" fill="white"/>
</clipPath>
</defs>
</svg>
