<svg width="37" height="45" viewBox="0 0 37 45" fill="none" xmlns="http://www.w3.org/2000/svg">
<path d="M13.8807 0.523364C15.2328 0.479749 16.6502 0.61059 18.1331 0.915886L17.7406 5.75701L17.2826 6.08411C15.7561 5.42991 14.4041 5.1028 13.2265 5.1028C11.2203 5.1028 10.1954 6.25857 10.1518 8.57009L10.0863 12.4299H15.6471L15.8434 12.757L15.5817 16.2897H10.0209L9.82467 24.9907L10.2172 35H3.67513L4.06766 25.514L4.00224 16.2897H0.534946L0.338685 16.028L0.600367 12.4299H3.93682L3.8714 9.74766C3.8714 6.82554 4.74367 4.55763 6.48822 2.94392C8.23277 1.33022 10.6969 0.523364 13.8807 0.523364ZM26.1508 28.3925H26.4779L30.4686 16.2897L31.319 12.1682H36.9452L29.5527 33.4299C28.5059 36.5265 27.0667 38.8816 25.2349 40.4953C23.4031 42.1526 20.8081 43.4611 17.4499 44.4206L16.9919 44.3551C15.8144 43.3084 14.8549 42 14.1134 40.4299L14.3097 39.7757C18.1041 39.1215 21.1352 37.5296 23.4031 35L15.0293 12.3645L21.3097 12.0374L22.0293 15.7009L26.1508 28.3925Z" fill="#FE7D22"/>
</svg>
