<svg width="51" height="41" viewBox="0 0 51 41" fill="none" xmlns="http://www.w3.org/2000/svg">
<path d="M49.6533 10.9627L27.1256 2.85879C26.0315 2.46561 24.8386 2.46561 23.7445 2.85879L1.27898 10.9627C0.513028 11.243 0 11.9797 0 12.8125C0 13.6453 0.513028 14.386 1.27898 14.6615L6.06183 16.384C5.11434 17.6492 4.44736 19.1195 4.1055 20.7042C3.19148 21.0926 2.55 22.0055 2.55 23.0625C2.55 23.8595 2.93362 24.5431 3.50147 25.0132L1.52283 36.9448C1.39294 37.7248 1.99219 38.4375 2.7803 38.4375H7.4197C8.20757 38.4375 8.80706 37.7265 8.67717 36.9456L6.69853 25.014C7.2667 24.5439 7.65 23.7912 7.65 23.0625C7.65 22.2385 7.2377 21.5386 6.63637 21.0694C6.97521 19.6472 7.66275 18.3611 8.62378 17.3033L23.8122 22.767C24.9063 23.1602 26.0992 23.1602 27.1934 22.767L49.721 14.6631C50.49 14.382 51 13.6453 51 12.8125C51 11.9797 50.49 11.243 49.6533 10.9627ZM27.9783 25.1766C27.2292 25.4729 26.3686 25.625 25.5 25.625C24.6298 25.625 23.7716 25.4755 22.95 25.1802L11.3794 21.0205L10.2 32.4557C10.2 35.7629 16.9814 38.4375 25.5 38.4375C33.8752 38.4375 40.8 35.7629 40.8 32.4581L39.6222 21.0149L27.9783 25.1766Z" fill="#1C1B20"/>
</svg>
