<svg width="32" height="29" viewBox="0 0 32 29" fill="none" xmlns="http://www.w3.org/2000/svg">
	<g clip-path="url(#clip0_43_160)">
		<path d="M14.8278 0.440119C15.45 -0.146381 16.5 -0.146381 17.1722 0.440119L31.3944 12.8836C32.1333 13.5336 32.2056 14.6558 31.5611 15.3947C30.9111 16.1336 29.7889 16.2058 29.05 15.5613L16 4.14023L2.94833 15.5613C2.20945 16.2058 1.08667 16.1336 0.439835 15.3947C-0.206665 14.6558 -0.131776 13.5336 0.607224 12.8836L14.8278 0.440119ZM19.5556 14.2225C19.5556 16.1836 17.9611 17.778 16 17.778C14.0389 17.778 12.4444 16.1836 12.4444 14.2225C12.4444 12.2613 14.0389 10.6669 16 10.6669C17.9611 10.6669 19.5556 12.2613 19.5556 14.2225ZM17.7778 19.5558C20.2333 19.5558 22.2222 21.5447 22.2222 24.0002C22.2222 24.4891 21.8222 24.8891 21.3333 24.8891H10.6667C10.1778 24.8891 9.77778 24.4891 9.77778 24.0002C9.77778 21.5447 11.7667 19.5558 14.2222 19.5558H17.7778Z" fill="#FE7D22" />
		<path opacity="0.4" d="M16 4.14001L28.45 15.0333L28.4722 24.8833C28.4778 26.85 26.8833 28.4445 24.9166 28.4445H7.11664C5.1522 28.4445 3.56053 26.8556 3.55942 24.8889L3.55664 15.0278L16 4.14001ZM16 17.7778C17.9611 17.7778 19.5555 16.1833 19.5555 14.2222C19.5555 12.2611 17.9611 10.6667 16 10.6667C14.0389 10.6667 12.4444 12.2611 12.4444 14.2222C12.4444 16.1833 14.0389 17.7778 16 17.7778ZM10.6666 24.8889H21.3333C21.8222 24.8889 22.2222 24.4889 22.2222 24C22.2222 21.5445 20.2333 19.5556 17.7778 19.5556H14.2222C11.7666 19.5556 9.77775 21.5445 9.77775 24C9.77775 24.4889 10.1778 24.8889 10.6666 24.8889Z" fill="#FE7D22" />
	</g>
	<defs>
		<clipPath id="clip0_43_160">
			<rect width="32" height="28.4444" fill="white" />
		</clipPath>
	</defs>
</svg>
