<svg width="13" height="16" viewBox="0 0 13 16" fill="none" xmlns="http://www.w3.org/2000/svg">
<path d="M3.98608 7.93066C3.57202 7.93066 3.23608 8.24414 3.23608 8.63379C3.23608 9.02344 3.57202 9.33691 3.98608 9.33691C4.40171 9.33691 4.73608 9.02344 4.73608 8.63379C4.73608 8.24414 4.40171 7.93066 3.98608 7.93066ZM3.98608 10.7432C3.57202 10.7432 3.23608 11.0581 3.23608 11.4463C3.23608 11.8345 3.57202 12.1494 3.98608 12.1494C4.40171 12.1494 4.73608 11.8359 4.73608 11.4463C4.73608 11.0566 4.40171 10.7432 3.98608 10.7432ZM9.73608 10.9775H6.23608C5.96108 10.9775 5.73608 11.1885 5.73608 11.4463C5.73608 11.7041 5.96108 11.915 6.23608 11.915H9.73608C10.0125 11.915 10.2361 11.7054 10.2361 11.4463C10.2361 11.1872 10.0111 10.9775 9.73608 10.9775ZM10.7361 2.54004H9.18577C8.92671 1.47012 7.94546 0.665039 6.73608 0.665039C5.52671 0.665039 4.51733 1.47012 4.28608 2.54004H2.73608C1.6314 2.54004 0.736084 3.37969 0.736084 4.41504V13.79C0.736084 14.8254 1.6314 15.665 2.73608 15.665H10.7361C11.8408 15.665 12.7361 14.8254 12.7361 13.79V4.41504C12.7361 3.37969 11.8392 2.54004 10.7361 2.54004ZM6.73608 2.07129C7.14952 2.07129 7.48608 2.38682 7.48608 2.77441C7.48608 3.16201 7.14858 3.47754 6.73608 3.47754C6.32358 3.47754 5.98608 3.16201 5.98608 2.77441C5.98608 2.38682 6.32358 2.07129 6.73608 2.07129ZM11.2361 13.79C11.2361 14.0484 11.0118 14.2588 10.7361 14.2588H2.73608C2.4604 14.2588 2.23608 14.0484 2.23608 13.79V4.41504C2.23608 4.15664 2.4604 3.94629 2.73608 3.94629H3.30671C3.26515 4.0957 3.23608 4.25098 3.23608 4.41504V4.88379C3.23608 5.1416 3.45983 5.35254 3.73608 5.35254H9.73608C10.0122 5.35254 10.2361 5.14266 10.2361 4.88379V4.41504C10.2361 4.25218 10.207 4.09687 10.1653 3.94629H10.7361C11.0118 3.94629 11.2361 4.15664 11.2361 4.41504V13.79ZM9.73608 8.16504H6.23608C5.96108 8.16504 5.73608 8.37598 5.73608 8.63379C5.73608 8.8916 5.96108 9.10254 6.23608 9.10254H9.73608C10.0125 9.10254 10.2361 8.89289 10.2361 8.63379C10.2361 8.37469 10.0111 8.16504 9.73608 8.16504Z" fill="#7D7D7D"/>
</svg>
