<svg width="39" height="30" viewBox="0 0 39 30" fill="none" xmlns="http://www.w3.org/2000/svg">
<g clip-path="url(#clip0_202_286)">
<path fill-rule="evenodd" clip-rule="evenodd" d="M11.043 17.3258C10.9883 17.4378 10.9571 17.4681 11.1631 17.4874C11.2363 17.4872 11.3092 17.4961 11.3799 17.514C11.3208 17.7323 11.1886 17.927 11.003 18.0694C10.9424 18.0795 10.7578 18.0914 10.7217 18.0611L10.7627 17.7683C10.7686 17.7316 10.7744 17.7004 10.7813 17.6664C10.8789 17.6425 10.9043 17.6499 10.9053 17.5462C10.9063 17.4424 10.8994 17.1533 10.9053 17.0872V16.8595C11.3994 16.8595 11.4326 16.7301 11.2266 16.9807C11.1921 17.0399 11.1662 17.1032 11.1494 17.1689C11.1026 17.3047 11.1035 17.1927 11.0391 17.3258H11.043ZM10.5547 17.3837L10.4844 17.6471C10.4571 17.6985 10.4844 17.6875 10.5293 17.7068C10.5293 17.7986 10.4766 17.7279 10.5293 18.0575C10.5364 18.0969 10.54 18.1368 10.5401 18.1768C10.5059 18.1768 10.5078 18.1841 10.5205 18.2686C10.5332 18.353 10.5742 18.3659 10.6358 18.353C10.253 18.689 10.6455 19.2049 10.4678 19.4298C10.5254 19.3986 10.9766 19.0103 11.0537 18.9892C11.4698 18.8653 10.7969 18.8056 11.1104 18.5183C11.2266 18.4136 11.3262 18.3218 11.6309 17.6471C11.6896 17.5053 11.7717 17.373 11.874 17.2552L11.5987 17.0284C11.5131 17.1322 11.4534 17.2526 11.4239 17.3809C11.3653 17.3589 11.3262 17.3479 11.3194 17.2698C11.3194 17.2212 11.377 17.1707 11.4297 17.111L11.6006 16.921C11.7031 16.943 11.6924 16.921 11.6739 16.7237C11.667 16.6566 11.6826 16.5887 11.6123 16.5502C11.51 16.5034 11.4012 16.4703 11.2891 16.4519L11.0127 16.3886L11.1338 16.2665L11.3291 16.0499C11.3369 16.0701 11.4561 16.2637 11.4717 16.2904C11.5186 16.3675 11.542 16.351 11.6406 16.4161L11.876 16.5768C11.959 16.6346 11.9209 16.6401 11.9453 16.6548L12.1983 16.709C12.2178 16.7154 12.2158 16.7209 12.2373 16.7209C12.251 16.6915 12.2373 16.686 12.2227 16.6686L12.294 16.6906L12.2832 16.6465C12.3057 16.641 12.3203 16.6465 12.3399 16.6511C12.3574 16.5896 12.2539 16.5841 12.2315 16.5593C12.2793 16.5199 12.2237 16.5336 12.3164 16.5327C12.3448 16.5024 12.251 16.4804 12.1895 16.5125C12.128 16.5446 12.1201 16.5446 12.0352 16.5318C11.9278 16.5144 11.9463 16.5043 11.8399 16.3941L11.5049 15.9406C11.5118 15.9347 11.5193 15.9295 11.5274 15.925C11.5781 15.8892 11.5547 15.8966 11.6172 15.8956C11.6573 15.8956 11.6367 15.8782 11.6797 15.8782C12.0918 15.8782 12.0967 15.8782 12.4385 15.7212C12.5635 15.6643 12.5645 15.7506 12.6055 15.6671C12.6465 15.5835 12.6924 15.6092 12.6885 15.5753C12.6556 15.5769 12.6229 15.5812 12.5908 15.5881C12.5996 15.5165 12.6446 15.5211 12.6826 15.4963C12.7002 15.4835 12.6973 15.477 12.711 15.4642L12.5625 15.4982C12.502 15.5239 12.5342 15.5799 12.4981 15.5982L12.1563 15.6735C12.0498 15.6808 12.0733 15.724 11.8125 15.7258C11.6856 15.7258 11.6602 15.7387 11.5723 15.6763C11.543 15.6561 11.5323 15.6625 11.4961 15.6551C11.4971 15.6442 11.4994 15.6334 11.503 15.623C11.5147 15.5845 11.503 15.5964 11.5811 15.5734C11.6592 15.5505 11.625 15.545 11.6289 15.5129L11.6348 15.4449C11.6416 15.4321 11.6817 15.4247 11.5987 15.3761C11.5987 15.3366 11.6114 15.3513 11.5899 15.3146C11.5811 15.299 11.5694 15.2824 11.5625 15.2668C11.5928 15.209 11.5772 15.2035 11.5381 15.1925C11.4512 15.1677 11.4073 15.1466 11.3213 15.1925C11.2549 15.2246 11.1914 15.2283 11.1729 15.3118C11.1426 15.4449 11.2422 15.5413 11.2168 15.5872C11.126 15.6065 11.0655 15.5312 10.8584 15.7662L10.5889 16.0242L10.5498 16.06C10.5332 16.0728 10.5498 16.0903 10.5293 16.1123C10.5081 16.0952 10.4819 16.0847 10.4541 16.0821C10.4264 16.0794 10.3984 16.0849 10.374 16.0976C10.3305 16.1302 10.3004 16.1762 10.2889 16.2275C10.2775 16.2787 10.2855 16.3322 10.3115 16.3785C10.3477 16.4602 10.3428 16.462 10.4317 16.462C10.4064 16.5084 10.3965 16.5609 10.4033 16.6126C10.4258 16.7503 10.501 16.7484 10.5264 16.9669C10.5556 17.105 10.5657 17.2459 10.5567 17.3864L10.5547 17.3837Z" fill="#2A4A69"/>
<path d="M10.2842 19.0682C9.94531 20.1817 9.22363 20.3285 8.55078 21.2281L8.3877 21.4567C8.31836 21.554 8.25 21.6513 8.18164 21.7486L7.77148 22.3361C7.49707 22.729 7.22168 23.1219 6.94141 23.5102C6.26465 24.4484 5.57422 25.381 4.78516 26.2127C4.36231 26.6561 3.87891 27.027 3.41016 27.4125L2.69141 27.9954C2.85742 27.8596 2.39844 28.2396 2.33691 28.291C1.56934 28.9336 0.87207 29.6459 0.151367 30.3381H37.9922C37.9561 29.6138 37.6172 28.7325 37.1572 27.8678C36.3652 26.3743 35.21 24.9303 34.6113 24.4107C33.667 23.5965 32.0273 21.8331 31.8594 21.275C31.6914 20.7168 30.9697 17.9877 29.5664 17.1514C28.1631 16.3152 27.0078 13.4979 26.7852 12.7663C26.5625 12.0347 25.3115 7.69729 24.8525 7.24565C24.3936 6.794 24.1025 6.42865 23.7783 5.48498C23.4941 4.64412 22.9844 3.58295 22.4414 3.04318C22.3777 2.97924 22.3088 2.92 22.2354 2.86602C22.0264 2.25281 21.7139 0.643614 21.4355 0.662891C21.1572 0.682169 21.0605 1.2201 20.3799 1.69285C19.6992 2.16561 19.5869 2.14449 19.3438 2.75494C19.1006 3.36539 18.2246 5.33352 17.9951 6.27994C17.8721 6.34512 17.75 6.4158 17.6309 6.49291L17.6152 6.50393C17.2033 6.77208 16.8499 7.11206 16.5742 7.50543C16.5547 7.52737 16.5371 7.55069 16.5215 7.5752C16.5139 7.58518 16.5071 7.5956 16.501 7.60641C16.2909 7.91912 16.1148 8.25096 15.9756 8.5969C15.873 8.84661 15.7506 9.08872 15.6094 9.32117C15.1318 10.1161 14.5801 10.5577 14.2793 10.9396C13.8965 11.4233 13.8828 12.9049 13.6123 13.7421C13.4463 14.184 13.2563 14.6175 13.043 15.041C12.3652 16.4308 11.3154 18.376 10.9414 18.9075C10.8164 18.567 10.665 19.1352 10.5361 18.8295C10.5098 18.9782 10.3271 18.9277 10.2842 19.0682Z" fill="url(#paint0_linear_202_286)"/>
<path d="M32.3164 24.7954C31.9131 24.0252 31.5996 22.5711 31.582 22.4811C31.6113 22.5298 32.6113 24.2005 33.6787 24.6466C34.7461 25.0928 37.083 27.7824 37.1553 27.866C36.3633 26.3724 35.208 24.9285 34.6094 24.4089C33.665 23.5946 32.0254 21.8312 31.8574 21.2731C31.6895 20.715 30.9678 17.9859 29.5645 17.1496C28.1611 16.3133 27.0078 13.4979 26.7852 12.7663C26.5625 12.0347 25.3115 7.69726 24.8525 7.24562C24.3936 6.79398 24.1025 6.42863 23.7783 5.48496C23.4941 4.6441 22.9844 3.58293 22.4414 3.04316C22.373 3.68574 22.6279 4.5826 22.6543 4.68082C22.6191 4.58902 22.3154 3.79131 22.0605 3.03674C21.791 2.23076 21.5889 0.918982 21.5889 0.918982C21.5889 0.918982 21.3936 0.866657 21.0957 1.70293C20.7979 2.5392 19.998 4.05476 19.998 4.05476L20.498 2.23076C19.998 2.73564 19.6084 2.68056 19.6084 2.68056C19.6084 2.68056 18.7041 4.88369 18.3564 5.87142C18.0088 6.85916 17.5654 9.43773 17.2598 9.75994C16.9541 10.0821 16.6738 10.3401 16.1855 11.4775C16.3652 10.1666 17.0049 9.5231 17.1621 8.87777C17.3193 8.23244 17.6211 6.54797 17.6299 6.49105L17.6143 6.50207C17.2414 6.81122 16.8934 7.14597 16.5732 7.50357C16.5678 7.5083 16.5629 7.51353 16.5586 7.51918C16.5443 7.53622 16.5316 7.55433 16.5205 7.57334C16.513 7.58332 16.5061 7.59375 16.5 7.60455C16.0859 8.3224 15.2998 11.6032 15.2998 11.6032L15.6084 9.31931C15.1309 10.1143 14.5791 10.5558 14.2783 10.9377C13.8955 11.4215 13.8818 12.9031 13.6113 13.7403C13.4457 14.1827 13.256 14.6169 13.043 15.041C13.0713 15.0869 13.1045 15.1025 13.1406 15.0851C13.5449 14.8758 15.1621 12.713 15.2627 12.5772C13.417 15.8378 11.9854 17.9859 10.3467 19.9815C8.70801 21.9772 9.0625 21.2116 8.35547 22.9007C8.40918 22.8217 9.28711 21.5283 9.97754 20.9729C10.6934 20.3992 12.457 18.6211 12.457 18.6211C12.457 18.6211 11.8076 19.7961 11.0674 20.9711C10.3271 22.1461 8.56445 24.251 7.83789 24.6668C7.11133 25.0827 5.34961 26.9278 4.8291 27.7732C4.35156 28.5443 3.17969 29.3962 2.96777 29.5449C3.27539 29.3531 5.81641 27.7613 6.91211 26.6992C8.06152 25.5857 10.2568 24.0793 10.3252 24.0371C10.2539 24.1289 7.99512 27.0719 5.9834 28.9023C7.36523 28.4305 10.8965 25.3039 11.8428 24.3483C11.2451 25.5821 10.6475 26.0979 10.2363 26.5285C9.8252 26.959 9.27246 28.1074 8.40918 28.7619C8.94531 28.7316 10.7168 27.2381 11.6553 26.1916C11.4941 26.7011 10.7002 27.8439 10.6504 27.9155C10.7041 27.8779 11.5869 27.2785 12.5371 26.4991C13.5205 25.6968 14.2705 24.5089 15.9756 23.3633C14.9287 24.1225 13.3623 26.8874 13.3623 26.8874C13.3623 26.8874 16.3896 25.2094 17.0967 25.2534C17.8037 25.2975 20.3496 24.452 20.3496 24.452L17.1895 24.4236L17.9121 22.1745C17.9121 22.1745 16.9209 22.2168 16.2725 22.3903C15.624 22.5638 12.499 25.2956 12.4023 25.381C12.5 25.2626 15.6416 21.4943 16.1602 21.1428C16.6787 20.7912 19.1641 20.513 20.4883 20.5002C21.8125 20.4873 22.7588 21.5457 23.0742 21.8184C23.3897 22.091 23.3613 23.0062 23.583 23.7222C23.7988 24.4153 24.623 25.2461 24.6738 25.2966C24.6299 25.213 23.9082 23.8994 23.8926 23.6075C23.877 23.3156 23.8564 22.8346 23.5586 21.9037C25.2637 22.0396 26.9092 25.1056 27.0596 25.392C26.9326 25.1166 25.6279 22.4031 24.8135 21.8037C23.9522 21.173 21.4473 19.1159 20.8633 18.7928C20.2793 18.4696 18.3242 18.8148 18.3242 18.8148C18.3242 18.8148 19.374 17.8491 20.5762 17.6866C21.7783 17.5241 22.4658 17.9234 22.4658 17.9234C22.4658 17.9234 21.8545 17.1615 21.3672 16.977C20.8799 16.7925 19.8672 16.988 19.0332 16.8054C19.9639 16.5593 20.0098 16.4831 19.9434 16.2151C19.877 15.9471 19.3574 14.7546 19.2598 14.6252C19.1621 14.4957 18.8154 14.5288 18.5098 14.6142C18.2041 14.6995 16.5264 16.6016 15.6221 17.4277C16.4033 16.2344 17.8262 14.6784 18.1611 14.3663C18.4961 14.0542 18.7305 13.9798 19.3272 13.7862C19.9238 13.5925 20.5166 15.2549 20.5166 15.2549C20.5166 15.2549 20.4043 13.1491 19.9043 12.3321C21.832 12.7837 23.0547 15.5 23.0547 15.5C23.0547 15.5 22.3975 13.0105 22.1367 12.7378C21.876 12.4652 20.3584 10.7614 19.709 10.6889C19.0596 10.6164 18.7266 11.6923 18.1064 11.8511C17.4863 12.0099 17.124 12.4937 15.4463 14.3847C16.29 13.0233 17.3994 11.7932 17.8193 11.539C18.2393 11.2847 18.1064 11.0956 19.1533 9.92058C20.2002 8.74558 20.4033 8.70427 20.8867 8.90439C21.3525 9.099 22.7676 10.5567 22.8564 10.6485C22.7754 10.5255 21.459 8.59045 21.1367 8.16084C20.8027 7.71654 20.6348 7.96715 20.5381 7.47971C20.4414 6.99226 20.1084 6.22851 19.9463 6.12019C19.7842 6.01187 19.1123 7.18779 18.5039 8.18287C18.8232 7.06478 20.2617 4.5725 20.457 4.5523C20.6523 4.53211 20.8086 4.5881 20.8047 4.46051C20.8008 4.33291 20.666 4.03916 20.707 3.7601C20.748 3.48103 20.9814 3.22859 21.0273 2.75676C21.0732 2.28492 21.25 1.94894 21.3428 2.00586C21.4355 2.06277 21.3193 2.37304 21.4531 2.54195C21.5869 2.71086 21.7178 3.35435 21.8145 3.82711C21.9111 4.29986 22.0781 5.36195 22.626 5.49781C22.626 5.29769 22.7734 5.01037 22.9678 5.03883C23.1621 5.06728 23.3486 6.67281 23.71 7.25847C24.0713 7.84414 24.3223 7.8322 24.6465 8.50599C24.9707 9.17978 25.6865 11.2599 25.6865 11.2599C25.6865 11.2599 25.1504 10.9166 24.7012 11.1846C25.834 11.5344 26.6309 13.598 26.665 13.6879C26.6436 13.6687 26.4531 13.4924 26.3145 13.5346C26.6846 14.0349 26.9717 15.9957 27.1113 16.899C27.251 17.8023 28.207 19.5391 28.207 19.5391C28.207 19.5391 27.7256 17.749 27.5674 16.8311C27.9844 17.4736 30.0596 19.4252 30.3096 20.4543C30.5596 21.4833 30.9482 22.9906 31.5586 24.2886C32.1689 25.5866 33.0811 26.8883 33.3789 27.5456C33.6768 28.2029 33.8447 29.3264 33.8447 29.3264C33.8447 29.3264 33.8594 27.6943 33.7627 27.3941C33.666 27.0939 32.7344 25.5903 32.3164 24.7954ZM12.7305 21.9607C12.2861 22.7336 10.7305 23.3642 10.7305 23.3642C11.9277 21.7651 13.9609 19.5712 14.0449 19.4812C13.9941 19.5822 13.1611 21.2116 12.7305 21.9607Z" fill="#EEF4FF"/>
<path d="M37.3203 27.6566C36.5391 26.1879 35.3613 24.6806 34.7129 24.1215C33.667 23.2192 32.1738 21.5448 32.0508 21.1354L32.0186 21.0234C31.374 18.8056 30.5732 17.3983 29.6406 16.842C28.3652 16.0801 27.2266 13.4455 26.9775 12.6258C26.9521 12.5432 26.9141 12.4138 26.8652 12.2494C25.8564 8.86305 25.2891 7.28414 24.9668 6.96744C24.5098 6.51948 24.2578 6.17707 23.9717 5.33254C23.7012 4.53299 23.1758 3.39104 22.5801 2.78518C22.5741 2.77775 22.5675 2.7707 22.5605 2.76407C22.5092 2.71198 22.4547 2.66264 22.3975 2.61627C22.3486 2.45838 22.293 2.24909 22.2344 2.0251C21.9502 0.955667 21.7549 0.301155 21.4297 0.333284C21.2246 0.347972 21.0898 0.531565 20.9473 0.726175C20.7745 0.982718 20.5542 1.20811 20.2969 1.3917C20.1807 1.47248 20.0811 1.53858 19.9951 1.59549C19.5645 1.88098 19.4033 1.98838 19.166 2.58323C19.1113 2.72092 19.0244 2.92838 18.9199 3.17715C18.5703 4.00332 18.0527 5.23891 17.8379 6.02285C17.7402 6.07885 17.6426 6.13485 17.5527 6.19268C17.5448 6.19799 17.5373 6.20382 17.5303 6.21012C17.0992 6.49137 16.729 6.84713 16.4395 7.25844C16.4144 7.28752 16.3916 7.31819 16.3711 7.35024C16.3633 7.3604 16.3565 7.37115 16.3506 7.38237C16.1293 7.7115 15.9441 8.06089 15.7979 8.42518C15.7022 8.6589 15.5876 8.88538 15.4551 9.10264C15.1905 9.52588 14.876 9.91973 14.5176 10.2767C14.374 10.4282 14.25 10.5585 14.1465 10.6907C13.8623 11.0487 13.7559 11.728 13.6504 12.4468C13.6034 12.8356 13.5277 13.2208 13.4238 13.5998C13.2628 14.0252 13.0777 14.4423 12.8691 14.8491C12.2705 16.0774 11.4307 17.6425 10.9824 18.3778C10.8496 18.0317 10.748 19.494 10.6201 19.204C10.6201 19.5124 10.5547 18.0418 10.4688 18.3374C10.5664 18.566 10.6553 18.8102 10.752 19.0718C10.7617 19.1083 10.7806 19.1422 10.8071 19.1704C10.8336 19.1987 10.8669 19.2206 10.9043 19.2343C10.9395 19.2402 10.9759 19.2353 11.0079 19.2202C11.04 19.2052 11.066 19.1808 11.082 19.1507C11.4873 18.5752 12.5576 16.5758 13.21 15.2393C13.4342 14.7995 13.6331 14.3488 13.8057 13.8889C13.925 13.4629 14.0118 13.0295 14.0654 12.5918C14.1533 12.0117 14.2441 11.4113 14.416 11.1947C14.5059 11.0809 14.6221 10.9588 14.7578 10.8165C15.144 10.431 15.4821 10.0054 15.7656 9.54785C15.9171 9.29957 16.0477 9.04052 16.1563 8.77309C16.287 8.44891 16.4522 8.13798 16.6494 7.84502C16.6533 7.83985 16.6565 7.83431 16.6592 7.8285L16.6729 7.8083C16.6826 7.79362 16.6934 7.77985 16.7022 7.76883L16.7178 7.74955C16.9766 7.38032 17.308 7.06096 17.6943 6.80864L17.708 6.79946C17.7164 6.79438 17.7243 6.78854 17.7314 6.78201C17.835 6.71684 17.9443 6.6535 18.0645 6.58924C18.0992 6.56647 18.1287 6.53734 18.1512 6.50358C18.1737 6.46982 18.1887 6.43214 18.1953 6.3928C18.3633 5.69606 18.9326 4.34297 19.2695 3.53424C19.377 3.27905 19.4648 3.06699 19.5225 2.92563C19.6885 2.50979 19.751 2.46664 20.1563 2.1986C20.2441 2.14076 20.3457 2.07283 20.4639 1.99114C20.7637 1.77797 21.0207 1.51622 21.2227 1.21821C21.2717 1.13291 21.3381 1.05744 21.418 0.996058C21.5352 1.15303 21.7344 1.90393 21.833 2.27387C21.9082 2.5566 21.9795 2.82465 22.0439 3.01467C22.0607 3.07094 22.0947 3.12136 22.1416 3.15971C22.1996 3.20201 22.2541 3.24834 22.3047 3.29832C22.3101 3.30512 22.3159 3.31156 22.3223 3.3176C22.8564 3.85002 23.3369 4.89834 23.5859 5.63547C23.915 6.60852 24.2178 7.01885 24.7305 7.5219C24.8916 7.68071 25.3242 8.6767 26.4697 12.523C26.5195 12.6901 26.5586 12.8213 26.584 12.9039C26.8623 13.8219 28.0664 16.6107 29.4795 17.4552C30.3037 17.9463 31.0244 19.237 31.6211 21.2914L31.6563 21.4108C31.8799 22.1534 33.749 24.0499 34.4981 24.6953C35.1113 25.2249 36.2363 26.6661 36.9844 28.0752C37.375 28.8142 37.6309 29.4733 37.7295 30.003H0.49707C0.363281 30.1333 0.229492 30.2627 0.09375 30.3913C-0.00390626 30.483 -0.101562 30.5748 -0.206055 30.6666H37.9922C38.0259 30.6634 38.0581 30.6519 38.0857 30.6334C38.1132 30.6149 38.1352 30.59 38.1494 30.5611C38.1917 30.4841 38.211 30.3978 38.2051 30.3114C38.168 29.5825 37.8711 28.6903 37.3203 27.6566Z" fill="url(#paint1_linear_202_286)"/>
<path d="M17.457 27.0021C19.1807 25.5701 19.8857 25.6252 20.3213 25.7418C20.7568 25.8583 21.9521 26.0998 21.9521 26.0998C21.9521 26.0998 18.9404 26.2145 17.457 27.0021Z" fill="white"/>
<path d="M29.8008 23.9802C30.5508 25.1185 30.8154 24.8606 31.1348 26.7295C30.5661 25.8709 30.1177 24.9468 29.8008 23.9802Z" fill="white"/>
</g>
<defs>
<linearGradient id="paint0_linear_202_286" x1="0.155273" y1="15.5" x2="37.9922" y2="15.5" gradientUnits="userSpaceOnUse">
<stop stop-color="#395A7A"/>
<stop offset="1" stop-color="#5378A0"/>
</linearGradient>
<linearGradient id="paint1_linear_202_286" x1="-0.206055" y1="15.5" x2="38.2061" y2="15.5" gradientUnits="userSpaceOnUse">
<stop stop-color="#395A7A"/>
<stop offset="1" stop-color="#5378A0"/>
</linearGradient>
<clipPath id="clip0_202_286">
<rect width="39" height="30" fill="white"/>
</clipPath>
</defs>
</svg>
