<svg width="32" height="26" viewBox="0 0 32 26" fill="none" xmlns="http://www.w3.org/2000/svg">
	<g clip-path="url(#clip0_43_166)">
		<path d="M23.9999 0H19.1999V6.4L15.9999 4.8L12.7999 6.4V0H7.9999C7.1149 0 6.3999 0.7165 6.3999 1.6V11.2C6.3999 12.0835 7.1164 12.8 7.9999 12.8H23.9999C24.8834 12.8 25.5999 12.0835 25.5999 11.2V1.6C25.5999 0.7165 24.8849 0 23.9999 0Z" fill="#7D7D7D" />
		<path opacity="0.4" d="M27.2 16H4.8C2.08 16 0 18.08 0 20.8C0 23.52 2.08 25.6 4.8 25.6H27.2C29.92 25.6 32 23.52 32 20.8C32 18.08 29.92 16 27.2 16ZM6.4 22.4C5.44 22.4 4.8 21.76 4.8 20.8C4.8 19.84 5.44 19.2 6.4 19.2C7.36 19.2 7.955 19.84 7.955 20.8C7.955 21.76 7.36 22.4 6.4 22.4ZM15.955 22.4C14.995 22.4 14.355 21.76 14.355 20.8C14.355 19.84 14.995 19.2 15.955 19.2C16.915 19.2 17.555 19.84 17.555 20.8C17.555 21.76 16.96 22.4 15.955 22.4ZM25.6 22.4C24.64 22.4 24 21.76 24 20.8C24 19.84 24.64 19.2 25.6 19.2C26.56 19.2 27.2 19.84 27.2 20.8C27.2 21.76 26.56 22.4 25.6 22.4ZM19.2 6.4V0H12.8V6.4L16 4.8L19.2 6.4Z" fill="#7D7D7D" />
	</g>
	<defs>
		<clipPath id="clip0_43_166">
			<rect width="32" height="25.6" fill="white" />
		</clipPath>
	</defs>
</svg>
