<svg width="26" height="20" viewBox="0 0 26 20" fill="none" xmlns="http://www.w3.org/2000/svg">
<path fill-rule="evenodd" clip-rule="evenodd" d="M7.27344 17.2676C7.27344 17.0265 7.36923 16.7952 7.53973 16.6247C7.71024 16.4542 7.94149 16.3584 8.18262 16.3584H24.5479C24.789 16.3584 25.0203 16.4542 25.1908 16.6247C25.3613 16.7952 25.4571 17.0265 25.4571 17.2676C25.4571 17.5088 25.3613 17.74 25.1908 17.9105C25.0203 18.081 24.789 18.1768 24.5479 18.1768H8.18262C7.94149 18.1768 7.71024 18.081 7.53973 17.9105C7.36923 17.74 7.27344 17.5088 7.27344 17.2676ZM7.27344 9.99417C7.27344 9.75304 7.36923 9.52178 7.53973 9.35128C7.71024 9.18077 7.94149 9.08498 8.18262 9.08498H24.5479C24.789 9.08498 25.0203 9.18077 25.1908 9.35128C25.3613 9.52178 25.4571 9.75304 25.4571 9.99417C25.4571 10.2353 25.3613 10.4665 25.1908 10.6371C25.0203 10.8076 24.789 10.9033 24.5479 10.9033H8.18262C7.94149 10.9033 7.71024 10.8076 7.53973 10.6371C7.36923 10.4665 7.27344 10.2353 7.27344 9.99417ZM7.27344 2.72071C7.27344 2.47958 7.36923 2.24832 7.53973 2.07782C7.71024 1.90731 7.94149 1.81152 8.18262 1.81152H24.5479C24.789 1.81152 25.0203 1.90731 25.1908 2.07782C25.3613 2.24832 25.4571 2.47958 25.4571 2.72071C25.4571 2.96184 25.3613 3.19309 25.1908 3.36359C25.0203 3.5341 24.789 3.62989 24.5479 3.62989H8.18262C7.94149 3.62989 7.71024 3.5341 7.53973 3.36359C7.36923 3.19309 7.27344 2.96184 7.27344 2.72071Z" fill="#FE7D22"/>
<path d="M2.25862 0.346219C2.28955 0.245952 2.3518 0.158233 2.43623 0.0959259C2.52066 0.0336185 2.62283 0 2.72776 0C2.83269 0 2.93486 0.0336185 3.01929 0.0959259C3.10372 0.158233 3.16596 0.245952 3.1969 0.346219L3.49147 1.30995C3.55511 1.51906 3.74604 1.66271 3.96061 1.66271H4.96253C5.43349 1.66271 5.63532 2.26823 5.26074 2.55917L4.40975 3.21923C4.32933 3.28213 4.26992 3.36797 4.2394 3.46539C4.20887 3.56281 4.20867 3.66721 4.23882 3.76474L4.5534 4.79939C4.69523 5.2649 4.16608 5.63948 3.78423 5.3449L3.02597 4.75575C2.94072 4.6894 2.83578 4.65337 2.72776 4.65337C2.61973 4.65337 2.51479 4.6894 2.42955 4.75575L1.67129 5.34309C1.28943 5.63948 0.762105 5.2649 0.902119 4.79939L1.2167 3.76293C1.24644 3.66564 1.24604 3.56163 1.21553 3.46458C1.18502 3.36753 1.12583 3.282 1.04577 3.21923L0.194775 2.55917C-0.179808 2.26823 0.0220306 1.66271 0.492987 1.66271H1.49309C1.59909 1.66239 1.70216 1.62789 1.787 1.56434C1.87184 1.5008 1.93393 1.41158 1.96404 1.30995L2.25862 0.346219ZM2.25862 7.61968C2.28955 7.51941 2.3518 7.43169 2.43623 7.36939C2.52066 7.30708 2.62283 7.27346 2.72776 7.27346C2.83269 7.27346 2.93486 7.30708 3.01929 7.36939C3.10372 7.43169 3.16596 7.51941 3.1969 7.61968L3.49147 8.58341C3.55511 8.79252 3.74604 8.93617 3.96061 8.93617H4.96253C5.43349 8.93617 5.63532 9.54169 5.26074 9.83263L4.40975 10.4927C4.32933 10.5556 4.26992 10.6414 4.2394 10.7389C4.20887 10.8363 4.20867 10.9407 4.23882 11.0382L4.5534 12.0729C4.69523 12.5365 4.16608 12.9129 3.78423 12.6184L3.02597 12.0292C2.94072 11.9629 2.83578 11.9268 2.72776 11.9268C2.61973 11.9268 2.51479 11.9629 2.42955 12.0292L1.67129 12.6165C1.28943 12.9129 0.762105 12.5384 0.902119 12.0729L1.2167 11.0364C1.24644 10.9391 1.24604 10.8351 1.21553 10.738C1.18502 10.641 1.12583 10.5555 1.04577 10.4927L0.194775 9.83263C-0.179808 9.54169 0.0220306 8.93617 0.492987 8.93617H1.49309C1.59909 8.93585 1.70216 8.90135 1.787 8.8378C1.87184 8.77426 1.93393 8.68504 1.96404 8.58341L2.25862 7.61968ZM2.25862 14.8931C2.28955 14.7929 2.3518 14.7052 2.43623 14.6428C2.52066 14.5805 2.62283 14.5469 2.72776 14.5469C2.83269 14.5469 2.93486 14.5805 3.01929 14.6428C3.10372 14.7052 3.16596 14.7929 3.1969 14.8931L3.49147 15.8569C3.55511 16.066 3.74604 16.2096 3.96061 16.2096H4.96253C5.43349 16.2096 5.63532 16.8151 5.26074 17.1061L4.40975 17.7662C4.32933 17.829 4.26992 17.9149 4.2394 18.0123C4.20887 18.1097 4.20867 18.2141 4.23882 18.3117L4.5534 19.3463C4.69523 19.81 4.16608 20.1864 3.78423 19.8918L3.02597 19.3027C2.94072 19.2363 2.83578 19.2003 2.72776 19.2003C2.61973 19.2003 2.51479 19.2363 2.42955 19.3027L1.67129 19.89C1.28943 20.1864 0.762105 19.8118 0.902119 19.3463L1.2167 18.3098C1.24644 18.2126 1.24604 18.1085 1.21553 18.0115C1.18502 17.9145 1.12583 17.8289 1.04577 17.7662L0.194775 17.1061C-0.179808 16.8151 0.0220306 16.2096 0.492987 16.2096H1.49309C1.59909 16.2093 1.70216 16.1748 1.787 16.1113C1.87184 16.0477 1.93393 15.9585 1.96404 15.8569L2.25862 14.8931Z" fill="#FE7D22"/>
</svg>
