<svg width="33" height="33" viewBox="0 0 33 33" fill="none" xmlns="http://www.w3.org/2000/svg">
<path d="M0.820801 16.373C0.820801 7.66189 7.88259 0.600098 16.5938 0.600098C25.3049 0.600098 32.3667 7.66189 32.3667 16.373V16.8271C32.3667 25.5383 25.3049 32.6001 16.5938 32.6001C7.88259 32.6001 0.820801 25.5383 0.820801 16.8271V16.373Z" fill="#E20202"/>
<path d="M21.3665 17.9001V10.1001H24.0938V17.9001H21.3665ZM18.6392 10.1001C19.0009 10.1001 19.3477 10.2371 19.6034 10.4809C19.8592 10.7247 20.0028 11.0553 20.0028 11.4001V17.9001C20.0028 18.2576 19.8528 18.5826 19.6006 18.8166L15.1142 23.1001L14.3915 22.4111C14.2074 22.2356 14.0915 21.9951 14.0915 21.7221L14.1119 21.5206L14.7597 18.5501H10.4574C9.70057 18.5501 9.09375 17.9651 9.09375 17.2501V15.9501C9.09375 15.7811 9.12784 15.6251 9.1892 15.4756L11.2483 10.8931C11.4528 10.4251 11.9369 10.1001 12.5028 10.1001H18.6392ZM18.6392 11.4001H12.4824L10.4574 15.9501V17.2501H16.4437L15.6733 20.7081L18.6392 17.8806V11.4001Z" fill="white"/>
</svg>
