<svg width="32" height="26" viewBox="0 0 32 26" fill="none" xmlns="http://www.w3.org/2000/svg">
	<g clip-path="url(#clip0_43_169)">
		<path d="M30.5251 18.665C30.6564 17.965 30.6564 17.24 30.5251 16.54L31.8126 15.79C31.9626 15.7088 32.0314 15.5338 31.9814 15.365C31.6439 14.29 31.0689 13.3085 30.3189 12.496C30.2064 12.371 30.0189 12.3398 29.8689 12.4273L28.5814 13.1713C28.0374 12.7088 27.4124 12.3463 26.7374 12.1088V10.615C26.7374 10.4463 26.6124 10.2963 26.4499 10.265C25.3374 10.015 24.1999 10.0213 23.1374 10.265C22.9749 10.2963 22.8561 10.4463 22.8561 10.615V12.109C22.1811 12.3465 21.5561 12.709 21.0121 13.1715L19.7201 12.425C19.5764 12.3375 19.3889 12.3688 19.2701 12.4938C18.5201 13.3063 17.9451 14.2878 17.6136 15.3628C17.5636 15.5315 17.6324 15.7065 17.7761 15.7878L19.0636 16.5378C18.9386 17.2378 18.9386 17.9628 19.0636 18.6628L17.7761 19.4128C17.6261 19.494 17.5636 19.669 17.6136 19.8378C17.9449 20.9128 18.5201 21.8878 19.2701 22.7068C19.3889 22.8318 19.5701 22.863 19.7201 22.7755L21.0141 22.0315C21.5581 22.494 22.1831 22.8565 22.8581 23.094V24.588C22.8581 24.7568 22.9769 24.9068 23.1394 24.938C24.2584 25.188 25.3894 25.1818 26.4519 24.938C26.6144 24.9068 26.7394 24.7568 26.7394 24.588V23.094C27.4144 22.8565 28.0394 22.494 28.5834 22.0315L29.8709 22.7755C30.0146 22.863 30.2084 22.8318 30.3209 22.7068C31.0709 21.8943 31.6459 20.9128 31.9834 19.8378C32.0334 19.669 31.9646 19.494 31.8146 19.4128L30.5251 18.665ZM24.8001 20.025C23.4626 20.025 22.3751 18.9375 22.3751 17.6C22.3751 16.2625 23.4626 15.175 24.8001 15.175C26.1376 15.175 27.2251 16.2625 27.2251 17.6C27.2251 18.9375 26.1401 20.025 24.8001 20.025Z" fill="#7D7D7D" />
		<path opacity="0.4" d="M11.2 12.8C14.735 12.8 17.6 9.9345 17.6 6.4C17.6 2.8655 14.735 0 11.2 0C7.665 0 4.8 2.8655 4.8 6.4C4.8 9.9345 7.665 12.8 11.2 12.8ZM21.255 24.59V24.1314C21.1399 24.0689 21.0264 24.0035 20.9145 23.9349L20.5236 24.1596C20.2236 24.3348 19.8822 24.4272 19.5361 24.4272C19.0007 24.4272 18.4797 24.2026 18.0877 23.7896C17.1672 22.7852 16.4732 21.5822 16.0767 20.2947C15.809 19.3917 16.1938 18.4512 16.9682 18.0327L17.3691 17.7992C17.3657 17.6681 17.3657 17.5371 17.3691 17.4062L16.9863 17.1832C16.3713 16.8356 16.0163 16.2002 16.0043 15.5142C15.28 15.315 14.52 15.2 13.735 15.2H8.665C3.8805 15.2 0 19.085 0 23.87C0 24.825 0.776 25.6 1.733 25.6H20.665C20.9513 25.6 21.21 25.5137 21.448 25.3906C21.335 25.14 21.255 24.875 21.255 24.59Z" fill="#7D7D7D" />
	</g>
	<defs>
		<clipPath id="clip0_43_169">
			<rect width="32" height="25.6" fill="white" />
		</clipPath>
	</defs>
</svg>
