<svg width="25" height="25" viewBox="0 0 25 25" fill="none" xmlns="http://www.w3.org/2000/svg">
<path d="M19.874 15.4121V3.41211H23.874V15.4121H19.874ZM15.874 3.41211C16.4045 3.41211 16.9132 3.62282 17.2882 3.9979C17.6633 4.37297 17.874 4.88168 17.874 5.41211V15.4121C17.874 15.9621 17.654 16.4621 17.284 16.8221L10.704 23.4121L9.64402 22.3521C9.37402 22.0821 9.20402 21.7121 9.20402 21.2921L9.23402 20.9821L10.184 16.4121H3.87402C2.76402 16.4121 1.87402 15.5121 1.87402 14.4121V12.4121C1.87402 12.1521 1.92402 11.9121 2.01402 11.6821L5.03402 4.63211C5.33402 3.91211 6.04402 3.41211 6.87402 3.41211H15.874ZM15.874 5.41211H6.84402L3.87402 12.4121V14.4121H12.654L11.524 19.7321L15.874 15.3821V5.41211Z" fill="#7D7D7D"/>
</svg>
