<svg width="32" height="21" viewBox="0 0 32 21" fill="none" xmlns="http://www.w3.org/2000/svg">
<path d="M9.48086 20.7524C9.13823 20.7489 8.79656 20.6072 8.5377 20.3281L0.572697 11.755C0.0541423 11.1969 0.0614614 10.3014 0.589052 9.75399L8.69285 1.34578C9.22044 0.798376 10.0678 0.807072 10.5864 1.36522C11.1049 1.92336 11.0976 2.81886 10.57 3.36627L3.42304 10.7837L10.4505 18.3477C10.9691 18.9058 10.9617 19.8013 10.4341 20.3487C10.1683 20.6224 9.824 20.756 9.48086 20.7524Z" fill="#FE7D22"/>
<path d="M22.279 20.7763C22.6217 20.7788 22.9653 20.6431 23.228 20.3686L31.3119 11.9364C31.8382 11.3874 31.8434 10.4919 31.3235 9.93527L23.3383 1.38584C22.8184 0.829239 21.971 0.823059 21.4447 1.37203C20.9184 1.92101 20.9132 2.81652 21.4331 3.37313L28.4755 10.9151L21.3431 18.3548C20.8169 18.9037 20.8117 19.7993 21.3315 20.3559C21.5936 20.6342 21.9359 20.7738 22.279 20.7763Z" fill="#FE7D22"/>
</svg>
