<svg width="60" height="35" viewBox="0 0 60 35" fill="none" xmlns="http://www.w3.org/2000/svg">
<path opacity="0.4" d="M17.6011 34.0036C16.9616 33.9977 16.3239 33.7617 15.8408 33.2968L0.975004 19.0172C0.0071813 18.0876 0.0208414 16.596 1.00553 15.6842L16.1303 1.6793C17.115 0.767523 18.6965 0.782007 19.6644 1.71167C20.6322 2.64133 20.6185 4.1329 19.6338 5.04468L6.29484 17.3993L19.4108 29.9981C20.3786 30.9277 20.3649 32.4193 19.3802 33.3311C18.884 33.7869 18.2415 34.0094 17.6011 34.0036Z" fill="#ADADAD"/>
<path opacity="0.4" d="M41.487 34.0434C42.1265 34.0475 42.7678 33.8215 43.2582 33.3643L58.3458 19.3194C59.3281 18.405 59.3378 16.9134 58.3675 15.9863L43.464 1.74614C42.4937 0.819045 40.9122 0.80875 39.9299 1.72313C38.9476 2.63752 38.9379 4.12912 39.9082 5.05621L53.052 17.6183L39.7403 30.0101C38.758 30.9244 38.7483 32.416 39.7186 33.3431C40.2077 33.8067 40.8466 34.0392 41.487 34.0434Z" fill="#ADADAD"/>
</svg>
