<?xml version="1.0" encoding="utf-8"?>
<!-- Generator: Adobe Illustrator 25.0.0, SVG Export Plug-In . SVG Version: 6.00 Build 0)  -->
<svg version="1.1" id="Camada_1" xmlns="http://www.w3.org/2000/svg" xmlns:xlink="http://www.w3.org/1999/xlink" x="0px" y="0px"
	 viewBox="0 0 16 16" style="enable-background:new 0 0 16 16;" xml:space="preserve">
<style type="text/css">
	.st0{clip-path:url(#SVGID_2_);}
	.st1{fill:#FA7E26;}
</style>
<g>
	<defs>
		<rect id="SVGID_1_" width="16" height="16"/>
	</defs>
	<clipPath id="SVGID_2_">
		<use xlink:href="#SVGID_1_"  style="overflow:visible;"/>
	</clipPath>
	<g class="st0">
		<path class="st1" d="M8.3,11.9c-0.3-0.2-0.5-0.4-0.7-0.6c-0.1-0.1-0.2-0.2-0.4-0.3c-0.6-0.4-1.1-0.1-1.4,0.9
			c-0.2-0.9-0.6-0.6-0.9-0.4c-0.7,0.4-1.3,0.7-2,1c0.2-0.2,0.5-0.5,0.7-0.7c0.2-0.2,0.4-0.3,0.5-0.5c0.4-0.7,0.9-1.2,1.6-1.4
			C6,9.7,6.1,9.2,6.4,8.9C6.2,8.7,6.1,8.5,6,8.4C5.5,8,5.2,8.1,5,8.6C4.8,8.9,4.7,9.2,4.5,9.5C4.5,9,4.6,8.5,4.7,7.9
			C4.1,8.5,3.6,9,3.1,9.5C2.8,9.3,2.5,9.1,2.2,8.9c0,0-0.1,0.1-0.1,0.1c0,0.4,0.2,0.8-0.1,1.1c-0.1,0,0,0.4,0,0.5
			c0,0.3,0.1,0.5,0,0.9c-0.2-0.3-0.3-0.6-0.5-1c-0.5,0.2-1,0.3-1.5,0.6c-0.2,0.1-0.3,0.5-0.4,0.8c-0.1,0.2-0.2,0.3-0.4,0.3
			c-0.6-0.1-1.2-0.1-1.9-0.2c0.1,0.3,0.2,0.4,0.3,0.7c-0.3-0.1-0.6-0.1-0.6-0.7C-3,12-3.2,12.1-3.3,12.1c-0.1,0-0.2,0.2-0.3,0.1
			c-0.7-0.2-1.3,0.5-1.9,0.7c-0.1,0-0.1,0.1-0.2,0c0.4-0.5,0.8-1,1.3-1.4c0.1-0.1,0.4-0.1,0.5,0c0.3,0.1,0.5,0.1,0.7-0.1
			c0.2-0.3,0.5-0.2,0.8-0.1c1.1,0.3,1.1,0.3,1.8-0.7c0.2-0.3,0.5-0.5,0.7-0.8C0.3,10,0.4,10,0.5,10.1c0.4-0.5,0.9-1,1.3-1.6
			C2,8.4,2.1,8.2,2.4,8.3c0.1,0,0.3-0.1,0.3-0.2c0.5-0.8,0.9-1.5,1.4-2.3c0,0,0.1,0,0.1,0C4.6,6.2,5,5.9,5.3,5.5
			C6,4.7,6.7,3.9,7.4,3C8.2,4,9,5.1,9.7,6.1C10.1,6.6,10.4,7,10.9,7c1,0,1.7,0.9,2.4,1.7c0.2,0.2,0.5,0.3,0.8,0.3
			c0.3,0,0.6,0.2,1,0.4c0.2-0.3,0.4-0.6,0.5-0.9c0.6,0.8,1.3,1.5,1.8,2.3c0.3,0.5,0.6,0.7,1.1,0.5c0.3-0.1,0.7,0,1,0.1
			c0.7,0.3,1.5,0.6,2.2,1c-0.6-0.1-1.1-0.1-1.7-0.3c-0.7-0.2-1.3,0-1.9,0.3c-0.2,0.1-0.4,0-0.5-0.2c-0.5-0.7-1-1.4-1.6-2.1
			c-0.1,0.1-0.2,0.2-0.3,0.3c-0.2,0.2-0.3,0.4-0.2,0.8c0.1,0.2,0.1,0.4-0.1,0.6c-0.4,0.4-0.7,1-1.4,0.9c0.3-0.4,0.6-0.8,0.9-1.2
			c0,0,0-0.1-0.1-0.1c-0.4,0.2-0.9,0.5-1.4,0.7c0.2-0.4,0.5-0.8,0.7-1.3c-0.1-0.2-0.3-0.3-0.4-0.5c0.1-0.3,0.2-0.5,0.4-0.8
			c-0.6,0.2-0.9-0.4-1.3-0.7c-0.3-0.2-0.5-0.4-0.8-0.7C11.8,8.6,11.8,9,12,9.5c0.1,0.2,0.2,0.5,0.3,0.8c-0.2,0.4-0.5,0.7-0.7,1.1
			c0.3-0.7,0.4-1.3-0.3-1.8c-0.6,0.4-0.6,0.4-0.5,1.2c0,0.2,0,0.4-0.1,0.6c-0.1,0.2-0.3,0.5-0.4,0.7c-0.1,0.1-0.2,0.3-0.3,0.4
			c0,0,0-0.1,0-0.1c0.4-0.6,0.4-1.3,0.1-2c-0.1-0.3,0.1-0.7,0.2-1.1c0,0,0.1,0,0.1,0c-0.1,0-0.1-0.1-0.2-0.1C10,8.8,9.9,8.5,10.1,8
			c0-0.1,0-0.4-0.1-0.5C9.3,6.6,8.6,5.7,8,4.8c0,0-0.1,0-0.1-0.1c-0.1,0.5-0.2,1-0.3,1.5c0,0.1,0,0.3,0.1,0.4C7.9,7,8.2,7.3,8.4,7.7
			C8.2,7.5,7.9,7.4,7.6,7.3C7.1,8.1,7.3,8.8,7.9,9.4c0,0-0.1,0-0.1,0.1C7.5,9.3,7.3,9.1,7.1,9c-0.2,0.3-0.4,0.6-0.6,1
			C7.2,10.4,7.9,10.8,8.3,11.9z"/>
	</g>
</g>
</svg>
